<?xml version="1.0" standalone="no"?>
<!DOCTYPE svg PUBLIC "-//W3C//DTD SVG 1.1//EN" "http://www.w3.org/Graphics/SVG/1.1/DTD/svg11.dtd" >
<svg xmlns="http://www.w3.org/2000/svg" xmlns:xlink="http://www.w3.org/1999/xlink" version="1.1">
<metadata>
Created by FontForge 20170731 at Wed Nov  1 23:49:58 2017
 By Aleksey,,,
Copyright (c) 2017 by TypeType. Designer Ivan Gladkikh, technical designers Victoria Usmanova, Nadyr Rakhimov. All rights reserved.
</metadata>
<defs>
<font id="TTTravels-Medium" horiz-adv-x="1314" >
  <font-face 
    font-family="TT Travels Medium"
    font-weight="500"
    font-stretch="normal"
    units-per-em="2048"
    panose-1="2 0 8 3 3 0 0 2 0 4"
    ascent="1638"
    descent="-410"
    x-height="1004"
    cap-height="1434"
    bbox="-379 -567 2945 1948"
    underline-thickness="0"
    underline-position="0"
    unicode-range="U+000D-FB06"
  />
<missing-glyph horiz-adv-x="1024" 
 />
    <glyph glyph-name="uniFB00" unicode="ff" horiz-adv-x="1417" 
d="M1024 1059v-55h295v-160h-295v-844h-176v844h-442v-844h-177v844h-168v98l168 62v63q0 193 108 290q106 97 290 97q105 0 182 -39q76 -39 100 -76l23 -39h6q7 19 39 54q26 28 55 47q33 22 91.5 37.5t121.5 15.5q53 0 109 -14q54 -15 80 -27l24 -14v-158q-67 59 -182 59
q-118 0 -183 -55q-67 -55 -69 -186zM406 1004h442v40q0 256 -221 256t-221 -256v-40z" />
    <glyph glyph-name="uniFB01" unicode="fi" horiz-adv-x="1177" 
d="M848 844h-442v-844h-177v844h-168v98l168 62v63q0 193 108 290q106 97 290 97q185 0 291 -96t106 -252h-176q0 30 -13 68q-12 32 -32 58q-23 28 -68 48t-102 20q-227 0 -227 -256v-40h618v-1004h-176v844z" />
    <glyph glyph-name="uniFB02" unicode="fl" horiz-adv-x="1177" 
d="M1024 1067v-1067h-176v844h-442v-844h-177v844h-168v98l168 62v63q0 193 108 290q106 97 290 97q183 0 290 -97q107 -98 107 -290zM848 1004v40q0 256 -221 256t-221 -256v-40h442z" />
    <glyph glyph-name="uniFB03" unicode="ffi" horiz-adv-x="1796" 
d="M1466 0v844h-442v-844h-176v844h-442v-844h-177v844h-168v98l168 62v63q0 190 105 289q104 98 272 98q144 0 226 -57q65 -47 90 -90l10 -17h8q8 21 42 58q23 26 60 50q37 23 97 39.5t127 16.5q170 0 273 -97t103 -251h-176q0 30 -14 68q-12 32 -32 58q-23 28 -68 48
t-103 20q-225 0 -225 -256v-40h618v-1004h-176zM848 1004v40q0 256 -221 256t-221 -256v-40h442z" />
    <glyph glyph-name="uniFB04" unicode="ffl" horiz-adv-x="1796" 
d="M1466 0v844h-442v-844h-176v844h-442v-844h-177v844h-168v98l168 62v63q0 193 108 290q106 97 292 97q129 0 207 -57q62 -47 86 -90l10 -17h8q7 19 41 58q23 26 57 50q84 56 207 56q183 0 290 -97q107 -98 107 -290v-1067h-176zM848 1004v40q0 256 -221 256t-221 -256
v-40h442zM1466 1004v40q0 256 -221 256t-221 -256v-40h442z" />
    <glyph glyph-name="f_j.liga" unicode="fj" horiz-adv-x="1177" 
d="M848 844h-442v-844h-177v844h-168v98l168 62v63q0 193 108 290q106 97 290 97q185 0 291 -96t106 -252h-176q0 30 -13 68q-12 32 -32 58q-23 28 -68 48t-102 20q-227 0 -227 -256v-40h618v-1059q0 -194 -86 -284.5t-252 -90.5q-47 0 -121 16l-18 6v154q48 -23 102 -22
q101 0 151 51q48 51 48 192v877z" />
    <glyph glyph-name="f_k.liga" unicode="fk" horiz-adv-x="1822" 
d="M1823 0h-234l-565 510v-510h-176v844h-442v-844h-177v844h-168v98l168 62v63q0 193 108 290q106 97 290 97q183 0 290 -97q107 -98 107 -290v-543l530 480h234l-539 -486zM848 1004v40q0 256 -221 256t-221 -256v-40h442z" />
    <glyph glyph-name=".notdef" horiz-adv-x="1024" 
 />
    <glyph glyph-name="glyph1" horiz-adv-x="0" 
 />
    <glyph glyph-name="glyph1" horiz-adv-x="0" 
 />
    <glyph glyph-name="glyph2" horiz-adv-x="681" 
 />
    <glyph glyph-name="uni000D" unicode="&#xd;" horiz-adv-x="1024" 
 />
    <glyph glyph-name="space" unicode=" " horiz-adv-x="491" 
 />
    <glyph glyph-name="exclam" unicode="!" horiz-adv-x="614" 
d="M242 410l-31 716v308h192v-308l-30 -716h-131zM225 8q-30 27 -30 78q0 50 30 79q28 28 82 28t83 -28q30 -28 30 -79t-30 -78q-29 -28 -83 -28t-82 28z" />
    <glyph glyph-name="quotedbl" unicode="&#x22;" horiz-adv-x="819" 
d="M303 840h-115l-24 420v174h164v-174zM631 840h-115l-24 420v174h163v-174z" />
    <glyph glyph-name="numbersign" unicode="#" horiz-adv-x="1464" 
d="M897 0h-162l90 369h-358l-90 -369h-162l90 369h-233v135h266l104 426h-229v135h262l90 369h162l-90 -369h358l90 369h162l-90 -369h236v-135h-269l-104 -426h237v-135h-270zM963 930h-359l-104 -426h358z" />
    <glyph glyph-name="dollar" unicode="$" horiz-adv-x="1374" 
d="M782 -258h-188v242q-18 0 -91 17q-101 24 -187 77q-56 34 -93.5 76t-62.5 104q-27 64 -27 139v82h193v-82q0 -125 102 -183q101 -58 264 -58q160 0 264 59q103 58 103 182q0 71 -47 120t-130 74q-55 16 -181 42t-186 42q-99 27 -174 65q-78 40 -128 121q-49 80 -49 196
q0 100 44 177t108 116q128 79 233 94l45 6v242h188v-242q14 -1 44 -6q31 -5 99 -31q70 -27 125 -67q54 -41 98 -122q44 -82 44 -188v-41h-193v41q0 119 -84 180.5t-237 61.5q-151 0 -236.5 -58t-85.5 -163q0 -71 47.5 -121.5t130.5 -78.5q57 -19 184.5 -48.5t181.5 -44.5
q109 -31 183 -72t119 -110q49 -76 49 -185q0 -106 -48 -187q-48 -82 -117 -122q-142 -84 -255 -98l-49 -6v-242z" />
    <glyph glyph-name="percent" unicode="%" horiz-adv-x="1671" 
d="M170 881q-88 89 -88 242q0 152 88 241q88 90 238 90q148 0 237 -90q88 -89 88 -241q0 -153 -88 -242q-89 -90 -237 -90q-150 0 -238 90zM1501 553q88 -89 88 -241q0 -153 -88 -242q-89 -90 -237 -90q-150 0 -238 90q-88 89 -88 242q0 152 88 241q88 90 238 90
q148 0 237 -90zM438 0h-188l983 1434h188zM1139 456q-45 -59 -45 -145q0 -85 45 -144q45 -58 125 -58q79 0 125 58q45 59 45 144q0 87 -45 145q-46 58 -125 58q-80 0 -125 -58zM533 978q45 58 45 144t-45 145q-46 58 -125 58q-80 0 -125 -58q-45 -59 -45 -145t45 -144
t125 -58q79 0 125 58z" />
    <glyph glyph-name="ampersand" unicode="&#x26;" horiz-adv-x="1413" 
d="M659 -20q-250 0 -388 138t-138 347q0 105 33.5 193t86.5 136q107 97 185 119l35 11v6l-274 336v168h987v-168h-740v-6l562 -693v387h170v-583l215 -267l-136 -124l-165 198h-5q-12 -25 -57 -68q-33 -33 -79 -60q-48 -29 -126.5 -49.5t-165.5 -20.5zM659 147q105 0 185 45
q78 44 102 87l27 43l-379 464q-55 -13 -96 -31q-50 -24 -83 -53q-40 -35 -68 -98.5t-28 -138.5q0 -139 90 -228q90 -90 250 -90z" />
    <glyph glyph-name="quotesingle" unicode="'" horiz-adv-x="491" 
d="M303 840h-115l-24 420v174h164v-174z" />
    <glyph glyph-name="parenleft" unicode="(" horiz-adv-x="884" 
d="M864 1659v-152q-227 0 -381 -268q-155 -269 -155 -663q0 -396 155 -665t381 -269v-152q-310 0 -515 300q-206 301 -206 783q0 484 206 786q205 300 515 300z" />
    <glyph glyph-name="parenright" unicode=")" horiz-adv-x="884" 
d="M20 1507v152q310 0 515 -300q206 -301 206 -786q0 -484 -205 -783q-206 -300 -516 -300v152q227 0 382 269t155 665q0 394 -155 663q-154 268 -382 268z" />
    <glyph glyph-name="asterisk" unicode="*" horiz-adv-x="1015" 
d="M516 1270h-16q-7 50 -47 132q-39 81 -39 138q0 102 94 102t94 -102q0 -57 -39 -138q-40 -82 -47 -132zM557 1221l-6 16q48 26 110 87q62 62 115 83q96 35 129 -55q31 -90 -65 -123q-41 -20 -136 -9q-99 11 -147 1zM465 1237l-6 -16q-48 10 -146 -1q-96 -12 -137 9
q-94 33 -65 123q33 90 129 55q52 -19 116 -82q59 -61 109 -88zM528 1174l11 8q40 -37 119 -74q81 -39 116 -86q66 -79 -10 -137q-76 -60 -137 22q-37 44 -55 134q-20 91 -44 133zM477 1182l10 -8q-25 -44 -43 -133q-18 -90 -55 -134q-61 -82 -137 -22q-76 58 -10 137
q35 47 117 86q79 38 118 74z" />
    <glyph glyph-name="plus" unicode="+" horiz-adv-x="1011" 
d="M426 438h-344v160h344v348h160v-348h344v-160h-344v-348h-160v348z" />
    <glyph glyph-name="comma" unicode="," horiz-adv-x="430" 
d="M201 -266v174q0 34 -14.5 53t-34.5 22q-21 3 -35.5 27t-14.5 66q0 117 113 117q112 0 113 -136q0 -150 -36 -236.5t-91 -86.5z" />
    <glyph glyph-name="hyphen" unicode="-" horiz-adv-x="630" 
d="M82 516l467 195v-187l-467 -194v186z" />
    <glyph glyph-name="period" unicode="." horiz-adv-x="430" 
d="M132 8q-30 27 -30 78q0 50 30 79q29 28 83 28t83 -28q30 -29 30 -79q0 -51 -30 -78q-29 -28 -83 -28t-83 28z" />
    <glyph glyph-name="slash" unicode="/" horiz-adv-x="948" 
d="M168 -246h-168l780 1680h168z" />
    <glyph glyph-name="zero" unicode="0" horiz-adv-x="1597" 
d="M1279 187q-175 -207 -480 -207t-480 207q-176 206 -176 530q0 322 176 530q175 207 480 207t480 -207q175 -206 175 -530q0 -325 -175 -530zM1135 1121q-118 157 -336 157t-336 -157q-119 -158 -119 -404q0 -245 119 -403t336 -158t336 158q118 157 118 403
q0 247 -118 404z" />
    <glyph glyph-name="one" unicode="1" horiz-adv-x="765" 
d="M389 1196l-307 -242v217l324 263h176v-1434h-193v1196z" />
    <glyph glyph-name="two" unicode="2" horiz-adv-x="1392" 
d="M1270 0h-1157v152q0 97 51.5 179.5t138.5 139.5q123 80 392 196q83 35 144 68t117 76.5t85.5 96t29.5 112.5q0 128 -93 193t-269 65q-362 0 -363 -289v-41h-192v41q0 219 150 342q148 123 405 123q253 0 405 -116q150 -117 150 -318q0 -103 -51 -193t-138 -151
q-138 -99 -385 -203q-87 -36 -144.5 -64t-115.5 -66t-86.5 -80.5t-28.5 -90.5h955v-172z" />
    <glyph glyph-name="three" unicode="3" horiz-adv-x="1386" 
d="M1274 438q0 -211 -160 -334q-160 -124 -416 -124q-259 0 -416 124q-159 123 -159 340v37h192v-37q0 -142 101 -215t282 -73q176 0 280 72q103 70 103 210q0 142 -100 212.5t-283 70.5h-368v172l569 360v9h-727v172h1030v-172l-569 -361v-8h65q260 0 418 -119t158 -336z
" />
    <glyph glyph-name="four" unicode="4" horiz-adv-x="1378" 
d="M1110 0h-192v342h-857v172l791 920h258v-920h197v-172h-197v-342zM283 520v-6h635v739h-7z" />
    <glyph glyph-name="five" unicode="5" horiz-adv-x="1419" 
d="M1307 469q0 -228 -155 -359q-154 -130 -413 -130q-260 0 -412 116q-153 116 -153 316h193q0 -123 97 -189.5t275 -66.5q180 0 277.5 78.5t97.5 234.5q0 313 -385 313q-175 0 -260 -57q-36 -24 -61 -49t-31 -41l-8 -17h-195v816h1034v-172h-841v-418h4q16 16 37 32
q24 19 122 51q96 31 220 31q248 0 403 -131q154 -130 154 -358z" />
    <glyph glyph-name="six" unicode="6" horiz-adv-x="1456" 
d="M1266 1047h-201q-9 38 -33 81q-23 39 -56 72q-36 34 -99 58t-136 24q-186 0 -291 -143q-106 -143 -106 -369h6q15 24 56 58q32 26 76 50q39 20 119 40q77 18 165 18q243 0 401 -134q156 -134 156 -343q0 -219 -156 -349q-157 -130 -417 -130q-298 0 -453 183
q-154 182 -154 509v63q0 306 157 512q158 207 441 207q109 0 203 -31t154 -83q55 -48 97 -107q71 -102 71 -186zM480 236q102 -84 270 -84t270 84q102 82 102 223q0 139 -104 222q-106 83 -268 83q-164 0 -268 -83q-105 -83 -105 -222q0 -141 103 -223z" />
    <glyph glyph-name="seven" unicode="7" horiz-adv-x="1185" 
d="M465 0h-217l680 1262h-877v172h1094v-172z" />
    <glyph glyph-name="eight" unicode="8" horiz-adv-x="1462" 
d="M1274 1055q0 -67 -25.5 -124t-64.5 -89q-80 -67 -140 -80l-26 -6v-8q38 -7 105 -41q48 -25 91 -62q39 -34 72 -98q33 -65 33 -141q0 -194 -163 -309q-164 -117 -425 -117t-425 117q-163 115 -163 309q0 75 30 138.5t77 100.5q97 76 164 94l30 9v8q-37 9 -89 34
q-45 22 -77 51q-37 32 -63.5 90t-26.5 124q0 184 148 292q148 107 395 107t396 -107q147 -108 147 -292zM448 221q104 -65 283 -65q180 0 284 65q103 64 103 185t-103 185t-284 64q-180 0 -283 -64q-104 -65 -104 -185t104 -185zM478 893q89 -62 253 -62t253 62t89 162
q0 105 -90.5 164t-251.5 59t-251.5 -59t-90.5 -164q0 -100 89 -162z" />
    <glyph glyph-name="nine" unicode="9" horiz-adv-x="1456" 
d="M154 387h200q7 -30 39 -82q27 -44 59 -71q36 -34 102.5 -58t143.5 -24q202 0 308 142t106 370h-6q-15 -24 -55 -57q-35 -29 -77 -50q-40 -21 -119 -40q-75 -19 -165 -19q-243 0 -400 134q-157 133 -157 343q0 219 157 349q155 130 417 130q299 0 453 -183
q153 -185 153 -509v-64q0 -426 -269 -617q-143 -101 -346 -101q-109 0 -204.5 30.5t-158.5 80.5q-61 48 -103 106q-78 106 -78 190zM977 1198q-103 84 -270 84q-168 0 -270 -84q-103 -84 -103 -223t105 -222q104 -83 268 -83q162 0 268 83q104 83 104 222t-102 223z" />
    <glyph glyph-name="colon" unicode=":" horiz-adv-x="430" 
d="M132 8q-30 27 -30 78q0 50 30 79q29 28 83 28t83 -28q30 -29 30 -79q0 -51 -30 -78q-29 -28 -83 -28t-83 28zM132 839q-30 27 -30 79q0 50 30 79q30 27 83 27t83 -27q30 -29 30 -79q0 -52 -30 -79q-29 -28 -83 -28t-83 28z" />
    <glyph glyph-name="semicolon" unicode=";" horiz-adv-x="430" 
d="M132 839q-30 27 -30 79q0 50 30 79q30 27 83 27t83 -27q30 -29 30 -79q0 -52 -30 -79q-29 -28 -83 -28t-83 28zM201 -266v174q0 34 -14.5 53t-34.5 22q-21 3 -35.5 27t-14.5 66q0 117 113 117q112 0 113 -136q0 -150 -36 -236.5t-91 -86.5z" />
    <glyph glyph-name="less" unicode="&#x3c;" horiz-adv-x="1191" 
d="M1090 -20l-1029 426v192l1029 426v-172l-842 -346v-8l842 -346v-172z" />
    <glyph glyph-name="equal" unicode="=" horiz-adv-x="1062" 
d="M961 653h-859v160h859v-160zM961 270h-859v160h859v-160z" />
    <glyph glyph-name="greater" unicode="&#x3e;" horiz-adv-x="1191" 
d="M102 1024l1028 -426v-192l-1028 -426v172l842 346v8l-842 346v172z" />
    <glyph glyph-name="question" unicode="?" horiz-adv-x="1253" 
d="M492 657q0 -41 32 -65.5t82 -24.5t82.5 23t32.5 63v19h184v-19q0 -112 -78 -174.5t-220 -62.5q-143 0 -221.5 64t-78.5 177q0 109 70 173t168 86q85 20 197 40q95 16 168 58q69 40 69 114q0 78 -95 116q-97 38 -257 38q-158 0 -255 -52q-98 -53 -98 -143v-61h-192v61
q0 167 152 268q152 99 393 99q243 0 394 -86q150 -86 150 -240q0 -98 -48.5 -167t-126.5 -96q-74 -26 -164 -46q-100 -22 -164 -31q-75 -12 -126 -44q-50 -32 -50 -87zM530 8q-30 27 -30 78q0 50 30 79q28 28 83 28q54 0 83 -28q29 -29 29 -79q0 -51 -29 -78
q-29 -28 -83 -28q-55 0 -83 28z" />
    <glyph glyph-name="at" unicode="@" horiz-adv-x="2015" 
d="M701 203q-119 122 -119 318q0 195 119 317q119 120 280 120q116 0 187 -43q55 -35 77 -67l6 -14h4v104h177v-526q0 -170 139 -170q62 7 92.5 36.5t41.5 91.5q7 43 9 80q2 46 2 97q0 337 -179 530q-179 191 -523 191q-326 0 -510 -204q-185 -205 -185 -532
q0 -314 182 -523q181 -208 490 -208q102 0 182 19t115 41l33 18l78 -137q-9 -6 -48 -28q-31 -16 -138 -45q-107 -27 -222 -27q-379 0 -613 245q-235 245 -235 646q0 399 243 647q243 247 628 247q416 0 647 -245q231 -246 231 -635q0 -235 -92 -350q-91 -115 -229 -115
q-61 0 -110.5 18t-76.5 46q-57 58 -65 100l-4 18h-4q-6 -22 -39 -63q-26 -32 -56 -55q-34 -27 -92 -45.5t-123 -18.5q-182 0 -300 121zM1185 319q70 76 70 201q0 126 -70 202q-71 77 -184 77q-111 0 -177 -77t-66 -202t67 -201q66 -77 176 -77q113 0 184 77z" />
    <glyph glyph-name="A" unicode="A" horiz-adv-x="1488" 
d="M616 1434h256l586 -1434h-203l-129 315h-764l-129 -315h-202zM432 487h623l-305 773h-11z" />
    <glyph glyph-name="B" unicode="B" horiz-adv-x="1478" 
d="M1278 1038q0 -60 -20.5 -113t-51.5 -84q-59 -59 -112 -79l-21 -6v-8q11 -1 31 -6q19 -5 68 -27q46 -21 86 -56q36 -34 67 -100t31 -151q0 -408 -527 -408h-645v1434h609q485 -2 485 -396zM829 645h-452v-473h452q166 0 246 57t80 179q0 237 -326 237zM377 1262v-449h416
q143 0 214 56.5t70 168.5q0 222 -284 224h-416z" />
    <glyph glyph-name="C" unicode="C" horiz-adv-x="1687" 
d="M860 156q124 0 221 42q96 41 146 102q100 123 121 220l8 43h198q0 -174 -157 -364q-79 -96 -218 -157q-142 -62 -319 -62q-329 0 -522 205q-195 204 -195 532q0 327 195 532q193 205 522 205q177 0 319 -62q141 -64 218 -157q157 -189 157 -365h-198q-1 2 -2 11.5
t-5.5 26.5t-12.5 42q-31 89 -95 166q-80 98 -214 139q-78 23 -167 23q-243 0 -379 -157q-137 -158 -137 -404q0 -245 137 -403t379 -158z" />
    <glyph glyph-name="D" unicode="D" horiz-adv-x="1579" 
d="M184 1434h535q331 0 524 -196t193 -521q0 -327 -193 -521q-193 -196 -524 -196h-535v1434zM1096 324q139 151 139 393t-139 393q-140 152 -377 152h-342v-1090h342q237 0 377 152z" />
    <glyph glyph-name="E" unicode="E" horiz-adv-x="1384" 
d="M1262 0h-1078v1434h1078v-172h-885v-439h762v-172h-762v-479h885v-172z" />
    <glyph glyph-name="F" unicode="F" horiz-adv-x="1320" 
d="M377 0h-193v1434h1065v-172h-872v-514h729v-173h-729v-575z" />
    <glyph glyph-name="G" unicode="G" horiz-adv-x="1718" 
d="M1554 0h-182v293h-8q-8 -21 -13 -33q-11 -23 -49 -76q-42 -57 -92 -96q-53 -41 -149 -74q-95 -34 -213 -34q-324 0 -514 205q-191 205 -191 532t195 532q193 205 522 205q166 0 304 -56q136 -57 215 -145q155 -173 173 -352h-202q-19 86 -77 172q-37 56 -88 101
q-53 46 -138.5 75t-186.5 29q-243 0 -379 -157q-137 -158 -137 -404q0 -245 134 -403t370 -158q109 0 205 44q93 43 149 108q55 63 87 130.5t32 120.5h-471v172h704v-731z" />
    <glyph glyph-name="H" unicode="H" horiz-adv-x="1591" 
d="M1407 0h-193v659h-837v-659h-193v1434h193v-603h837v603h193v-1434z" />
    <glyph glyph-name="I" unicode="I" horiz-adv-x="1196" 
d="M123 1434h950v-172h-379v-1090h379v-172h-950v172h379v1090h-379v172z" />
    <glyph glyph-name="J" unicode="J" horiz-adv-x="1302" 
d="M92 559h193v-80q0 -152 84 -237.5t242 -85.5q157 0 241 86t84 237v783h-625v172h817v-955q0 -221 -138 -360t-379 -139q-242 0 -380 139q-139 139 -139 360v80z" />
    <glyph glyph-name="K" unicode="K" horiz-adv-x="1343" 
d="M1343 0h-239l-727 709v-709h-193v1434h193v-693l682 693h239l-690 -705z" />
    <glyph glyph-name="L" unicode="L" horiz-adv-x="1300" 
d="M377 172h883v-172h-1076v1434h193v-1262z" />
    <glyph glyph-name="M" unicode="M" horiz-adv-x="1855" 
d="M1049 383h-242l-422 825h-8v-1208h-193v1434h295l445 -871h8l444 871h295v-1434h-192v1208h-9z" />
    <glyph glyph-name="N" unicode="N" horiz-adv-x="1624" 
d="M1440 0h-287l-770 1219h-6v-1219h-193v1434h287l770 -1219h6v1219h193v-1434z" />
    <glyph glyph-name="O" unicode="O" horiz-adv-x="1720" 
d="M338 185q-195 204 -195 532q0 327 195 532q193 205 522 205q328 0 523 -205q194 -206 194 -532q0 -327 -194 -532q-195 -205 -523 -205q-329 0 -522 205zM1239 314q137 158 137 403q0 246 -137 404q-136 157 -379 157t-379 -157q-137 -158 -137 -404q0 -245 137 -403
t379 -158t379 158z" />
    <glyph glyph-name="P" unicode="P" horiz-adv-x="1447" 
d="M731 418h-354v-418h-193v1434h547q282 0 428 -129.5t146 -378.5t-146 -378.5t-428 -129.5zM377 1262v-672h354q182 0 277.5 84.5t95.5 251.5t-95.5 251.5t-277.5 84.5h-354z" />
    <glyph glyph-name="Q" unicode="Q" horiz-adv-x="1720" 
d="M877 -57l-17 37q-329 0 -522 205q-195 204 -195 532q0 327 195 532q193 205 522 205q328 0 523 -205q194 -206 194 -532q0 -171 -52 -306q-53 -137 -126 -209q-71 -70 -145 -118t-128 -64l-53 -14q122 -209 488 -209v-176q-159 0 -288 37q-131 38 -203 89
q-70 50 -122 103.5t-71 92.5zM1239 314q137 158 137 403q0 246 -137 404q-136 157 -379 157t-379 -157q-137 -158 -137 -404q0 -245 137 -403t379 -158t379 158z" />
    <glyph glyph-name="R" unicode="R" horiz-adv-x="1472" 
d="M1370 0h-221l-342 541h-430v-541h-193v1434h553q273 0 414 -114.5t141 -332.5q0 -92 -28 -170t-72 -122q-84 -86 -156 -105l-28 -10zM377 1262v-549h360q353 0 355 275q0 274 -355 274h-360z" />
    <glyph glyph-name="S" unicode="S" horiz-adv-x="1456" 
d="M1141 397q0 73 -51.5 122t-140.5 73q-60 16 -196 40t-199 39q-102 22 -188 63t-138 122q-54 82 -54 201q0 185 153 291q151 106 402 106q252 0 404 -110q151 -111 151 -308v-41h-192v41q0 242 -363 242q-173 0 -267.5 -56t-94.5 -165q0 -73 51 -124t140 -77
q63 -18 202 -45.5t194 -40.5q117 -28 197 -69t129 -113q53 -79 53 -191q0 -201 -170 -309q-169 -108 -430 -108t-430 109q-170 108 -170 308v82h193v-82q0 -242 408 -242q407 0 407 242z" />
    <glyph glyph-name="T" unicode="T" horiz-adv-x="1300" 
d="M555 1262h-514v172h1219v-172h-512v-1262h-193v1262z" />
    <glyph glyph-name="U" unicode="U" horiz-adv-x="1568" 
d="M164 1434h192v-932q0 -175 121 -260q122 -86 307 -86q184 0 306 86t122 260v932h193v-942q0 -251 -175 -381q-176 -131 -445 -131q-270 0 -446 131q-175 130 -175 381v942z" />
    <glyph glyph-name="V" unicode="V" horiz-adv-x="1421" 
d="M1165 1434h205l-524 -1434h-271l-524 1434h205l449 -1229h12z" />
    <glyph glyph-name="W" unicode="W" horiz-adv-x="2111" 
d="M1663 0h-287l-317 1208h-6l-318 -1208h-286l-377 1434h200l314 -1194h12l313 1194h289l313 -1194h13l313 1194h201z" />
    <glyph glyph-name="X" unicode="X" horiz-adv-x="1304" 
d="M1030 1434h219l-487 -693l522 -741h-219l-414 586l-411 -586h-220l523 741l-488 693h219l377 -537z" />
    <glyph glyph-name="Y" unicode="Y" horiz-adv-x="1347" 
d="M780 0h-213v528l-547 906h211l437 -725h10l438 725h211l-547 -906v-528z" />
    <glyph glyph-name="Z" unicode="Z" horiz-adv-x="1329" 
d="M973 1262h-856v172h1100v-172l-881 -1082v-8h901v-172h-1145v172l881 1081v9z" />
    <glyph glyph-name="bracketleft" unicode="[" horiz-adv-x="757" 
d="M360 -352h357v-160h-533v2171h533v-160h-357v-1851z" />
    <glyph glyph-name="backslash" unicode="\" horiz-adv-x="948" 
d="M0 1434h168l780 -1680h-168z" />
    <glyph glyph-name="bracketright" unicode="]" horiz-adv-x="757" 
d="M573 -512h-532v160h356v1851h-356v160h532v-2171z" />
    <glyph glyph-name="asciicircum" unicode="^" horiz-adv-x="1122" 
d="M451 1434h221l368 -717h-188l-289 571h-4l-289 -571h-188z" />
    <glyph glyph-name="underscore" unicode="_" horiz-adv-x="921" 
d="M-41 -129h1004v-160h-1004v160z" />
    <glyph glyph-name="grave" unicode="`" horiz-adv-x="657" 
d="M61 1536h228l307 -328h-164z" />
    <glyph glyph-name="a" unicode="a" horiz-adv-x="1298" 
d="M113 281q0 154 131 228q130 73 334 73q104 0 192 -25q92 -26 129 -49l39 -25v158q0 102 -75 160.5t-226 58.5q-301 0 -301 -164h-176q1 166 135 247q133 81 342 81q210 0 343 -98q133 -99 134 -285v-365q0 -76 20 -105.5t66 -29.5q40 0 53 11l4 2v-158q-31 -16 -90 -16
q-100 0 -148 43q-38 32 -56 67l-5 12h-8q-25 -25 -51 -42q-31 -21 -68 -37q-98 -43 -239 -43q-213 0 -346 73q-133 72 -133 228zM618 418q-325 0 -325 -137q0 -138 325 -138q96 0 175 21q78 19 107 36q27 14 38 25v115q-11 11 -38 25q-34 16 -106 34q-77 19 -176 19z" />
    <glyph glyph-name="b" unicode="b" horiz-adv-x="1368" 
d="M330 0h-176v1434h176v-580h8q18 28 57 60q35 28 75 51q43 24 112.5 41.5t140.5 17.5q227 0 380 -144q152 -146 152 -378q0 -234 -152 -378q-153 -144 -380 -144q-156 0 -254 60q-86 53 -117 91l-14 19h-8v-150zM974 245q101 101 101 257q0 154 -101 257
q-103 101 -272 101q-166 0 -269 -99t-103 -259q0 -156 101 -257q101 -102 271 -102t272 102z" />
    <glyph glyph-name="c" unicode="c" horiz-adv-x="1308" 
d="M269 125q-156 143 -156 379t156 378q154 142 395 142q137 0 245 -46q111 -47 168 -113q119 -137 119 -251h-182q-10 43 -34 85q-25 43 -58 75q-38 36 -106.5 61t-151.5 25q-169 0 -269 -100q-102 -100 -102 -256t102 -257q101 -102 269 -102q84 0 152.5 25t105.5 63
q69 71 86 132l6 26h182q0 -112 -119 -249q-59 -68 -168 -114q-108 -46 -245 -46q-240 0 -395 143z" />
    <glyph glyph-name="d" unicode="d" horiz-adv-x="1368" 
d="M1038 1434h176v-1434h-176v150h-8q-16 -26 -57 -60q-35 -28 -75 -51q-43 -24 -112.5 -41.5t-140.5 -17.5q-227 0 -379 144q-153 144 -153 378q0 232 153 378q152 144 379 144q122 0 217 -43t133 -84l35 -43h8v580zM395 759q-102 -102 -102 -257q0 -156 102 -257
q101 -102 271 -102t271 102q101 101 101 257q0 160 -103 259t-269 99q-170 0 -271 -101z" />
    <glyph glyph-name="e" unicode="e" horiz-adv-x="1327" 
d="M1214 502l-6 -84h-907q0 -86 102 -180q101 -95 271 -95q125 0 205 47q66 40 92 72l8 14h207q-6 -15 -13 -31q-13 -23 -49 -71q-39 -51 -91 -91q-50 -39 -147 -71q-92 -32 -212 -32q-249 0 -404 142q-157 142 -157 380q0 236 156 379q155 143 395 143q238 0 395 -143
q155 -143 155 -379zM930 765q-100 95 -266 95q-168 0 -266 -95q-99 -95 -99 -187h729q0 92 -98 187z" />
    <glyph glyph-name="f" unicode="f" horiz-adv-x="798" 
d="M406 1044v-40h294v-160h-294v-844h-177v844h-168v98l168 62v63q0 193 108 290q106 97 290 97q54 0 108 -14q54 -15 80 -27l25 -14v-158q-67 59 -183 59q-125 0 -188 -59.5t-63 -196.5z" />
    <glyph glyph-name="g" unicode="g" horiz-adv-x="1198" 
d="M117 688q-2 159 125 247q128 89 325 89h580v-154h-191v-6q61 -49 62 -176q0 -159 -127 -247q-128 -89 -324 -89q-102 0 -172 -11q-88 -14 -88 -71q0 -46 63.5 -64t196.5 -18q232 0 374 -79t142 -230q0 -150 -142 -229q-143 -80 -373 -80q-231 0 -374 80t-143 229
q0 51 19 98t49 75q63 58 106 71l19 8v6q-1 0 -5 1.5t-5 2t-5.5 2t-6.5 2.5t-6.5 3.5t-7.5 5t-8 6.5t-9 8.5t-9.5 10t-11.5 12.5q-29 35 -29 79q0 52 32 90q30 36 65 50l32 10v6q-16 6 -51 36q-29 24 -46 49q-22 29 -38 77t-18 100zM814 -228q89 38 89 107q0 70 -89 108
q-90 38 -246 38q-157 0 -247 -38q-90 -37 -90 -108q0 -69 90 -107t247 -38q156 0 246 38zM765 556q73 49 73 132t-73 132q-74 50 -198 50t-197 -50q-73 -49 -73 -132t73 -132q73 -50 197 -50t198 50z" />
    <glyph glyph-name="h" unicode="h" horiz-adv-x="1304" 
d="M1161 0h-176v518q0 176 -89 259t-239 83q-158 0 -242 -94q-85 -94 -85 -248v-518h-176v1434h176v-584h10q21 34 49 61q33 30 69 53q41 25 109 42.5t142 17.5q194 0 324 -116q128 -117 128 -349v-559z" />
    <glyph glyph-name="i" unicode="i" horiz-adv-x="483" 
d="M154 1004h176v-1004h-176v1004zM321 1427q29 -29 29 -71t-29 -71q-29 -28 -79 -28t-79 28q-30 29 -30 71t30 71q30 27 79 27t79 -27z" />
    <glyph glyph-name="j" unicode="j" horiz-adv-x="507" 
d="M178 1004h176v-1059q0 -195 -85 -285t-253 -90q-45 0 -122 16l-17 6v154q49 -23 103 -22q102 0 150 51t48 192v1037zM345 1427q30 -29 30 -71t-30 -71q-29 -28 -79 -28t-78 28q-30 29 -30 71t30 71q28 27 78 27q49 0 79 -27z" />
    <glyph glyph-name="k" unicode="k" horiz-adv-x="1128" 
d="M1128 0h-233l-565 510v-510h-176v1434h176v-910l530 480h234l-539 -486z" />
    <glyph glyph-name="l" unicode="l" horiz-adv-x="483" 
d="M154 1434h176v-1434h-176v1434z" />
    <glyph glyph-name="m" unicode="m" horiz-adv-x="1865" 
d="M1722 0h-176v518q0 342 -260 342t-260 -342v-518h-176v518q0 342 -260 342t-260 -342v-518h-176v1004h176v-154h10q13 35 32 61q22 30 51 53q33 25 90.5 42.5t127.5 17.5q221 0 320 -174h12q9 25 39 61q25 30 57 53q36 25 97 42.5t130 17.5q207 0 316.5 -115.5
t109.5 -349.5v-559z" />
    <glyph glyph-name="n" unicode="n" horiz-adv-x="1304" 
d="M1161 0h-176v518q0 176 -89 259t-239 83q-158 0 -242 -94q-85 -94 -85 -248v-518h-176v1004h176v-154h10q21 34 49 61q33 30 69 53q41 25 109 42.5t142 17.5q194 0 324 -116q128 -117 128 -349v-559z" />
    <glyph glyph-name="o" unicode="o" horiz-adv-x="1327" 
d="M269 123q-156 143 -156 379q0 235 156 379q155 143 395 143q238 0 395 -143q155 -144 155 -379q0 -236 -155 -379q-157 -143 -395 -143q-240 0 -395 143zM933 244q101 101 101 258t-101 258q-101 100 -269 100q-169 0 -269 -100q-102 -100 -102 -258t102 -258
q101 -101 269 -101q166 0 269 101z" />
    <glyph glyph-name="p" unicode="p" horiz-adv-x="1368" 
d="M330 -410h-176v1414h176v-150h8q18 28 57 60q35 28 75 51q43 24 112.5 41.5t140.5 17.5q227 0 380 -144q152 -146 152 -378q0 -234 -152 -378q-153 -144 -380 -144q-156 0 -254 60q-86 53 -117 91l-14 19h-8v-560zM974 245q101 101 101 257q0 154 -101 257
q-103 101 -272 101q-170 0 -271 -101q-101 -103 -101 -257q0 -160 104 -259q103 -100 268 -100q170 0 272 102z" />
    <glyph glyph-name="q" unicode="q" horiz-adv-x="1368" 
d="M1038 1004h176v-1414h-176v560h-8q-16 -26 -57 -60q-35 -28 -75 -51q-43 -24 -112.5 -41.5t-140.5 -17.5q-227 0 -379 144q-153 144 -153 378q0 232 153 378q152 144 379 144q122 0 217 -43t133 -84l35 -43h8v150zM395 759q-102 -102 -102 -257q0 -156 102 -257
q101 -102 271 -102q166 0 269 100q103 99 103 259q0 156 -101 257t-271 101t-271 -101z" />
    <glyph glyph-name="r" unicode="r" horiz-adv-x="890" 
d="M709 1024q60 0 106 -12l14 -2v-193q-57 20 -151 21q-162 0 -255 -103t-93 -258v-477h-176v1004h176v-195h10q15 32 49 75q31 38 69 66q43 30 110.5 52t140.5 22z" />
    <glyph glyph-name="s" unicode="s" horiz-adv-x="1204" 
d="M911 297q0 59 -57 91q-59 33 -143 37q-87 5 -187 18q-108 13 -188 31q-86 18 -143 81q-58 62 -58 166q0 151 129 228q129 75 334 75q208 0 336 -84q127 -84 127 -264h-180q0 94 -67.5 139t-215.5 45q-283 0 -283 -139q0 -57 58 -87q58 -31 143 -35q79 -4 188 -17
q103 -14 187 -33q85 -21 144 -84q57 -65 57 -168q0 -112 -71 -186q-70 -73 -176 -102q-103 -29 -243 -29q-293 0 -418 144q-71 82 -71 204v32h180v-32q0 -184 309 -184q309 -2 309 153z" />
    <glyph glyph-name="t" unicode="t" horiz-adv-x="890" 
d="M788 844h-372v-455q0 -256 225 -256q48 0 93.5 11t66.5 24l18 12v-160q-80 -41 -198 -40q-177 0 -278 97q-103 97 -103 290v477h-168v160h168v225h176v-225h372v-160z" />
    <glyph glyph-name="u" unicode="u" 
d="M154 1004h176v-519q0 -176 89 -259t238 -83q157 0 243 95q85 94 85 247v519h176v-1004h-176v154h-10q-20 -32 -49 -61q-33 -31 -69 -53q-41 -26 -109 -43t-142 -17q-196 0 -323 117q-129 115 -129 347v560z" />
    <glyph glyph-name="v" unicode="v" horiz-adv-x="1142" 
d="M928 1004h184l-410 -1004h-262l-409 1004h184l352 -865h8z" />
    <glyph glyph-name="w" unicode="w" horiz-adv-x="1671" 
d="M1333 0h-235l-258 815h-9l-258 -815h-235l-297 1004h178l236 -811h8l258 811h229l258 -811h9l235 811h178z" />
    <glyph glyph-name="x" unicode="x" horiz-adv-x="1050" 
d="M807 1004h205l-385 -478l424 -526h-205l-322 399l-319 -399h-205l422 526l-383 478h205l280 -351z" />
    <glyph glyph-name="y" unicode="y" horiz-adv-x="1161" 
d="M20 1004h189l389 -807h6l346 807h191l-463 -1061q-88 -205 -162 -289t-221 -84q-81 0 -123 16l-16 4v154q52 -20 123 -20q81 0 124 51q42 49 89 168l14 37z" />
    <glyph glyph-name="z" unicode="z" horiz-adv-x="1114" 
d="M774 844h-657v160h895v-160l-693 -680v-4h713v-160h-950v160l692 680v4z" />
    <glyph glyph-name="braceleft" unicode="{" horiz-adv-x="808" 
d="M733 -373h35v-159h-35q-229 0 -330 111q-102 113 -102 360v354q0 193 -178 196v168q178 4 178 197v354q0 248 102 360q101 111 330 111h35v-159h-35q-157 0 -207 -75q-49 -74 -49 -237v-374q0 -124 -52 -191q-44 -54 -81 -63l-14 -5v-4q33 -12 51 -25q23 -16 44 -42
q21 -28 36.5 -80t15.5 -111v-374q0 -163 49 -237q50 -75 207 -75z" />
    <glyph glyph-name="bar" unicode="|" horiz-adv-x="782" 
d="M475 -532h-168v2109h168v-2109z" />
    <glyph glyph-name="braceright" unicode="}" horiz-adv-x="808" 
d="M41 -532v159h35q158 0 207 75q49 74 49 237v374q0 126 52 191q45 54 79 63l16 4v4q-30 11 -51 26q-24 15 -44 42q-21 28 -36.5 80t-15.5 111v374q0 163 -49 237q-49 75 -207 75h-35v159h35q229 0 331 -111q101 -113 101 -360v-354q0 -193 178 -197v-168
q-178 -4 -178 -196v-354q0 -247 -101 -360q-102 -111 -331 -111h-35z" />
    <glyph glyph-name="asciitilde" unicode="~" horiz-adv-x="1200" 
d="M825 537q-83 0 -196 -97q-43 -38 -117 -66q-74 -30 -162 -30q-106 0 -177 57q-71 56 -71 168q0 63 17 99l4 12h174q-14 -30 -14 -78q0 -100 92 -100q85 0 195 96q41 37 117 67q76 29 161 29q105 0 178 -56q72 -55 72 -169q0 -64 -17 -98l-4 -13h-174q13 32 15 78
q-2 101 -93 101z" />
    <glyph glyph-name="uni00A0" unicode="&#xa0;" horiz-adv-x="491" 
 />
    <glyph glyph-name="exclamdown" unicode="&#xa1;" horiz-adv-x="593" 
d="M362 594l31 -717v-287h-192v287l30 717h131zM380 997q30 -29 30 -79q0 -52 -30 -79q-29 -28 -83 -28t-83 28q-30 27 -30 79q0 50 30 79q30 27 83 27t83 -27z" />
    <glyph glyph-name="cent" unicode="&#xa2;" horiz-adv-x="1298" 
d="M745 -246h-174v234q-24 0 -90 21q-106 32 -187 94q-55 43 -93 95t-62 129q-26 83 -26 177q0 93 25 173.5t66 133.5q41 52 89 91q92 74 252 114l26 2v231h174v-231q117 -12 207 -61q92 -50 143 -113q101 -128 101 -230h-182q-10 43 -34 85q-25 43 -58 75q-38 36 -106.5 61
t-151.5 25q-170 0 -270 -97q-101 -98 -101 -259q0 -162 101 -260q100 -99 270 -99q84 0 152.5 25t105.5 63q69 71 86 132l6 26h182q0 -59 -38.5 -136t-111.5 -143q-53 -48 -132 -81.5t-169 -42.5v-234z" />
    <glyph glyph-name="sterling" unicode="&#xa3;" horiz-adv-x="1204" 
d="M1116 1044h-192v19q0 110 -61.5 166.5t-176.5 56.5q-104 0 -170 -60q-67 -61 -67 -163v-346h428v-160h-428v-393h684v-164h-1072v164h195v393h-195v160h195v307q0 200 105 315q103 115 325 115q224 0 327 -109t103 -282v-19z" />
    <glyph glyph-name="currency" unicode="&#xa4;" horiz-adv-x="1419" 
d="M238 549h-177v172h177v713h464q281 0 427.5 -111.5t146.5 -331.5t-146.5 -331t-427.5 -111h-272v-143h512v-173h-512v-233h-192v233h-177v173h177v143zM430 1262v-541h272q373 0 373 271q0 270 -373 270h-272z" />
    <glyph glyph-name="yen" unicode="&#xa5;" horiz-adv-x="1409" 
d="M1206 307h-395v-307h-213v307h-395v144h395v77l-78 129h-317v144h229l-381 633h211l436 -742h11l438 742h211l-383 -633h231v-144h-317l-78 -129v-77h395v-144z" />
    <glyph glyph-name="brokenbar" unicode="&#xa6;" horiz-adv-x="782" 
d="M307 1577h168v-905h-168v905zM475 -532h-168v917h168v-917z" />
    <glyph glyph-name="section" unicode="&#xa7;" horiz-adv-x="1363" 
d="M682 963q252 0 385 -106t133 -277q0 -67 -21.5 -124t-53.5 -88q-67 -65 -117 -79l-23 -6v-9q39 -11 73 -27q36 -18 63 -42q29 -28 50 -75.5t21 -102.5q0 -146 -136 -234t-374 -88q-244 0 -376 86t-132 250v57h184v-57q0 -188 324 -188q147 0 237 45q89 45 89 129
q0 174 -326 174q-252 0 -385 105q-133 103 -133 274q0 67 23 125t58 91q67 63 128 85l22 6v8q-29 8 -65 28q-33 17 -57 42q-27 27 -46.5 72t-19.5 98q0 139 122 229q121 90 353 90q230 0 352 -91q123 -91 123 -245v-28h-184v28q0 73 -77 132q-77 57 -214 57q-120 0 -206 -45
q-85 -45 -85 -127q0 -88 83 -130q82 -42 208 -42zM441 410q95 -62 241 -62q148 0 242 63q94 61 94 169q0 109 -94 172t-242 63q-146 0 -241 -63q-95 -65 -95 -172q0 -108 95 -170z" />
    <glyph glyph-name="dieresis" unicode="&#xa8;" horiz-adv-x="722" 
d="M61 1327q0 43 29 67.5t78 24.5t76.5 -24.5t27.5 -67.5q0 -98 -104 -98q-107 0 -107 98zM451 1327q0 43 28.5 67.5t77.5 24.5t77 -24.5t28 -67.5q0 -98 -105 -98q-106 0 -106 98z" />
    <glyph glyph-name="copyright" unicode="&#xa9;" horiz-adv-x="1802" 
d="M1446 186q-214 -206 -545 -206t-545 206q-213 206 -213 531t213 531q214 206 545 206t545 -206q213 -206 213 -531t-213 -531zM1325 1131q-157 163 -424 163t-424 -163q-158 -164 -158 -414t158 -414t424 -164t424 164t158 414t-158 414zM632 465q-102 101 -102 256
t102 256q100 100 271 100q177 0 269 -91q92 -92 92 -193h-170q0 15 -15 44q-13 22 -30 38q-49 43 -146 43q-90 0 -143 -56q-53 -58 -53 -141q0 -84 53 -140q52 -57 143 -57q154 2 189 111l2 14h170q0 -101 -92 -193q-92 -91 -269 -91q-171 0 -271 100z" />
    <glyph glyph-name="ordfeminine" unicode="&#xaa;" horiz-adv-x="919" 
d="M61 1128q0 108 90 167q88 57 226 57q76 0 139.5 -17.5t89.5 -40.5l23 -18v100q0 147 -187 148q-94 0 -144 -30.5t-50 -78.5h-152q0 67 61 144q34 45 109 72.5t176 27.5q166 0 254 -73t88 -210v-252q0 -48 15 -68t51 -20l39 6v-120q-28 -9 -82 -11q-62 0 -102 25
q-42 27 -52 49l-10 25h-4q-11 -18 -33 -37q-20 -17 -48 -32q-74 -36 -171 -36q-153 0 -239.5 59t-86.5 164zM631 1129q0 88 -205 88t-205 -88q0 -89 205 -89t205 89z" />
    <glyph glyph-name="guillemotleft" unicode="&#xab;" horiz-adv-x="946" 
d="M530 115h-192l-277 381l277 381h192l-280 -381zM885 115h-193l-276 381l276 381h193l-281 -381z" />
    <glyph glyph-name="logicalnot" unicode="&#xac;" horiz-adv-x="942" 
d="M850 309h-148v193h-641v155h789v-348z" />
    <glyph glyph-name="uni00AD" unicode="&#xad;" horiz-adv-x="589" 
d="M82 516l467 195v-187l-467 -194v186z" />
    <glyph glyph-name="registered" unicode="&#xae;" horiz-adv-x="1015" 
d="M825 733q-121 -119 -317 -119q-197 0 -316 119q-120 119 -120 302t120 301q118 118 316 118t317 -118q119 -119 119 -301q0 -183 -119 -302zM735 1254q-85 87 -227 87t-227 -87q-86 -88 -86 -220t86 -220q86 -87 227 -87q142 0 227 87q86 88 86 220t-86 220zM555 852
l-59 127h-25v-127h-123v369h182q154 0 154 -119q0 -34 -15.5 -61.5t-33.5 -36.5l-19 -9l76 -143h-137zM471 1063h37q49 0 49 33q0 32 -49 32h-37v-65z" />
    <glyph glyph-name="overscore" unicode="&#xaf;" horiz-adv-x="698" 
d="M637 1260h-576v133h576v-133z" />
    <glyph glyph-name="degree" unicode="&#xb0;" horiz-adv-x="888" 
d="M707 844q-100 -94 -262 -94t-262 94q-101 95 -101 258t101 258q100 94 262 94t262 -94t100 -258t-100 -258zM308 958q49 -55 136 -55q86 0 137 55q50 55 50 144t-50 144q-51 54 -137 54t-136 -54q-50 -55 -50 -144t50 -144z" />
    <glyph glyph-name="plusminus" unicode="&#xb1;" horiz-adv-x="1052" 
d="M950 63h-848v160h344v260h-344v160h344v328h160v-328h344v-160h-344v-260h344v-160z" />
    <glyph glyph-name="uni00B2" unicode="&#xb2;" horiz-adv-x="808" 
d="M739 860h-678v98q0 99 55 160q55 62 133 89q92 29 157 47q76 20 132 54q54 33 54 93q0 123 -170 123q-84 0 -128 -36t-44 -97v-19h-156v19q0 126 85.5 197t242.5 71q155 0 241 -69q85 -70 85 -181q0 -94 -54 -154t-132 -86q-79 -26 -154 -44q-78 -19 -132 -48
q-55 -30 -55 -82h518v-135z" />
    <glyph glyph-name="uni00B3" unicode="&#xb3;" horiz-adv-x="811" 
d="M492 1503h-404v135h621v-133l-277 -153v-2h27q145 0 218 -72t73 -178q0 -118 -90 -189q-92 -71 -254 -71q-167 0 -256 70t-89 190v26h156v-26q0 -57 48 -91t141 -34q188 0 188 125q0 66 -44 94.5t-144 28.5h-205v123l291 155v2z" />
    <glyph glyph-name="acute" unicode="&#xb4;" horiz-adv-x="657" 
d="M225 1208h-164l308 328h227z" />
    <glyph glyph-name="mu" unicode="&#xb5;" horiz-adv-x="1345" 
d="M330 -410h-176v1414h176v-519q0 -176 89 -259t238 -83q157 0 243 95q85 94 85 247v519h176v-728q0 -73 20 -104t66 -31q43 0 51 11l7 2v-158q-31 -16 -91 -16q-93 0 -146 46t-64 93l-9 45h-8q-7 -24 -39 -64q-24 -30 -61 -57q-38 -27 -101 -45t-135 -18q-133 0 -214 52
q-69 43 -89 79l-10 16h-8v-537z" />
    <glyph glyph-name="paragraph" unicode="&#xb6;" horiz-adv-x="1069" 
d="M139 840q-98 89 -98 254q0 166 98 253q97 87 260 87h639v-150h-166v-1816h-163v1816h-146v-1816h-164v1284q-163 0 -260 88z" />
    <glyph glyph-name="middot" unicode="&#xb7;" horiz-adv-x="491" 
d="M163 448q-30 27 -30 79q0 51 30 79q30 27 83 27t83 -27q29 -29 29 -79q0 -52 -29 -79q-29 -28 -83 -28t-83 28z" />
    <glyph glyph-name="cedilla" unicode="&#xb8;" horiz-adv-x="520" 
d="M61 -240h113q0 -59 86 -59t86 57q0 58 -86 58h-110v104l108 123h109l-107 -125q199 0 199 -160q0 -75 -52 -115t-147 -40q-199 -1 -199 157z" />
    <glyph glyph-name="uni00B9" unicode="&#xb9;" horiz-adv-x="548" 
d="M229 1456l-188 -162v191l180 153h164v-778h-156v596z" />
    <glyph glyph-name="ordmasculine" unicode="&#xba;" horiz-adv-x="921" 
d="M172 1010q-111 104 -111 272t111 273q112 104 289 104t289 -104q110 -105 110 -273t-110 -272q-111 -105 -289 -105t-289 105zM635 1110q65 71 65 172t-65 172q-66 70 -174 70q-110 0 -174 -70q-66 -70 -66 -172t66 -172q64 -70 174 -70q108 0 174 70z" />
    <glyph glyph-name="guillemotright" unicode="&#xbb;" horiz-adv-x="946" 
d="M608 877l277 -381l-277 -381h-192l280 381l-280 381h192zM254 877l276 -381l-276 -381h-193l281 381l-281 381h193z" />
    <glyph glyph-name="onequarter" unicode="&#xbc;" horiz-adv-x="1538" 
d="M295 0h-166l983 1434h166zM229 1251l-188 -161v190l180 154h164v-779h-156v596zM1360 0h-156v164h-444v139l442 475h158v-479h117v-135h-117v-164zM934 303v-4h270v293h-4z" />
    <glyph glyph-name="onehalf" unicode="&#xbd;" horiz-adv-x="1646" 
d="M295 0h-166l983 1434h166zM229 1251l-188 -161v190l180 154h164v-779h-156v596zM1577 0h-678v98q0 99 55 160q53 61 132 88q76 27 156 48q78 19 134 54q54 33 54 93q0 123 -170 123q-84 0 -128.5 -36t-44.5 -98v-18h-155v18q0 126 85.5 197.5t242.5 71.5q156 0 241 -70
q84 -71 84 -180q0 -94 -54 -154q-53 -60 -131 -86q-80 -27 -155 -44q-80 -20 -132 -49q-54 -30 -54 -81h518v-135z" />
    <glyph glyph-name="threequarters" unicode="&#xbe;" horiz-adv-x="1837" 
d="M492 1298h-404v136h621v-134l-277 -153v-2h27q145 0 218 -72t73 -178q0 -119 -90 -189q-92 -71 -254 -71q-167 0 -256 70t-89 190v27h156v-27q0 -57 48 -91t141 -34q188 0 188 125q0 66 -44 94.5t-144 28.5h-205v123l291 155v2zM1659 0h-156v164h-444v139l442 475h158
v-479h117v-135h-117v-164zM1233 303v-4h270v293h-4zM594 0h-166l983 1434h166z" />
    <glyph glyph-name="questiondown" unicode="&#xbf;" horiz-adv-x="1232" 
d="M762 346q0 41 -32.5 65.5t-82.5 24.5t-82.5 -23t-32.5 -63v-18h-184v18q0 112 78.5 175t221.5 63q142 0 220 -64t78 -178q0 -89 -48 -148.5t-126 -81.5q-74 -22 -162 -39q-93 -19 -161 -30q-74 -12 -124 -50q-51 -37 -51 -101q0 -78 96 -116t257 -38q158 0 255 52t97 143
v63h192v-63q0 -168 -151 -268q-152 -99 -393 -99q-243 0 -394 86q-151 85 -151 240q0 98 48.5 165t127.5 93q78 25 164 42q101 19 164 25q76 7 126 39t50 86zM724 997q30 -29 30 -79q0 -52 -30 -79q-29 -28 -83 -28t-83 28q-30 27 -30 79q0 50 30 79q30 27 83 27t83 -27z
" />
    <glyph glyph-name="Agrave" unicode="&#xc0;" horiz-adv-x="1488" 
d="M616 1434h256l586 -1434h-203l-129 315h-764l-129 -315h-202zM432 487h623l-305 773h-11zM283 1946h227l307 -328h-164z" />
    <glyph glyph-name="Aacute" unicode="&#xc1;" horiz-adv-x="1488" 
d="M616 1434h256l586 -1434h-203l-129 315h-764l-129 -315h-202zM432 487h623l-305 773h-11zM834 1618h-164l307 328h227z" />
    <glyph glyph-name="Acircumflex" unicode="&#xc2;" horiz-adv-x="1488" 
d="M616 1434h256l586 -1434h-203l-129 315h-764l-129 -315h-202zM432 487h623l-305 773h-11zM944 1618l-201 252l-200 -252h-172l268 328h209l268 -328h-172z" />
    <glyph glyph-name="Atilde" unicode="&#xc3;" horiz-adv-x="1488" 
d="M616 1434h256l586 -1434h-203l-129 315h-764l-129 -315h-202zM432 487h623l-305 773h-11zM575 1602q-82 0 -129 39.5t-47 111.5l9 76h137q-6 -19 -6 -47q0 -58 63 -60q25 -2 62.5 17.5t72.5 44t86 44t99 17.5q84 0 130 -40t46 -111l-8 -76h-138q6 18 6 47q0 59 -63 59
q-40 0 -134 -61q-95 -61 -186 -61z" />
    <glyph glyph-name="Adieresis" unicode="&#xc4;" horiz-adv-x="1488" 
d="M616 1434h256l586 -1434h-203l-129 315h-764l-129 -315h-202zM432 487h623l-305 773h-11zM446 1747q0 43 29 67.5t78 24.5t76.5 -24.5t27.5 -67.5q0 -98 -104 -98q-107 0 -107 98zM836 1747q0 43 28.5 67.5t77.5 24.5t77 -24.5t28 -67.5q0 -98 -105 -98q-106 0 -106 98z
" />
    <glyph glyph-name="Aring" unicode="&#xc5;" horiz-adv-x="1488" 
d="M616 1434h256l586 -1434h-203l-129 315h-764l-129 -315h-202zM432 487h623l-305 773h-11zM897 1623q-55 -52 -153 -52q-99 0 -154 52t-55 136q0 85 55 137t154 52q98 0 153 -52t55 -137q0 -84 -55 -136zM817 1760q0 73 -73 73q-74 0 -74 -73q0 -74 74 -74q73 0 73 74z
" />
    <glyph glyph-name="AE" unicode="&#xc6;" horiz-adv-x="1949" 
d="M1827 0h-918v319h-573l-131 -319h-195l588 1434h1229v-164h-725v-451h602v-164h-602v-491h725v-164zM909 483v787h-188l-320 -787h508z" />
    <glyph glyph-name="Ccedilla" unicode="&#xc7;" horiz-adv-x="1687" 
d="M670 -240h112q0 -59 86 -59t86 57q0 58 -86 58h-110v104l53 62q-222 0 -429 161q-106 82 -172 232q-67 147 -67 342q0 327 195 533q194 204 522 204q177 0 319 -62q141 -64 218 -157q157 -189 157 -365h-198q-1 2 -2 11.5t-5.5 26.5t-12.5 42q-31 89 -95 166
q-80 98 -214 139q-78 23 -167 23q-243 0 -379 -157q-137 -158 -137 -404q0 -245 137 -403t379 -158q124 0 221 42q96 41 146 102q100 123 121 220l8 43h198q0 -166 -144 -349q-70 -91 -199 -156q-126 -65 -289 -76l-54 -64q199 0 199 -160q0 -75 -51.5 -115t-147.5 -40
q-198 -1 -198 157z" />
    <glyph glyph-name="Egrave" unicode="&#xc8;" horiz-adv-x="1384" 
d="M1262 0h-1078v1434h1078v-172h-885v-439h762v-172h-762v-479h885v-172zM307 1946h228l307 -328h-164z" />
    <glyph glyph-name="Eacute" unicode="&#xc9;" horiz-adv-x="1384" 
d="M1262 0h-1078v1434h1078v-172h-885v-439h762v-172h-762v-479h885v-172zM799 1618h-164l307 328h227z" />
    <glyph glyph-name="Ecircumflex" unicode="&#xca;" horiz-adv-x="1384" 
d="M1262 0h-1078v1434h1078v-172h-885v-439h762v-172h-762v-479h885v-172zM930 1618l-201 252l-201 -252h-172l269 328h209l268 -328h-172z" />
    <glyph glyph-name="Edieresis" unicode="&#xcb;" horiz-adv-x="1384" 
d="M1262 0h-1078v1434h1078v-172h-885v-439h762v-172h-762v-479h885v-172zM436 1747q0 43 29 67.5t78 24.5t76.5 -24.5t27.5 -67.5q0 -98 -104 -98q-107 0 -107 98zM825 1747q0 43 29 67.5t78 24.5t76.5 -24.5t27.5 -67.5q0 -98 -104 -98q-107 0 -107 98z" />
    <glyph glyph-name="Igrave" unicode="&#xcc;" horiz-adv-x="1196" 
d="M123 1434h950v-172h-379v-1090h379v-172h-950v172h379v1090h-379v172zM147 1946h228l307 -328h-164z" />
    <glyph glyph-name="Iacute" unicode="&#xcd;" horiz-adv-x="1196" 
d="M123 1434h950v-172h-379v-1090h379v-172h-950v172h379v1090h-379v172zM670 1618h-164l307 328h227z" />
    <glyph glyph-name="Icircumflex" unicode="&#xce;" horiz-adv-x="1196" 
d="M123 1434h950v-172h-379v-1090h379v-172h-950v172h379v1090h-379v172zM799 1618l-201 252l-201 -252h-172l269 328h208l269 -328h-172z" />
    <glyph glyph-name="Idieresis" unicode="&#xcf;" horiz-adv-x="1196" 
d="M123 1434h950v-172h-379v-1090h379v-172h-950v172h379v1090h-379v172zM299 1747q0 43 28.5 67.5t78.5 24.5q49 0 76.5 -24.5t27.5 -67.5q0 -98 -104 -98q-107 0 -107 98zM688 1747q0 43 28.5 67.5t78.5 24.5q49 0 76.5 -24.5t27.5 -67.5q0 -98 -104 -98q-107 0 -107 98z
" />
    <glyph glyph-name="Eth" unicode="&#xd0;" horiz-adv-x="1652" 
d="M258 1434h535q330 0 523 -196t193 -521q0 -327 -193 -521q-193 -196 -523 -196h-535v655h-217v160h217v619zM1170 324q139 151 139 393t-139 393q-140 152 -377 152h-342v-447h315v-160h-315v-483h342q237 0 377 152z" />
    <glyph glyph-name="Ntilde" unicode="&#xd1;" horiz-adv-x="1624" 
d="M1440 0h-287l-770 1219h-6v-1219h-193v1434h287l770 -1219h6v1219h193v-1434zM678 1602q-82 0 -129 39.5t-47 111.5l8 76h137q-6 -19 -6 -47q0 -59 64 -60q25 -2 62.5 17.5t72 44t85.5 44t99 17.5q84 0 130 -40t46 -111l-8 -76h-137q6 18 6 47q0 59 -64 59
q-40 0 -134 -61t-185 -61z" />
    <glyph glyph-name="Ograve" unicode="&#xd2;" horiz-adv-x="1720" 
d="M338 185q-195 204 -195 532q0 327 195 532q193 205 522 205q328 0 523 -205q194 -206 194 -532q0 -327 -194 -532q-195 -205 -523 -205q-329 0 -522 205zM1239 314q137 158 137 403q0 246 -137 404q-136 157 -379 157t-379 -157q-137 -158 -137 -404q0 -245 137 -403
t379 -158t379 158zM399 1946h228l307 -328h-164z" />
    <glyph glyph-name="Oacute" unicode="&#xd3;" horiz-adv-x="1720" 
d="M338 185q-195 204 -195 532q0 327 195 532q193 205 522 205q328 0 523 -205q194 -206 194 -532q0 -327 -194 -532q-195 -205 -523 -205q-329 0 -522 205zM1239 314q137 158 137 403q0 246 -137 404q-136 157 -379 157t-379 -157q-137 -158 -137 -404q0 -245 137 -403
t379 -158t379 158zM932 1618h-164l307 328h228z" />
    <glyph glyph-name="Ocircumflex" unicode="&#xd4;" horiz-adv-x="1720" 
d="M338 185q-195 204 -195 532q0 327 195 532q193 205 522 205q328 0 523 -205q194 -206 194 -532q0 -327 -194 -532q-195 -205 -523 -205q-329 0 -522 205zM1239 314q137 158 137 403q0 246 -137 404q-136 157 -379 157t-379 -157q-137 -158 -137 -404q0 -245 137 -403
t379 -158t379 158zM1061 1618l-201 252l-201 -252h-172l269 328h209l268 -328h-172z" />
    <glyph glyph-name="Otilde" unicode="&#xd5;" horiz-adv-x="1720" 
d="M338 185q-195 204 -195 532q0 327 195 532q193 205 522 205q328 0 523 -205q194 -206 194 -532q0 -327 -194 -532q-195 -205 -523 -205q-329 0 -522 205zM1239 314q137 158 137 403q0 246 -137 404q-136 157 -379 157t-379 -157q-137 -158 -137 -404q0 -245 137 -403
t379 -158t379 158zM686 1602q-82 0 -129 39.5t-47 111.5l8 76h137q-6 -19 -6 -47q0 -59 64 -60q25 -2 62.5 17.5t72.5 44t85.5 44t98.5 17.5q84 0 130 -40t46 -111l-8 -76h-137q6 18 6 47q0 59 -63 59q-40 0 -134 -61q-95 -61 -186 -61z" />
    <glyph glyph-name="Odieresis" unicode="&#xd6;" horiz-adv-x="1720" 
d="M338 185q-195 204 -195 532q0 327 195 532q193 205 522 205q328 0 523 -205q194 -206 194 -532q0 -327 -194 -532q-195 -205 -523 -205q-329 0 -522 205zM1239 314q137 158 137 403q0 246 -137 404q-136 157 -379 157t-379 -157q-137 -158 -137 -404q0 -245 137 -403
t379 -158t379 158zM561 1747q0 43 28.5 67.5t78.5 24.5q49 0 76.5 -24.5t27.5 -67.5q0 -98 -104 -98q-107 0 -107 98zM950 1747q0 43 29 67.5t78 24.5t76.5 -24.5t27.5 -67.5q0 -98 -104 -98q-107 0 -107 98z" />
    <glyph glyph-name="multiply" unicode="&#xd7;" horiz-adv-x="937" 
d="M102 791l113 112l254 -258l254 258l113 -112l-258 -254l258 -254l-113 -113l-254 258l-254 -258l-113 113l256 254z" />
    <glyph glyph-name="Oslash" unicode="&#xd8;" horiz-adv-x="1716" 
d="M272 256l-161 -98l-91 155l175 107q-50 120 -52 297q0 331 193 534q192 203 520 203q123 0 226 -28q101 -28 168 -70q130 -85 175 -150l19 -28l162 98l90 -156l-174 -106q51 -123 51 -297q0 -327 -194 -532q-195 -205 -523 -205q-122 0 -222 29q-104 29 -167 69
q-127 82 -176 149zM344 717q0 -103 18 -168l7 -23l905 549q-9 20 -62 71q-38 36 -81 63q-42 25 -118 48q-75 21 -157 21q-240 0 -376 -157t-136 -404zM1372 717q0 98 -18 168l-6 22l-906 -549q8 -16 61 -70q38 -38 79 -62q46 -29 120.5 -49.5t153.5 -20.5q242 0 379 158
t137 403z" />
    <glyph glyph-name="Ugrave" unicode="&#xd9;" horiz-adv-x="1589" 
d="M174 1434h193v-932q0 -175 121 -260q121 -86 307 -86q184 0 306 86t122 260v932h192v-942q0 -251 -175 -381q-176 -131 -445 -131q-270 0 -446 131q-175 130 -175 381v942zM365 1946h227l307 -328h-164z" />
    <glyph glyph-name="Uacute" unicode="&#xda;" horiz-adv-x="1589" 
d="M174 1434h193v-932q0 -175 121 -260q121 -86 307 -86q184 0 306 86t122 260v932h192v-942q0 -251 -175 -381q-176 -131 -445 -131q-270 0 -446 131q-175 130 -175 381v942zM856 1618h-164l307 328h228z" />
    <glyph glyph-name="Ucircumflex" unicode="&#xdb;" horiz-adv-x="1589" 
d="M174 1434h193v-932q0 -175 121 -260q121 -86 307 -86q184 0 306 86t122 260v932h192v-942q0 -251 -175 -381q-176 -131 -445 -131q-270 0 -446 131q-175 130 -175 381v942zM995 1618l-200 252l-201 -252h-172l268 328h209l268 -328h-172z" />
    <glyph glyph-name="Udieresis" unicode="&#xdc;" horiz-adv-x="1589" 
d="M174 1434h193v-932q0 -175 121 -260q121 -86 307 -86q184 0 306 86t122 260v932h192v-942q0 -251 -175 -381q-176 -131 -445 -131q-270 0 -446 131q-175 130 -175 381v942zM496 1747q0 43 28.5 67.5t77.5 24.5t77 -24.5t28 -67.5q0 -98 -105 -98q-106 0 -106 98z
M885 1747q0 43 28.5 67.5t77.5 24.5t77 -24.5t28 -67.5q0 -98 -105 -98q-106 0 -106 98z" />
    <glyph glyph-name="Yacute" unicode="&#xdd;" horiz-adv-x="1347" 
d="M780 0h-213v528l-547 906h211l437 -725h10l438 725h211l-547 -906v-528zM762 1618h-164l307 328h228z" />
    <glyph glyph-name="Thorn" unicode="&#xde;" horiz-adv-x="1458" 
d="M762 252h-385v-252h-193v1434h193v-228h385q282 0 427.5 -121t145.5 -355t-145.5 -356t-427.5 -122zM377 1034v-610h385q181 0 277 77.5t96 228.5q0 150 -96 227t-277 77h-385z" />
    <glyph glyph-name="germandbls" unicode="&#xdf;" horiz-adv-x="1370" 
d="M389 1044v-1044h-176v844h-168v98l168 62v63q0 193 115 290q113 97 313 97q192 0 307 -95q113 -95 113 -239q0 -66 -25 -122t-61 -85q-86 -72 -86 -118q0 -25 14 -48t42 -43t55 -36t67.5 -38.5t66.5 -39.5q60 -39 97 -106.5t37 -155.5q0 -159 -100 -253
q-101 -95 -285 -95q-100 0 -179 30.5t-118 77.5q-36 44 -58 89t-24 77l-4 33h184q0 -14 20 -53q14 -28 33 -47q21 -23 60.5 -38.5t85.5 -15.5q95 0 149.5 53t54.5 142q1 30 -11 57t-26.5 45.5t-45 40t-49.5 32.5t-59 31.5t-54 28.5q-60 33 -96.5 88t-36.5 127q0 50 25 95
t61 73t61 74.5t25 99.5q0 80 -72 130q-73 50 -168 50q-121 0 -186 -57q-66 -59 -66 -199z" />
    <glyph glyph-name="agrave" unicode="&#xe0;" horiz-adv-x="1298" 
d="M113 281q0 154 131 228q130 73 334 73q104 0 192 -25q92 -26 129 -49l39 -25v158q0 102 -75 160.5t-226 58.5q-301 0 -301 -164h-176q1 166 135 247q133 81 342 81q210 0 343 -98q133 -99 134 -285v-365q0 -76 20 -105.5t66 -29.5q40 0 53 11l4 2v-158q-31 -16 -90 -16
q-100 0 -148 43q-38 32 -56 67l-5 12h-8q-25 -25 -51 -42q-31 -21 -68 -37q-98 -43 -239 -43q-213 0 -346 73q-133 72 -133 228zM618 418q-325 0 -325 -137q0 -138 325 -138q96 0 175 21q78 19 107 36q27 14 38 25v115q-11 11 -38 25q-34 16 -106 34q-77 19 -176 19z
M233 1536h228l307 -328h-164z" />
    <glyph glyph-name="aacute" unicode="&#xe1;" horiz-adv-x="1298" 
d="M113 281q0 154 131 228q130 73 334 73q104 0 192 -25q92 -26 129 -49l39 -25v158q0 102 -75 160.5t-226 58.5q-301 0 -301 -164h-176q1 166 135 247q133 81 342 81q210 0 343 -98q133 -99 134 -285v-365q0 -76 20 -105.5t66 -29.5q40 0 53 11l4 2v-158q-31 -16 -90 -16
q-100 0 -148 43q-38 32 -56 67l-5 12h-8q-25 -25 -51 -42q-31 -21 -68 -37q-98 -43 -239 -43q-213 0 -346 73q-133 72 -133 228zM618 418q-325 0 -325 -137q0 -138 325 -138q96 0 175 21q78 19 107 36q27 14 38 25v115q-11 11 -38 25q-34 16 -106 34q-77 19 -176 19z
M717 1208h-164l307 328h227z" />
    <glyph glyph-name="acircumflex" unicode="&#xe2;" horiz-adv-x="1298" 
d="M113 281q0 154 131 228q130 73 334 73q104 0 192 -25q92 -26 129 -49l39 -25v158q0 102 -75 160.5t-226 58.5q-301 0 -301 -164h-176q1 166 135 247q133 81 342 81q210 0 343 -98q133 -99 134 -285v-365q0 -76 20 -105.5t66 -29.5q40 0 53 11l4 2v-158q-31 -16 -90 -16
q-100 0 -148 43q-38 32 -56 67l-5 12h-8q-25 -25 -51 -42q-31 -21 -68 -37q-98 -43 -239 -43q-213 0 -346 73q-133 72 -133 228zM618 418q-325 0 -325 -137q0 -138 325 -138q96 0 175 21q78 19 107 36q27 14 38 25v115q-11 11 -38 25q-34 16 -106 34q-77 19 -176 19z
M850 1208l-201 252l-200 -252h-173l269 328h209l268 -328h-172z" />
    <glyph glyph-name="atilde" unicode="&#xe3;" horiz-adv-x="1298" 
d="M113 281q0 154 131 228q130 73 334 73q104 0 192 -25q92 -26 129 -49l39 -25v158q0 102 -75 160.5t-226 58.5q-301 0 -301 -164h-176q1 166 135 247q133 81 342 81q210 0 343 -98q133 -99 134 -285v-365q0 -76 20 -105.5t66 -29.5q40 0 53 11l4 2v-158q-31 -16 -90 -16
q-100 0 -148 43q-38 32 -56 67l-5 12h-8q-25 -25 -51 -42q-31 -21 -68 -37q-98 -43 -239 -43q-213 0 -346 73q-133 72 -133 228zM618 418q-325 0 -325 -137q0 -138 325 -138q96 0 175 21q78 19 107 36q27 14 38 25v115q-11 11 -38 25q-34 16 -106 34q-77 19 -176 19z
M473 1188q-82 0 -129 40t-47 111l8 76h137q-6 -19 -6 -47q0 -59 64 -59q25 -2 62.5 17.5t72.5 43.5t85.5 44t98.5 18q84 0 130 -40t46 -112l-8 -76h-137q6 18 6 47q0 59 -63 60q-40 0 -134 -61q-97 -62 -186 -62z" />
    <glyph glyph-name="adieresis" unicode="&#xe4;" horiz-adv-x="1298" 
d="M113 281q0 154 131 228q130 73 334 73q104 0 192 -25q92 -26 129 -49l39 -25v158q0 102 -75 160.5t-226 58.5q-301 0 -301 -164h-176q1 166 135 247q133 81 342 81q210 0 343 -98q133 -99 134 -285v-365q0 -76 20 -105.5t66 -29.5q40 0 53 11l4 2v-158q-31 -16 -90 -16
q-100 0 -148 43q-38 32 -56 67l-5 12h-8q-25 -25 -51 -42q-31 -21 -68 -37q-98 -43 -239 -43q-213 0 -346 73q-133 72 -133 228zM618 418q-325 0 -325 -137q0 -138 325 -138q96 0 175 21q78 19 107 36q27 14 38 25v115q-11 11 -38 25q-34 16 -106 34q-77 19 -176 19z
M371 1327q0 43 28.5 67.5t77.5 24.5t77 -24.5t28 -67.5q0 -98 -105 -98q-106 0 -106 98zM760 1327q0 43 28.5 67.5t77.5 24.5t77 -24.5t28 -67.5q0 -98 -105 -98q-106 0 -106 98z" />
    <glyph glyph-name="aring" unicode="&#xe5;" horiz-adv-x="1298" 
d="M113 281q0 154 131 228q130 73 334 73q104 0 192 -25q92 -26 129 -49l39 -25v158q0 102 -75 160.5t-226 58.5q-301 0 -301 -164h-176q1 166 135 247q133 81 342 81q210 0 343 -98q133 -99 134 -285v-365q0 -76 20 -105.5t66 -29.5q40 0 53 11l4 2v-158q-31 -16 -90 -16
q-100 0 -148 43q-38 32 -56 67l-5 12h-8q-25 -25 -51 -42q-31 -21 -68 -37q-98 -43 -239 -43q-213 0 -346 73q-133 72 -133 228zM618 418q-325 0 -325 -137q0 -138 325 -138q96 0 175 21q78 19 107 36q27 14 38 25v115q-11 11 -38 25q-34 16 -106 34q-77 19 -176 19z
M805 1220q-56 -53 -153 -53q-98 0 -154 53t-56 136t56 136q55 52 154 52q98 0 153 -52t55 -136t-55 -136zM725 1356q0 74 -73 74q-74 0 -74 -74t74 -74q73 0 73 74z" />
    <glyph glyph-name="ae" unicode="&#xe6;" horiz-adv-x="2088" 
d="M1976 510l-4 -72h-835q0 -140 93 -223q92 -82 259 -82q130 0 200 49q60 43 68 74l6 14h191q-1 -11 -9 -31t-38 -70q-33 -52 -75 -88q-43 -37 -130 -69q-83 -32 -195 -32q-95 0 -178.5 22t-133.5 56q-46 31 -81.5 65t-48.5 57l-14 23h-9q-3 -5 -12 -23q-7 -14 -44 -55
q-34 -37 -83 -67q-48 -29 -135 -53q-87 -25 -195 -25q-222 0 -341 75.5t-119 214.5q0 151 118 226t338 75h387q0 135 -88 217t-237 82q-72 0 -129.5 -16.5t-87.5 -42.5q-28 -25 -45 -48q-10 -15 -16.5 -29.5t-7 -20.5t0.5 -8h-180q0 85 96 191q51 57 149 92.5t220 35.5
q81 0 155 -22t121 -56q93 -68 121 -123l14 -22h9q12 26 60 78q36 39 80 68q40 26 119 53q74 24 160 24q238 0 372 -137t134 -377zM596 133q360 0 360 305h-387q-121 0 -198 -36q-78 -38 -78 -117q0 -152 303 -152zM1464 870q-135 0 -231 -78q-96 -80 -96 -221h659
q0 131 -91 215q-92 84 -241 84z" />
    <glyph glyph-name="ccedilla" unicode="&#xe7;" horiz-adv-x="1298" 
d="M485 -240h113q0 -59 86 -59t86 57q0 58 -86 58h-111v104l54 64q-228 11 -370 151q-144 141 -144 369q0 236 156 378q154 142 395 142q137 0 245 -46q111 -47 168 -113q119 -137 119 -251h-182q-10 43 -34 85q-25 43 -58 75q-38 36 -106.5 61t-151.5 25q-169 0 -269 -100
q-102 -100 -102 -256t102 -257q101 -102 269 -102q84 0 152.5 25t105.5 63q69 71 86 132l6 26h182q0 -102 -103 -231q-50 -64 -144 -112q-93 -48 -208 -60l-57 -70q199 0 199 -160q0 -75 -52 -115t-147 -40q-199 -1 -199 157z" />
    <glyph glyph-name="egrave" unicode="&#xe8;" horiz-adv-x="1327" 
d="M1214 502l-6 -84h-907q0 -86 102 -180q101 -95 271 -95q125 0 205 47q66 40 92 72l8 14h207q-6 -15 -13 -31q-13 -23 -49 -71q-39 -51 -91 -91q-50 -39 -147 -71q-92 -32 -212 -32q-249 0 -404 142q-157 142 -157 380q0 236 156 379q155 143 395 143q238 0 395 -143
q155 -143 155 -379zM930 765q-100 95 -266 95q-168 0 -266 -95q-99 -95 -99 -187h729q0 92 -98 187zM229 1534h228l307 -328h-164z" />
    <glyph glyph-name="eacute" unicode="&#xe9;" horiz-adv-x="1327" 
d="M1214 502l-6 -84h-907q0 -86 102 -180q101 -95 271 -95q125 0 205 47q66 40 92 72l8 14h207q-6 -15 -13 -31q-13 -23 -49 -71q-39 -51 -91 -91q-50 -39 -147 -71q-92 -32 -212 -32q-249 0 -404 142q-157 142 -157 380q0 236 156 379q155 143 395 143q238 0 395 -143
q155 -143 155 -379zM930 765q-100 95 -266 95q-168 0 -266 -95q-99 -95 -99 -187h729q0 92 -98 187zM727 1208h-164l307 328h228z" />
    <glyph glyph-name="ecircumflex" unicode="&#xea;" horiz-adv-x="1327" 
d="M1214 502l-6 -84h-907q0 -86 102 -180q101 -95 271 -95q125 0 205 47q66 40 92 72l8 14h207q-6 -15 -13 -31q-13 -23 -49 -71q-39 -51 -91 -91q-50 -39 -147 -71q-92 -32 -212 -32q-249 0 -404 142q-157 142 -157 380q0 236 156 379q155 143 395 143q238 0 395 -143
q155 -143 155 -379zM930 765q-100 95 -266 95q-168 0 -266 -95q-99 -95 -99 -187h729q0 92 -98 187zM854 1208l-201 252l-200 -252h-172l268 328h209l268 -328h-172z" />
    <glyph glyph-name="edieresis" unicode="&#xeb;" horiz-adv-x="1327" 
d="M1214 502l-6 -84h-907q0 -86 102 -180q101 -95 271 -95q125 0 205 47q66 40 92 72l8 14h207q-6 -15 -13 -31q-13 -23 -49 -71q-39 -51 -91 -91q-50 -39 -147 -71q-92 -32 -212 -32q-249 0 -404 142q-157 142 -157 380q0 236 156 379q155 143 395 143q238 0 395 -143
q155 -143 155 -379zM930 765q-100 95 -266 95q-168 0 -266 -95q-99 -95 -99 -187h729q0 92 -98 187zM360 1327q0 43 29 67.5t78 24.5t76.5 -24.5t27.5 -67.5q0 -98 -104 -98q-107 0 -107 98zM750 1327q0 43 28.5 67.5t77.5 24.5t77 -24.5t28 -67.5q0 -98 -105 -98
q-106 0 -106 98z" />
    <glyph glyph-name="igrave" unicode="&#xec;" horiz-adv-x="483" 
d="M-217 1536h227l307 -328h-163zM154 1004h176v-1004h-176v1004z" />
    <glyph glyph-name="iacute" unicode="&#xed;" horiz-adv-x="483" 
d="M330 1208h-164l307 328h227zM154 1004h176v-1004h-176v1004z" />
    <glyph glyph-name="icircumflex" unicode="&#xee;" horiz-adv-x="483" 
d="M154 1004h176v-1004h-176v1004zM442 1208l-200 252l-201 -252h-172l268 328h209l268 -328h-172z" />
    <glyph glyph-name="idieresis" unicode="&#xef;" horiz-adv-x="483" 
d="M-57 1327q0 43 28.5 67.5t77.5 24.5t77 -24.5t28 -67.5q0 -98 -105 -98q-106 0 -106 98zM332 1327q0 43 28.5 67.5t77.5 24.5t77 -24.5t28 -67.5q0 -98 -105 -98q-106 0 -106 98zM154 1004h176v-1004h-176v1004z" />
    <glyph glyph-name="eth" unicode="&#xf0;" horiz-adv-x="1316" 
d="M584 1106l-133 47l51 154l-172 45l41 135q79 -11 180 -43l51 143l137 -45l-51 -145q28 -9 55 -18q41 -16 124 -68q90 -56 158 -129q68 -72 124 -209q55 -134 55 -299v-72q0 -282 -152 -452q-153 -170 -403 -170q-243 0 -389 133q-147 133 -147 344q0 212 139 342
q140 131 369 131q89 0 165 -19.5t120 -50.5q92 -64 112 -106l10 -21h8q0 114 -41 210q-40 94 -100 152q-121 115 -217 148l-41 14zM392 680q-99 -86 -99 -223q0 -138 100 -226q98 -88 260 -88q146 0 247 92q99 91 99 222q0 129 -99 219t-247 90q-161 0 -261 -86z" />
    <glyph glyph-name="ntilde" unicode="&#xf1;" horiz-adv-x="1304" 
d="M1161 0h-176v518q0 176 -89 259t-239 83q-158 0 -242 -94q-85 -94 -85 -248v-518h-176v1004h176v-154h10q21 34 49 61q33 30 69 53q41 25 109 42.5t142 17.5q194 0 324 -116q128 -117 128 -349v-559zM487 1188q-82 0 -129 40t-47 111l8 76h138q-6 -19 -6 -47
q0 -59 63 -59q25 -2 62.5 17.5t72.5 43.5t86 44t99 18q84 0 130 -40t46 -112l-9 -76h-137q6 18 6 47q0 59 -63 60q-40 0 -134 -61q-97 -62 -186 -62z" />
    <glyph glyph-name="ograve" unicode="&#xf2;" horiz-adv-x="1327" 
d="M269 123q-156 143 -156 379q0 235 156 379q155 143 395 143q238 0 395 -143q155 -144 155 -379q0 -236 -155 -379q-157 -143 -395 -143q-240 0 -395 143zM933 244q101 101 101 258t-101 258q-101 100 -269 100q-169 0 -269 -100q-102 -100 -102 -258t102 -258
q101 -101 269 -101q166 0 269 101zM221 1536h228l307 -328h-164z" />
    <glyph glyph-name="oacute" unicode="&#xf3;" horiz-adv-x="1327" 
d="M269 123q-156 143 -156 379q0 235 156 379q155 143 395 143q238 0 395 -143q155 -144 155 -379q0 -236 -155 -379q-157 -143 -395 -143q-240 0 -395 143zM933 244q101 101 101 258t-101 258q-101 100 -269 100q-169 0 -269 -100q-102 -100 -102 -258t102 -258
q101 -101 269 -101q166 0 269 101zM727 1208h-164l307 328h228z" />
    <glyph glyph-name="ocircumflex" unicode="&#xf4;" horiz-adv-x="1327" 
d="M269 123q-156 143 -156 379q0 235 156 379q155 143 395 143q238 0 395 -143q155 -144 155 -379q0 -236 -155 -379q-157 -143 -395 -143q-240 0 -395 143zM933 244q101 101 101 258t-101 258q-101 100 -269 100q-169 0 -269 -100q-102 -100 -102 -258t102 -258
q101 -101 269 -101q166 0 269 101zM864 1208l-200 252l-201 -252h-172l268 328h209l268 -328h-172z" />
    <glyph glyph-name="otilde" unicode="&#xf5;" horiz-adv-x="1327" 
d="M269 123q-156 143 -156 379q0 235 156 379q155 143 395 143q238 0 395 -143q155 -144 155 -379q0 -236 -155 -379q-157 -143 -395 -143q-240 0 -395 143zM933 244q101 101 101 258t-101 258q-101 100 -269 100q-169 0 -269 -100q-102 -100 -102 -258t102 -258
q101 -101 269 -101q166 0 269 101zM498 1188q-82 0 -129 40t-47 111l8 76h137q-6 -19 -6 -47q0 -59 63 -59q25 -2 62.5 17.5t72.5 43.5t86 44t99 18q84 0 130 -40t46 -112l-8 -76h-138q5 16 7 47q0 59 -64 60q-40 0 -134 -61q-95 -62 -185 -62z" />
    <glyph glyph-name="odieresis" unicode="&#xf6;" horiz-adv-x="1327" 
d="M269 123q-156 143 -156 379q0 235 156 379q155 143 395 143q238 0 395 -143q155 -144 155 -379q0 -236 -155 -379q-157 -143 -395 -143q-240 0 -395 143zM933 244q101 101 101 258t-101 258q-101 100 -269 100q-169 0 -269 -100q-102 -100 -102 -258t102 -258
q101 -101 269 -101q166 0 269 101zM360 1327q0 43 29 67.5t78 24.5t76.5 -24.5t27.5 -67.5q0 -98 -104 -98q-107 0 -107 98zM750 1327q0 43 28.5 67.5t77.5 24.5t77 -24.5t28 -67.5q0 -98 -105 -98q-106 0 -106 98z" />
    <glyph glyph-name="divide" unicode="&#xf7;" horiz-adv-x="999" 
d="M102 578h795v-136h-795v136zM417 106q-30 27 -30 79q0 51 30 79q29 27 83 27q53 0 83 -27q29 -29 29 -79q0 -52 -29 -79q-29 -28 -83 -28q-55 0 -83 28zM417 757q-30 27 -30 79q0 50 30 79q28 27 83 27q53 0 83 -27q29 -29 29 -79q0 -52 -29 -79q-29 -28 -83 -28
q-55 0 -83 28z" />
    <glyph glyph-name="oslash" unicode="&#xf8;" horiz-adv-x="1318" 
d="M236 150l-130 -82l-75 116l129 82q-51 90 -51 236q0 236 156 379q155 143 394 143q129 0 234 -43q107 -43 147 -84l43 -43l129 82l76 -117l-129 -82q51 -94 51 -235q0 -236 -155 -379q-157 -143 -396 -143q-166 0 -274 60q-99 55 -135 91zM289 502q0 -74 18 -121l6 -16
l619 393q-15 17 -28 29q-20 17 -90 45q-69 28 -155 28q-169 0 -269 -100q-101 -101 -101 -258zM1030 502q0 69 -18 121l-6 16l-619 -393q12 -13 29 -28q20 -18 89 -46q72 -29 154 -29q167 0 270 101q101 101 101 258z" />
    <glyph glyph-name="ugrave" unicode="&#xf9;" 
d="M154 1004h176v-519q0 -176 89 -259t238 -83q157 0 243 95q85 94 85 247v519h176v-1004h-176v154h-10q-20 -32 -49 -61q-33 -31 -69 -53q-41 -26 -109 -43t-142 -17q-196 0 -323 117q-129 115 -129 347v560zM223 1536h228l307 -328h-164z" />
    <glyph glyph-name="uacute" unicode="&#xfa;" 
d="M154 1004h176v-519q0 -176 89 -259t238 -83q157 0 243 95q85 94 85 247v519h176v-1004h-176v154h-10q-20 -32 -49 -61q-33 -31 -69 -53q-41 -26 -109 -43t-142 -17q-196 0 -323 117q-129 115 -129 347v560zM725 1208h-164l307 328h228z" />
    <glyph glyph-name="ucircumflex" unicode="&#xfb;" 
d="M154 1004h176v-519q0 -176 89 -259t238 -83q157 0 243 95q85 94 85 247v519h176v-1004h-176v154h-10q-20 -32 -49 -61q-33 -31 -69 -53q-41 -26 -109 -43t-142 -17q-196 0 -323 117q-129 115 -129 347v560zM858 1208l-201 252l-200 -252h-172l268 328h209l268 -328h-172z
" />
    <glyph glyph-name="udieresis" unicode="&#xfc;" 
d="M154 1004h176v-519q0 -176 89 -259t238 -83q157 0 243 95q85 94 85 247v519h176v-1004h-176v154h-10q-20 -32 -49 -61q-33 -31 -69 -53q-41 -26 -109 -43t-142 -17q-196 0 -323 117q-129 115 -129 347v560zM360 1327q0 43 29 67.5t78 24.5t76.5 -24.5t27.5 -67.5
q0 -98 -104 -98q-107 0 -107 98zM750 1327q0 43 28.5 67.5t77.5 24.5t77 -24.5t28 -67.5q0 -98 -105 -98q-106 0 -106 98z" />
    <glyph glyph-name="yacute" unicode="&#xfd;" horiz-adv-x="1161" 
d="M20 1004h189l389 -807h6l346 807h191l-463 -1061q-88 -205 -162 -289t-221 -84q-81 0 -123 16l-16 4v154q52 -20 123 -20q81 0 124 51q42 49 89 168l14 37zM655 1208h-163l307 328h227z" />
    <glyph glyph-name="thorn" unicode="&#xfe;" horiz-adv-x="1368" 
d="M330 -410h-176v1844h176v-580h8q18 28 57 60q35 28 75 51q43 24 112.5 41.5t140.5 17.5q227 0 380 -144q152 -146 152 -378q0 -234 -152 -378q-153 -144 -380 -144q-156 0 -254 60q-86 53 -117 91l-14 19h-8v-560zM974 245q101 101 101 257q0 154 -101 257
q-103 101 -272 101q-170 0 -271 -101q-101 -103 -101 -257q0 -160 104 -259q103 -100 268 -100q170 0 272 102z" />
    <glyph glyph-name="ydieresis" unicode="&#xff;" horiz-adv-x="1161" 
d="M20 1004h189l389 -807h6l346 807h191l-463 -1061q-88 -205 -162 -289t-221 -84q-81 0 -123 16l-16 4v154q52 -20 123 -20q81 0 124 51q42 49 89 168l14 37zM281 1327q0 43 28.5 67.5t77.5 24.5t77 -24.5t28 -67.5q0 -98 -105 -98q-106 0 -106 98zM670 1327
q0 43 28.5 67.5t77.5 24.5t77 -24.5t28 -67.5q0 -98 -105 -98q-106 0 -106 98z" />
    <glyph glyph-name="Amacron" unicode="&#x100;" horiz-adv-x="1488" 
d="M616 1434h256l586 -1434h-203l-129 315h-764l-129 -315h-202zM432 487h623l-305 773h-11zM1032 1675h-575v133h575v-133z" />
    <glyph glyph-name="amacron" unicode="&#x101;" horiz-adv-x="1298" 
d="M113 281q0 154 131 228q130 73 334 73q104 0 192 -25q92 -26 129 -49l39 -25v158q0 102 -75 160.5t-226 58.5q-301 0 -301 -164h-176q1 166 135 247q133 81 342 81q210 0 343 -98q133 -99 134 -285v-365q0 -76 20 -105.5t66 -29.5q40 0 53 11l4 2v-158q-31 -16 -90 -16
q-100 0 -148 43q-38 32 -56 67l-5 12h-8q-25 -25 -51 -42q-31 -21 -68 -37q-98 -43 -239 -43q-213 0 -346 73q-133 72 -133 228zM618 418q-325 0 -325 -137q0 -138 325 -138q96 0 175 21q78 19 107 36q27 14 38 25v115q-11 11 -38 25q-34 16 -106 34q-77 19 -176 19z
M934 1260h-576v133h576v-133z" />
    <glyph glyph-name="Abreve" unicode="&#x102;" horiz-adv-x="1488" 
d="M616 1434h256l586 -1434h-203l-129 315h-764l-129 -315h-202zM432 487h623l-305 773h-11zM953 1689q-73 -61 -209 -61t-209 61q-74 60 -74 164h141q0 -109 142 -108q141 0 141 108h141q0 -104 -73 -164z" />
    <glyph glyph-name="abreve" unicode="&#x103;" horiz-adv-x="1298" 
d="M113 281q0 154 131 228q130 73 334 73q104 0 192 -25q92 -26 129 -49l39 -25v158q0 102 -75 160.5t-226 58.5q-301 0 -301 -164h-176q1 166 135 247q133 81 342 81q210 0 343 -98q133 -99 134 -285v-365q0 -76 20 -105.5t66 -29.5q40 0 53 11l4 2v-158q-31 -16 -90 -16
q-100 0 -148 43q-38 32 -56 67l-5 12h-8q-25 -25 -51 -42q-31 -21 -68 -37q-98 -43 -239 -43q-213 0 -346 73q-133 72 -133 228zM618 418q-325 0 -325 -137q0 -138 325 -138q96 0 175 21q78 19 107 36q27 14 38 25v115q-11 11 -38 25q-34 16 -106 34q-77 19 -176 19z
M842 1275q-73 -61 -209 -61t-209 61q-74 60 -74 165h142q0 -109 141 -109t141 109h141q0 -104 -73 -165z" />
    <glyph glyph-name="Aogonek" unicode="&#x104;" horiz-adv-x="1488" 
d="M1450 -182h119q0 -160 -203 -160t-203 160q0 50 34 94q36 47 59 62q26 20 40 26h-41l-129 315h-764l-129 -315h-202l585 1434h256l586 -1434q-2 -1 -9.5 -4.5t-20.5 -11t-31 -18.5q-30 -19 -53 -40q-62 -56 -62 -108q0 -63 84 -63t84 63zM432 487h623l-305 773h-11z" />
    <glyph glyph-name="aogonek" unicode="&#x105;" horiz-adv-x="1298" 
d="M1249 -182h119q0 -160 -202 -160q-203 0 -203 160q0 48 30 91q29 44 60 62l28 21q-42 11 -73.5 37.5t-40.5 52.5l-9 20h-8q-25 -25 -51 -42q-31 -21 -68 -37q-98 -43 -239 -43q-213 0 -346 73q-133 72 -133 228q0 154 131 228q130 73 334 73q104 0 192 -25
q92 -26 129 -49l39 -25v158q0 102 -75 160.5t-226 58.5q-301 0 -301 -164h-176q1 166 135 247q133 81 342 81q210 0 343 -98q133 -99 134 -285v-365q0 -76 20 -105.5t66 -29.5q40 0 53 11l4 2v-158q-61 -25 -126 -85q-50 -47 -50 -93q0 -63 84 -63t84 63zM618 418
q-325 0 -325 -137q0 -138 325 -138q96 0 175 21q78 19 107 36q27 14 38 25v115q-11 11 -38 25q-34 16 -106 34q-77 19 -176 19z" />
    <glyph glyph-name="Cacute" unicode="&#x106;" horiz-adv-x="1687" 
d="M860 156q124 0 221 42q96 41 146 102q100 123 121 220l8 43h198q0 -174 -157 -364q-79 -96 -218 -157q-142 -62 -319 -62q-329 0 -522 205q-195 204 -195 532q0 327 195 532q193 205 522 205q177 0 319 -62q141 -64 218 -157q157 -189 157 -365h-198q-1 2 -2 11.5
t-5.5 26.5t-12.5 42q-31 89 -95 166q-80 98 -214 139q-78 23 -167 23q-243 0 -379 -157q-137 -158 -137 -404q0 -245 137 -403t379 -158zM930 1618h-164l307 328h227z" />
    <glyph glyph-name="cacute" unicode="&#x107;" horiz-adv-x="1298" 
d="M269 125q-156 143 -156 379t156 378q154 142 395 142q137 0 245 -46q111 -47 168 -113q119 -137 119 -251h-182q-10 43 -34 85q-25 43 -58 75q-38 36 -106.5 61t-151.5 25q-169 0 -269 -100q-102 -100 -102 -256t102 -257q101 -102 269 -102q84 0 152.5 25t105.5 63
q69 71 86 132l6 26h182q0 -112 -119 -249q-59 -68 -168 -114q-108 -46 -245 -46q-240 0 -395 143zM723 1208h-164l307 328h228z" />
    <glyph glyph-name="Ccircumflex" unicode="&#x108;" horiz-adv-x="1687" 
d="M860 156q124 0 221 42q96 41 146 102q100 123 121 220l8 43h198q0 -174 -157 -364q-79 -96 -218 -157q-142 -62 -319 -62q-329 0 -522 205q-195 204 -195 532q0 327 195 532q193 205 522 205q177 0 319 -62q141 -64 218 -157q157 -189 157 -365h-198q-1 2 -2 11.5
t-5.5 26.5t-12.5 42q-31 89 -95 166q-80 98 -214 139q-78 23 -167 23q-243 0 -379 -157q-137 -158 -137 -404q0 -245 137 -403t379 -158zM1044 1618l-200 252l-201 -252h-172l268 328h209l269 -328h-173z" />
    <glyph glyph-name="ccircumflex" unicode="&#x109;" horiz-adv-x="1298" 
d="M269 125q-156 143 -156 379t156 378q154 142 395 142q137 0 245 -46q111 -47 168 -113q119 -137 119 -251h-182q-10 43 -34 85q-25 43 -58 75q-38 36 -106.5 61t-151.5 25q-169 0 -269 -100q-102 -100 -102 -256t102 -257q101 -102 269 -102q84 0 152.5 25t105.5 63
q69 71 86 132l6 26h182q0 -112 -119 -249q-59 -68 -168 -114q-108 -46 -245 -46q-240 0 -395 143zM864 1208l-200 252l-201 -252h-172l268 328h209l268 -328h-172z" />
    <glyph glyph-name="Ccaron" unicode="&#x10c;" horiz-adv-x="1687" 
d="M860 156q124 0 221 42q96 41 146 102q100 123 121 220l8 43h198q0 -174 -157 -364q-79 -96 -218 -157q-142 -62 -319 -62q-329 0 -522 205q-195 204 -195 532q0 327 195 532q193 205 522 205q177 0 319 -62q141 -64 218 -157q157 -189 157 -365h-198q-1 2 -2 11.5
t-5.5 26.5t-12.5 42q-31 89 -95 166q-80 98 -214 139q-78 23 -167 23q-243 0 -379 -157q-137 -158 -137 -404q0 -245 137 -403t379 -158zM471 1946h172l201 -252l200 252h173l-269 -328h-209z" />
    <glyph glyph-name="ccaron" unicode="&#x10d;" horiz-adv-x="1298" 
d="M269 125q-156 143 -156 379t156 378q154 142 395 142q137 0 245 -46q111 -47 168 -113q119 -137 119 -251h-182q-10 43 -34 85q-25 43 -58 75q-38 36 -106.5 61t-151.5 25q-169 0 -269 -100q-102 -100 -102 -256t102 -257q101 -102 269 -102q84 0 152.5 25t105.5 63
q69 71 86 132l6 26h182q0 -112 -119 -249q-59 -68 -168 -114q-108 -46 -245 -46q-240 0 -395 143zM287 1536h172l200 -252l201 252h172l-268 -328h-209z" />
    <glyph glyph-name="Dcaron" unicode="&#x10e;" horiz-adv-x="1579" 
d="M184 1434h535q331 0 524 -196t193 -521q0 -327 -193 -521q-193 -196 -524 -196h-535v1434zM1096 324q139 151 139 393t-139 393q-140 152 -377 152h-342v-1090h342q237 0 377 152zM319 1946h173l200 -252l201 252h172l-268 -328h-209z" />
    <glyph glyph-name="dcaron" unicode="&#x10f;" horiz-adv-x="1495" 
d="M1038 1434h176v-1434h-176v150h-8q-16 -26 -57 -60q-35 -28 -75 -51q-43 -24 -112.5 -41.5t-140.5 -17.5q-227 0 -379 144q-153 144 -153 378q0 232 153 378q152 144 379 144q122 0 217 -43t133 -84l35 -43h8v580zM395 759q-102 -102 -102 -257q0 -156 102 -257
q101 -102 271 -102t271 102q101 101 101 257q0 160 -103 259t-269 99q-170 0 -271 -101zM1436 1092v143q0 47 -44 57q-18 5 -31 23q-13 17 -13 55q0 37 29 61q29 23 71 23q110 0 108 -141q-5 -91 -45 -155q-42 -66 -75 -66z" />
    <glyph glyph-name="Dcroat" unicode="&#x110;" horiz-adv-x="1652" 
d="M258 1434h535q330 0 523 -196t193 -521q0 -327 -193 -521q-193 -196 -523 -196h-535v655h-217v160h217v619zM1170 324q139 151 139 393t-139 393q-140 152 -377 152h-342v-447h315v-160h-315v-483h342q237 0 377 152z" />
    <glyph glyph-name="dslash" unicode="&#x111;" horiz-adv-x="1409" 
d="M256 111q-143 131 -143 340q0 208 142 340q143 131 368 131q115 0 207 -36q91 -36 126 -71l35 -37h6v328h-383v160h383v168h177v-168h256v-160h-256v-1106h-177v123h-6q-10 -17 -55 -49q-29 -23 -72 -44q-100 -50 -241 -50q-224 0 -367 131zM384 670q-91 -88 -91 -219
q0 -132 91 -220t259 -88q169 0 261 88q93 89 93 220t-93 219q-92 88 -261 88q-168 0 -259 -88z" />
    <glyph glyph-name="Emacron" unicode="&#x112;" horiz-adv-x="1384" 
d="M1262 0h-1078v1434h1078v-172h-885v-439h762v-172h-762v-479h885v-172zM1026 1675h-575v133h575v-133z" />
    <glyph glyph-name="emacron" unicode="&#x113;" horiz-adv-x="1327" 
d="M1214 502l-6 -84h-907q0 -86 102 -180q101 -95 271 -95q125 0 205 47q66 40 92 72l8 14h207q-6 -15 -13 -31q-13 -23 -49 -71q-39 -51 -91 -91q-50 -39 -147 -71q-92 -32 -212 -32q-249 0 -404 142q-157 142 -157 380q0 236 156 379q155 143 395 143q238 0 395 -143
q155 -143 155 -379zM930 765q-100 95 -266 95q-168 0 -266 -95q-99 -95 -99 -187h729q0 92 -98 187zM952 1260h-575v133h575v-133z" />
    <glyph glyph-name="Edotaccent" unicode="&#x116;" horiz-adv-x="1384" 
d="M1262 0h-1078v1434h1078v-172h-885v-439h762v-172h-762v-479h885v-172zM818 1818q30 -28 30 -71t-30 -70q-29 -28 -79 -28t-78 28q-30 27 -30 70t30 71q29 27 78 27t79 -27z" />
    <glyph glyph-name="edotaccent" unicode="&#x117;" horiz-adv-x="1327" 
d="M1214 502l-6 -84h-907q0 -86 102 -180q101 -95 271 -95q125 0 205 47q66 40 92 72l8 14h207q-6 -15 -13 -31q-13 -23 -49 -71q-39 -51 -91 -91q-50 -39 -147 -71q-92 -32 -212 -32q-249 0 -404 142q-157 142 -157 380q0 236 156 379q155 143 395 143q238 0 395 -143
q155 -143 155 -379zM930 765q-100 95 -266 95q-168 0 -266 -95q-99 -95 -99 -187h729q0 92 -98 187zM735 1398q29 -29 29 -71q0 -43 -29 -70q-29 -28 -79 -28q-51 0 -79 28q-30 27 -30 70t30 71q29 27 79 27q49 0 79 -27z" />
    <glyph glyph-name="Eogonek" unicode="&#x118;" horiz-adv-x="1384" 
d="M1100 0h-916v1434h1078v-172h-885v-439h762v-172h-762v-479h885v-172q-2 -1 -9.5 -4.5t-21 -11t-31.5 -18.5q-30 -19 -53 -40q-62 -56 -62 -108q0 -62 84 -64q84 0 84 64h119q0 -160 -202 -160q-203 0 -203 160q0 50 34 94q34 47 58 62q25 19 41 26z" />
    <glyph glyph-name="eogonek" unicode="&#x119;" horiz-adv-x="1327" 
d="M774 -182h119q0 -160 -203 -160t-203 160q0 92 107 166q-214 22 -348 162q-133 139 -133 356q0 236 156 379q155 143 395 143q238 0 395 -143q155 -144 155 -379l-6 -84h-907q0 -86 102 -180q101 -95 271 -95q125 0 205 47q66 40 92 72l8 14h207q-1 -2 -4.5 -11.5
t-6.5 -15.5q-7 -18 -41 -65q-35 -48 -79 -84q-45 -38 -126 -72q-82 -37 -179 -44q-143 -78 -144 -166q0 -63 84 -63t84 63zM930 765q-100 95 -266 95q-168 0 -266 -95q-99 -95 -99 -187h729q0 92 -98 187z" />
    <glyph glyph-name="Ecaron" unicode="&#x11a;" horiz-adv-x="1384" 
d="M1262 0h-1078v1434h1078v-172h-885v-439h762v-172h-762v-479h885v-172zM352 1946h172l201 -252l201 252h172l-269 -328h-208z" />
    <glyph glyph-name="ecaron" unicode="&#x11b;" horiz-adv-x="1327" 
d="M1214 502l-6 -84h-907q0 -86 102 -180q101 -95 271 -95q125 0 205 47q66 40 92 72l8 14h207q-6 -15 -13 -31q-13 -23 -49 -71q-39 -51 -91 -91q-50 -39 -147 -71q-92 -32 -212 -32q-249 0 -404 142q-157 142 -157 380q0 236 156 379q155 143 395 143q238 0 395 -143
q155 -143 155 -379zM930 765q-100 95 -266 95q-168 0 -266 -95q-99 -95 -99 -187h729q0 92 -98 187zM285 1536h172l200 -252l201 252h172l-268 -328h-209z" />
    <glyph glyph-name="Gbreve" unicode="&#x11e;" horiz-adv-x="1728" 
d="M1554 0h-182v293h-8q-8 -21 -13 -33q-11 -23 -49 -76q-42 -57 -92 -96q-53 -41 -149 -74q-95 -34 -213 -34q-324 0 -514 205q-191 205 -191 532t195 532q193 205 522 205q166 0 304 -56q136 -57 215 -145q155 -173 173 -352h-202q-19 86 -77 172q-37 56 -88 101
q-53 46 -138.5 75t-186.5 29q-243 0 -379 -157q-137 -158 -137 -404q0 -245 134 -403t370 -158q109 0 205 44q93 43 149 108q55 63 87 130.5t32 120.5h-471v172h704v-731zM1055 1689q-73 -61 -209 -61t-209 61q-74 60 -74 164h142q0 -109 141 -108q141 0 141 108h141
q0 -104 -73 -164z" />
    <glyph glyph-name="gbreve" unicode="&#x11f;" horiz-adv-x="1177" 
d="M106 688q-2 159 125 247q128 89 326 89h580v-154h-191v-6q61 -49 62 -176q0 -159 -127 -247q-128 -89 -324 -89q-102 0 -172 -11q-88 -14 -88 -71q0 -46 63.5 -64t196.5 -18q232 0 374 -79t142 -230q0 -150 -142 -229q-143 -80 -374 -80q-230 0 -373 80t-143 229
q0 51 19 98t49 75q62 57 104 71l20 8v6q-1 0 -5 1.5t-5 2t-5.5 2t-6.5 2.5t-6.5 3.5t-7.5 5t-7.5 6.5t-9 8.5t-9.5 10t-11 12.5q-29 35 -29 79q0 52 33 90q31 36 65 50l31 10v6q-17 7 -52 36q-29 24 -46 49q-22 29 -38 77t-18 100zM804 -228q89 38 89 107q0 70 -89 108
q-90 38 -247 38t-247 -38q-89 -38 -89 -108q0 -69 89 -107q90 -38 247 -38t247 38zM755 556q72 50 72 132t-72 132q-74 50 -198 50t-197 -50q-73 -49 -73 -132t73 -132q73 -50 197 -50t198 50zM746 1275q-73 -61 -209 -61t-209 61q-74 60 -74 165h141q0 -109 142 -109
q141 0 141 109h141q0 -104 -73 -165z" />
    <glyph glyph-name="uni0122" unicode="&#x122;" horiz-adv-x="1728" 
d="M1554 0h-182v293h-8q-8 -21 -13 -33q-11 -23 -49 -76q-42 -57 -92 -96q-53 -41 -149 -74q-95 -34 -213 -34q-324 0 -514 205q-191 205 -191 532t195 532q193 205 522 205q166 0 304 -56q136 -57 215 -145q155 -173 173 -352h-202q-19 86 -77 172q-37 56 -88 101
q-53 46 -138.5 75t-186.5 29q-243 0 -379 -157q-137 -158 -137 -404q0 -245 134 -403t370 -158q109 0 205 44q93 43 149 108q55 63 87 130.5t32 120.5h-471v172h704v-731zM844 -567v143q0 26 -13 38t-33 20.5t-29 21.5q-13 17 -13 55q0 37 29 60q29 24 71 24q109 0 109 -141
q-5 -91 -46 -156q-42 -65 -75 -65z" />
    <glyph glyph-name="uni0123" unicode="&#x123;" horiz-adv-x="1177" 
d="M106 688q-2 159 125 247q128 89 326 89h580v-154h-191v-6q61 -49 62 -176q0 -159 -127 -247q-128 -89 -324 -89q-102 0 -172 -11q-88 -14 -88 -71q0 -46 63.5 -64t196.5 -18q232 0 374 -79t142 -230q0 -150 -142 -229q-143 -80 -374 -80q-230 0 -373 80t-143 229
q0 51 19 98t49 75q62 57 104 71l20 8v6q-1 0 -5 1.5t-5 2t-5.5 2t-6.5 2.5t-6.5 3.5t-7.5 5t-7.5 6.5t-9 8.5t-9.5 10t-11 12.5q-29 35 -29 79q0 52 33 90q31 36 65 50l31 10v6q-17 7 -52 36q-29 24 -46 49q-22 29 -38 77t-18 100zM804 -228q89 38 89 107q0 70 -89 108
q-90 38 -247 38t-247 -38q-89 -38 -89 -108q0 -69 89 -107q90 -38 247 -38t247 38zM755 556q72 50 72 132t-72 132q-74 50 -198 50t-197 -50q-73 -49 -73 -132t73 -132q73 -50 197 -50t198 50zM575 1591v-143q0 -27 12.5 -39t33 -20t30.5 -21q13 -17 13 -55q0 -37 -29 -60
q-29 -24 -72 -24q-109 0 -108 141q5 91 46 156t74 65z" />
    <glyph glyph-name="Imacron" unicode="&#x12a;" horiz-adv-x="1196" 
d="M123 1434h950v-172h-379v-1090h379v-172h-950v172h379v1090h-379v172zM887 1675h-576v133h576v-133z" />
    <glyph glyph-name="imacron" unicode="&#x12b;" horiz-adv-x="483" 
d="M530 1260h-575v133h575v-133zM154 1004h176v-1004h-176v1004z" />
    <glyph glyph-name="Iogonek" unicode="&#x12e;" horiz-adv-x="1196" 
d="M1065 -182h119q0 -160 -203 -160t-203 160q0 50 34 94q36 47 59 62q26 20 40 26h-788v172h379v1090h-379v172h950v-172h-379v-1090h379v-172q-2 -1 -9.5 -4.5t-20.5 -11t-31 -18.5q-30 -19 -53 -40q-62 -56 -62 -108q0 -63 84 -63t84 63z" />
    <glyph glyph-name="iogonek" unicode="&#x12f;" horiz-adv-x="483" 
d="M322 -182h118q0 -160 -202 -160q-203 0 -203 160q0 50 34 94q34 47 58 62q29 21 41 26h-14v1004h176v-1004q-2 -1 -9.5 -4.5t-20.5 -11t-31 -18.5q-30 -19 -53 -40q-62 -56 -62 -108q0 -63 84 -63t84 63zM321 1427q29 -29 29 -71t-29 -71q-29 -28 -79 -28t-79 28
q-30 29 -30 71t30 71q30 27 79 27t79 -27z" />
    <glyph glyph-name="Idot" unicode="&#x130;" horiz-adv-x="1196" 
d="M123 1434h950v-172h-379v-1090h379v-172h-950v172h379v1090h-379v172zM669 1818q29 -29 29 -71q0 -43 -29 -70q-29 -28 -79 -28t-79 28q-30 27 -30 70t30 71q30 27 79 27t79 -27z" />
    <glyph glyph-name="dotlessi" unicode="&#x131;" horiz-adv-x="483" 
d="M154 1004h176v-1004h-176v1004z" />
    <glyph glyph-name="uni0136" unicode="&#x136;" horiz-adv-x="1343" 
d="M1343 0h-239l-727 709v-709h-193v1434h193v-693l682 693h239l-690 -705zM713 -567v143q0 26 -13 38t-33 20.5t-29 21.5q-13 17 -13 55q0 37 29 60q28 24 71 24q109 0 109 -141q-5 -91 -46 -156q-42 -65 -75 -65z" />
    <glyph glyph-name="uni0137" unicode="&#x137;" horiz-adv-x="1128" 
d="M1128 0h-233l-565 510v-510h-176v1434h176v-910l530 480h234l-539 -486zM602 -567v143q0 26 -12.5 38t-32.5 20.5t-29 21.5q-14 19 -14 55q0 37 29 60q29 24 71 24q109 0 109 -141q-5 -91 -46 -156q-42 -65 -75 -65z" />
    <glyph glyph-name="Lacute" unicode="&#x139;" horiz-adv-x="1300" 
d="M377 172h883v-172h-1076v1434h193v-1262zM367 1618h-164l307 328h227z" />
    <glyph glyph-name="lacute" unicode="&#x13a;" horiz-adv-x="483" 
d="M154 1434h176v-1434h-176v1434zM322 1618h-164l307 328h227z" />
    <glyph glyph-name="uni013B" unicode="&#x13b;" horiz-adv-x="1300" 
d="M377 172h883v-172h-1076v1434h193v-1262zM723 -567v143q0 26 -12.5 38t-32.5 20.5t-29 21.5q-14 19 -14 55q0 37 29 60q28 24 71 24q109 0 109 -141q-5 -91 -46 -156q-42 -65 -75 -65z" />
    <glyph glyph-name="uni013C" unicode="&#x13c;" horiz-adv-x="483" 
d="M154 1434h176v-1434h-176v1434zM227 -567v143q0 26 -12.5 38t-32.5 20.5t-29 21.5q-14 19 -14 55q0 37 29 60q28 24 72 24q110 0 108 -141q-5 -91 -46 -156q-42 -65 -75 -65z" />
    <glyph glyph-name="Lcaron" unicode="&#x13d;" horiz-adv-x="1300" 
d="M377 172h883v-172h-1076v1434h193v-1262zM649 1092v143q0 48 -43 57q-18 5 -31 23q-14 19 -14 55q0 37 29 61q29 23 72 23q110 0 108 -141q-5 -91 -46 -155q-42 -66 -75 -66z" />
    <glyph glyph-name="lcaron" unicode="&#x13e;" horiz-adv-x="610" 
d="M154 1434h176v-1434h-176v1434zM551 1092v143q0 47 -44 57q-18 5 -31 23q-13 17 -13 55q0 37 29 61q29 23 71 23q109 0 109 -141q-5 -91 -46 -155q-42 -66 -75 -66z" />
    <glyph glyph-name="Lslash" unicode="&#x141;" horiz-adv-x="1343" 
d="M227 535l-196 -97v172l196 97v727h193v-631l295 145v-172l-295 -145v-459h883v-172h-1076v535z" />
    <glyph glyph-name="lslash" unicode="&#x142;" horiz-adv-x="610" 
d="M211 555l-191 -92v151l191 93v727h176v-641l203 100v-152l-203 -100v-641h-176v555z" />
    <glyph glyph-name="Nacute" unicode="&#x143;" horiz-adv-x="1624" 
d="M1440 0h-287l-770 1219h-6v-1219h-193v1434h287l770 -1219h6v1219h193v-1434zM903 1618h-164l308 328h227z" />
    <glyph glyph-name="nacute" unicode="&#x144;" horiz-adv-x="1304" 
d="M1161 0h-176v518q0 176 -89 259t-239 83q-158 0 -242 -94q-85 -94 -85 -248v-518h-176v1004h176v-154h10q21 34 49 61q33 30 69 53q41 25 109 42.5t142 17.5q194 0 324 -116q128 -117 128 -349v-559zM725 1208h-164l307 328h228z" />
    <glyph glyph-name="uni0145" unicode="&#x145;" horiz-adv-x="1624" 
d="M1440 0h-287l-770 1219h-6v-1219h-193v1434h287l770 -1219h6v1219h193v-1434zM825 -567v143q0 26 -12.5 38t-32.5 20.5t-29 21.5q-14 19 -14 55q0 37 29 60q28 24 72 24q110 0 108 -141q-5 -91 -46 -156q-42 -65 -75 -65z" />
    <glyph glyph-name="uni0146" unicode="&#x146;" horiz-adv-x="1304" 
d="M1161 0h-176v518q0 176 -89 259t-239 83q-158 0 -242 -94q-85 -94 -85 -248v-518h-176v1004h176v-154h10q21 34 49 61q33 30 69 53q41 25 109 42.5t142 17.5q194 0 324 -116q128 -117 128 -349v-559zM653 -567v143q0 26 -12.5 38t-32.5 20.5t-29 21.5q-14 19 -14 55
q0 37 29 60q28 24 72 24q110 0 108 -141q-5 -91 -46 -156q-42 -65 -75 -65z" />
    <glyph glyph-name="Ncaron" unicode="&#x147;" horiz-adv-x="1624" 
d="M1440 0h-287l-770 1219h-6v-1219h-193v1434h287l770 -1219h6v1219h193v-1434zM467 1946h172l201 -252l200 252h172l-268 -328h-209z" />
    <glyph glyph-name="ncaron" unicode="&#x148;" horiz-adv-x="1304" 
d="M1161 0h-176v518q0 176 -89 259t-239 83q-158 0 -242 -94q-85 -94 -85 -248v-518h-176v1004h176v-154h10q21 34 49 61q33 30 69 53q41 25 109 42.5t142 17.5q194 0 324 -116q128 -117 128 -349v-559zM287 1536h172l200 -252l201 252h172l-268 -328h-209z" />
    <glyph glyph-name="Omacron" unicode="&#x14c;" horiz-adv-x="1720" 
d="M338 185q-195 204 -195 532q0 327 195 532q193 205 522 205q328 0 523 -205q194 -206 194 -532q0 -327 -194 -532q-195 -205 -523 -205q-329 0 -522 205zM1239 314q137 158 137 403q0 246 -137 404q-136 157 -379 157t-379 -157q-137 -158 -137 -404q0 -245 137 -403
t379 -158t379 158zM1149 1675h-576v133h576v-133z" />
    <glyph glyph-name="omacron" unicode="&#x14d;" horiz-adv-x="1327" 
d="M269 123q-156 143 -156 379q0 235 156 379q155 143 395 143q238 0 395 -143q155 -144 155 -379q0 -236 -155 -379q-157 -143 -395 -143q-240 0 -395 143zM933 244q101 101 101 258t-101 258q-101 100 -269 100q-169 0 -269 -100q-102 -100 -102 -258t102 -258
q101 -101 269 -101q166 0 269 101zM952 1260h-575v133h575v-133z" />
    <glyph glyph-name="Ohungarumlaut" unicode="&#x150;" horiz-adv-x="1720" 
d="M338 185q-195 204 -195 532q0 327 195 532q193 205 522 205q328 0 523 -205q194 -206 194 -532q0 -327 -194 -532q-195 -205 -523 -205q-329 0 -522 205zM1239 314q137 158 137 403q0 246 -137 404q-136 157 -379 157t-379 -157q-137 -158 -137 -404q0 -245 137 -403
t379 -158t379 158zM750 1618h-129l333 328h179zM1090 1618h-127l333 328h191z" />
    <glyph glyph-name="ohungarumlaut" unicode="&#x151;" horiz-adv-x="1327" 
d="M269 123q-156 143 -156 379q0 235 156 379q155 143 395 143q238 0 395 -143q155 -144 155 -379q0 -236 -155 -379q-157 -143 -395 -143q-240 0 -395 143zM933 244q101 101 101 258t-101 258q-101 100 -269 100q-169 0 -269 -100q-102 -100 -102 -258t102 -258
q101 -101 269 -101q166 0 269 101zM543 1208h-129l334 328h178zM883 1208h-127l334 328h190z" />
    <glyph glyph-name="OE" unicode="&#x152;" horiz-adv-x="2041" 
d="M358 190q-215 189 -215 527q0 337 215 528q214 189 594 189h967v-164h-733v-451h610v-164h-610v-491h733v-164h-967q-380 0 -594 190zM993 1257h-41q-292 0 -449 -142q-159 -143 -159 -398t159 -398q160 -143 449 -143h41v1081z" />
    <glyph glyph-name="oe" unicode="&#x153;" horiz-adv-x="2111" 
d="M258 126q-145 145 -145 376q0 229 144 376q144 146 366 146q86 0 163 -24.5t128 -62.5q92 -70 130 -134l13 -27h8q6 15 13 27q8 15 46 59q37 43 82 76t123 60q80 26 168 26q219 0 361 -145q141 -145 141 -377l-6 -84h-836q0 -91 91 -182q92 -93 249 -93q121 0 188 47
q56 41 72 72l6 14h207q-1 -7 -10 -31q-8 -21 -42 -71q-35 -52 -80 -91t-134 -71q-86 -32 -197 -32q-86 0 -165 24.5t-130 62.5q-92 67 -133 134l-14 26h-8q-5 -12 -14 -26q-8 -12 -49 -60q-37 -43 -83 -75q-46 -34 -122 -59q-78 -27 -166 -27q-221 0 -365 146zM973 502
q0 152 -91 255t-249 103t-249 -103t-91 -255q0 -155 91 -256q91 -103 249 -103q154 0 247 105q93 104 93 254zM1729 766q-84 94 -242 94t-245 -92t-87 -190h657q0 93 -83 188z" />
    <glyph glyph-name="Racute" unicode="&#x154;" horiz-adv-x="1472" 
d="M1370 0h-221l-342 541h-430v-541h-193v1434h553q273 0 414 -114.5t141 -332.5q0 -92 -28 -170t-72 -122q-84 -86 -156 -105l-28 -10zM377 1262v-549h360q353 0 355 275q0 274 -355 274h-360zM731 1618h-164l307 328h228z" />
    <glyph glyph-name="racute" unicode="&#x155;" horiz-adv-x="890" 
d="M709 1024q60 0 106 -12l14 -2v-193q-57 20 -151 21q-162 0 -255 -103t-93 -258v-477h-176v1004h176v-195h10q15 32 49 75q31 38 69 66q43 30 110.5 52t140.5 22zM567 1208h-164l308 328h227z" />
    <glyph glyph-name="uni0156" unicode="&#x156;" horiz-adv-x="1472" 
d="M1370 0h-221l-342 541h-430v-541h-193v1434h553q273 0 414 -114.5t141 -332.5q0 -92 -28 -170t-72 -122q-84 -86 -156 -105l-28 -10zM377 1262v-549h360q353 0 355 275q0 274 -355 274h-360zM745 -567v143q0 26 -12.5 38t-32.5 20.5t-29 21.5q-14 19 -14 55q0 37 29 60
q28 24 72 24q110 0 108 -141q-5 -91 -46 -156q-42 -65 -75 -65z" />
    <glyph glyph-name="uni0157" unicode="&#x157;" horiz-adv-x="890" 
d="M709 1024q60 0 106 -12l14 -2v-193q-57 20 -151 21q-162 0 -255 -103t-93 -258v-477h-176v1004h176v-195h10q15 32 49 75q31 38 69 66q43 30 110.5 52t140.5 22zM221 -567v143q0 26 -12.5 38t-32.5 20.5t-29 21.5q-14 19 -14 55q0 37 29 60q29 24 71 24q109 0 109 -141
q-5 -91 -46 -156q-42 -65 -75 -65z" />
    <glyph glyph-name="Rcaron" unicode="&#x158;" horiz-adv-x="1472" 
d="M1370 0h-221l-342 541h-430v-541h-193v1434h553q273 0 414 -114.5t141 -332.5q0 -92 -28 -170t-72 -122q-84 -86 -156 -105l-28 -10zM377 1262v-549h360q353 0 355 275q0 274 -355 274h-360zM295 1946h172l201 -252l200 252h172l-268 -328h-209z" />
    <glyph glyph-name="rcaron" unicode="&#x159;" horiz-adv-x="890" 
d="M709 1024q60 0 106 -12l14 -2v-193q-57 20 -151 21q-162 0 -255 -103t-93 -258v-477h-176v1004h176v-195h10q15 32 49 75q31 38 69 66q43 30 110.5 52t140.5 22zM127 1536h172l201 -252l200 252h172l-268 -328h-209z" />
    <glyph glyph-name="Sacute" unicode="&#x15a;" horiz-adv-x="1456" 
d="M1141 397q0 73 -51.5 122t-140.5 73q-60 16 -196 40t-199 39q-102 22 -188 63t-138 122q-54 82 -54 201q0 185 153 291q151 106 402 106q252 0 404 -110q151 -111 151 -308v-41h-192v41q0 242 -363 242q-173 0 -267.5 -56t-94.5 -165q0 -73 51 -124t140 -77
q63 -18 202 -45.5t194 -40.5q117 -28 197 -69t129 -113q53 -79 53 -191q0 -201 -170 -309q-169 -108 -430 -108t-430 109q-170 108 -170 308v82h193v-82q0 -242 408 -242q407 0 407 242zM799 1618h-164l307 328h227z" />
    <glyph glyph-name="sacute" unicode="&#x15b;" horiz-adv-x="1204" 
d="M911 297q0 59 -57 91q-59 33 -143 37q-87 5 -187 18q-108 13 -188 31q-86 18 -143 81q-58 62 -58 166q0 151 129 228q129 75 334 75q208 0 336 -84q127 -84 127 -264h-180q0 94 -67.5 139t-215.5 45q-283 0 -283 -139q0 -57 58 -87q58 -31 143 -35q79 -4 188 -17
q103 -14 187 -33q85 -21 144 -84q57 -65 57 -168q0 -112 -71 -186q-70 -73 -176 -102q-103 -29 -243 -29q-293 0 -418 144q-71 82 -71 204v32h180v-32q0 -184 309 -184q309 -2 309 153zM670 1208h-164l307 328h227z" />
    <glyph glyph-name="Scedilla" unicode="&#x15e;" horiz-adv-x="1456" 
d="M569 -240h113q0 -59 86 -59t86 57q0 58 -86 58h-111v104l52 60q-251 5 -413 113q-163 108 -163 304v82h193v-82q0 -243 408 -241q407 0 407 241q0 73 -51.5 122t-140.5 73q-60 16 -196 40t-199 39q-102 22 -188 63t-138 122q-54 82 -54 201q0 185 153 291
q151 106 402 106q252 0 404 -110q151 -111 151 -308v-41h-192v41q0 242 -363 242q-173 0 -267.5 -56t-94.5 -165q0 -73 51 -124t140 -77q63 -18 202 -45.5t194 -40.5q117 -28 197 -69t129 -113q53 -79 53 -191q0 -182 -142 -288q-143 -107 -368 -125l-55 -66q199 0 199 -160
q0 -75 -52 -115t-147 -40q-199 -1 -199 157z" />
    <glyph glyph-name="scedilla" unicode="&#x15f;" horiz-adv-x="1204" 
d="M414 -240h112q0 -59 86 -59t86 57q0 58 -86 58h-110v104l53 62q-197 8 -319 92q-123 84 -123 254v32h180v-32q0 -184 309 -184q309 -2 309 153q0 59 -57 91q-59 33 -143 37q-87 5 -187 18q-108 13 -188 31q-86 18 -143 81q-58 62 -58 166q0 151 129 228q129 75 334 75
q208 0 336 -84q127 -84 127 -264h-180q0 94 -67.5 139t-215.5 45q-283 0 -283 -139q0 -57 58 -87q58 -31 143 -35q79 -4 188 -17q103 -14 187 -33q85 -21 144 -84q57 -65 57 -168q0 -154 -119 -229q-117 -75 -307 -86l-54 -64q199 0 199 -160q0 -75 -51.5 -115t-147.5 -40
q-198 -1 -198 157z" />
    <glyph glyph-name="Scaron" unicode="&#x160;" horiz-adv-x="1456" 
d="M1141 397q0 73 -51.5 122t-140.5 73q-60 16 -196 40t-199 39q-102 22 -188 63t-138 122q-54 82 -54 201q0 185 153 291q151 106 402 106q252 0 404 -110q151 -111 151 -308v-41h-192v41q0 242 -363 242q-173 0 -267.5 -56t-94.5 -165q0 -73 51 -124t140 -77
q63 -18 202 -45.5t194 -40.5q117 -28 197 -69t129 -113q53 -79 53 -191q0 -201 -170 -309q-169 -108 -430 -108t-430 109q-170 108 -170 308v82h193v-82q0 -242 408 -242q407 0 407 242zM362 1946h173l200 -252l201 252h172l-268 -328h-209z" />
    <glyph glyph-name="scaron" unicode="&#x161;" horiz-adv-x="1204" 
d="M911 297q0 59 -57 91q-59 33 -143 37q-87 5 -187 18q-108 13 -188 31q-86 18 -143 81q-58 62 -58 166q0 151 129 228q129 75 334 75q208 0 336 -84q127 -84 127 -264h-180q0 94 -67.5 139t-215.5 45q-283 0 -283 -139q0 -57 58 -87q58 -31 143 -35q79 -4 188 -17
q103 -14 187 -33q85 -21 144 -84q57 -65 57 -168q0 -112 -71 -186q-70 -73 -176 -102q-103 -29 -243 -29q-293 0 -418 144q-71 82 -71 204v32h180v-32q0 -184 309 -184q309 -2 309 153zM215 1536h172l201 -252l200 252h173l-269 -328h-209z" />
    <glyph glyph-name="uni0162" unicode="&#x162;" horiz-adv-x="1300" 
d="M555 1262h-514v172h1219v-172h-512v-1262h-193v1262zM635 -567v143q0 26 -13 38t-33 20.5t-29 21.5q-13 17 -13 55q0 37 29 60q28 24 71 24q109 0 109 -141q-5 -91 -46 -156q-42 -65 -75 -65z" />
    <glyph glyph-name="uni0163" unicode="&#x163;" horiz-adv-x="890" 
d="M788 844h-372v-455q0 -256 225 -256q48 0 93.5 11t66.5 24l18 12v-160q-80 -41 -198 -40q-177 0 -278 97q-103 97 -103 290v477h-168v160h168v225h176v-225h372v-160zM537 -567v143q0 26 -13 38t-33 20.5t-29 21.5q-13 17 -13 55q0 37 29 60q28 24 71 24q109 0 108 -141
q-5 -90 -45 -156q-42 -65 -75 -65z" />
    <glyph glyph-name="Tcaron" unicode="&#x164;" horiz-adv-x="1300" 
d="M555 1262h-514v172h1219v-172h-512v-1262h-193v1262zM276 1946h173l200 -252l201 252h172l-268 -328h-209z" />
    <glyph glyph-name="tcaron" unicode="&#x165;" horiz-adv-x="972" 
d="M788 844h-372v-455q0 -256 225 -256q48 0 93.5 11t66.5 24l18 12v-160q-80 -41 -198 -40q-177 0 -278 97q-103 97 -103 290v477h-168v160h168v225h176v-225h372v-160zM893 877v143q0 47 -44 57q-18 5 -31 23q-13 17 -13 55q0 37 29 61q29 23 71 23q109 0 109 -141
q-5 -91 -46 -155q-42 -66 -75 -66z" />
    <glyph glyph-name="Umacron" unicode="&#x16a;" horiz-adv-x="1589" 
d="M174 1434h193v-932q0 -175 121 -260q121 -86 307 -86q184 0 306 86t122 260v932h192v-942q0 -251 -175 -381q-176 -131 -445 -131q-270 0 -446 131q-175 130 -175 381v942zM1083 1675h-575v133h575v-133z" />
    <glyph glyph-name="umacron" unicode="&#x16b;" 
d="M154 1004h176v-519q0 -176 89 -259t238 -83q157 0 243 95q85 94 85 247v519h176v-1004h-176v154h-10q-20 -32 -49 -61q-33 -31 -69 -53q-41 -26 -109 -43t-142 -17q-196 0 -323 117q-129 115 -129 347v560zM944 1260h-575v133h575v-133z" />
    <glyph glyph-name="Uring" unicode="&#x16e;" horiz-adv-x="1589" 
d="M174 1434h193v-932q0 -175 121 -260q121 -86 307 -86q184 0 306 86t122 260v932h192v-942q0 -251 -175 -381q-176 -131 -445 -131q-270 0 -446 131q-175 130 -175 381v942zM949 1623q-55 -52 -154 -52t-154 52t-55 136q0 85 55 137t154 52t154 -52t55 -137
q0 -84 -55 -136zM868 1760q0 73 -73 73q-74 0 -74 -73q0 -74 74 -74q73 0 73 74z" />
    <glyph glyph-name="uring" unicode="&#x16f;" 
d="M154 1004h176v-519q0 -176 89 -259t238 -83q157 0 243 95q85 94 85 247v519h176v-1004h-176v154h-10q-20 -32 -49 -61q-33 -31 -69 -53q-41 -26 -109 -43t-142 -17q-196 0 -323 117q-129 115 -129 347v560zM811 1220q-56 -53 -153 -53q-98 0 -154 53q-55 52 -55 136
t55 136t154 52q98 0 153 -52t55 -136t-55 -136zM731 1356q0 74 -73 74q-74 0 -74 -74t74 -74q73 0 73 74z" />
    <glyph glyph-name="Uhungarumlaut" unicode="&#x170;" horiz-adv-x="1589" 
d="M174 1434h193v-932q0 -175 121 -260q121 -86 307 -86q184 0 306 86t122 260v932h192v-942q0 -251 -175 -381q-176 -131 -445 -131q-270 0 -446 131q-175 130 -175 381v942zM678 1618h-129l334 328h178zM1018 1618h-127l334 328h190z" />
    <glyph glyph-name="uhungarumlaut" unicode="&#x171;" 
d="M154 1004h176v-519q0 -176 89 -259t238 -83q157 0 243 95q85 94 85 247v519h176v-1004h-176v154h-10q-20 -32 -49 -61q-33 -31 -69 -53q-41 -26 -109 -43t-142 -17q-196 0 -323 117q-129 115 -129 347v560zM541 1208h-129l333 328h179zM881 1208h-127l333 328h191z" />
    <glyph glyph-name="Uogonek" unicode="&#x172;" horiz-adv-x="1589" 
d="M885 -182h119q0 -160 -203 -160t-203 160q0 92 107 166q-238 19 -384 149q-147 129 -147 359v942h193v-932q0 -175 121 -260q121 -86 307 -86q184 0 306 86t122 260v932h192v-942q0 -235 -155 -366q-156 -130 -402 -144q-141 -74 -141 -164q0 -63 84 -63t84 63z" />
    <glyph glyph-name="uogonek" unicode="&#x173;" 
d="M1153 -182h119q0 -160 -203 -160t-203 160q0 50 34 94q36 47 59 62q26 20 40 26h-14v154h-10q-20 -32 -49 -61q-33 -31 -69 -53q-41 -26 -109 -43t-142 -17q-196 0 -323 117q-129 115 -129 347v560h176v-519q0 -176 89 -259t238 -83q157 0 243 95q85 94 85 247v519h176
v-1004q-2 -1 -9.5 -4.5t-20.5 -11t-31 -18.5q-30 -19 -53 -40q-62 -56 -62 -108q0 -63 84 -63t84 63z" />
    <glyph glyph-name="Ydieresis" unicode="&#x178;" horiz-adv-x="1347" 
d="M780 0h-213v528l-547 906h211l437 -725h10l438 725h211l-547 -906v-528zM379 1747q0 43 28.5 67.5t78.5 24.5q49 0 76.5 -24.5t27.5 -67.5q0 -98 -105 -98q-106 0 -106 98zM768 1747q0 43 28.5 67.5t78.5 24.5q49 0 76.5 -24.5t27.5 -67.5q0 -98 -105 -98q-106 0 -106 98
z" />
    <glyph glyph-name="Zacute" unicode="&#x179;" horiz-adv-x="1329" 
d="M973 1262h-856v172h1100v-172l-881 -1082v-8h901v-172h-1145v172l881 1081v9zM735 1618h-164l308 328h227z" />
    <glyph glyph-name="zacute" unicode="&#x17a;" horiz-adv-x="1073" 
d="M754 844h-658v160h895v-160l-692 -680v-4h713v-160h-951v160l693 680v4zM616 1208h-163l307 328h227z" />
    <glyph glyph-name="Zdotaccent" unicode="&#x17b;" horiz-adv-x="1329" 
d="M973 1262h-856v172h1100v-172l-881 -1082v-8h901v-172h-1145v172l881 1081v9zM747 1818q29 -29 29 -71q0 -43 -29 -70q-29 -28 -79 -28q-51 0 -79 28q-30 27 -30 70t30 71q29 27 79 27q49 0 79 -27z" />
    <glyph glyph-name="zdotaccent" unicode="&#x17c;" horiz-adv-x="1073" 
d="M754 844h-658v160h895v-160l-692 -680v-4h713v-160h-951v160l693 680v4zM626 1398q29 -29 29 -71q0 -43 -29 -70q-29 -28 -79 -28t-79 28q-30 27 -30 70t30 71q30 27 79 27t79 -27z" />
    <glyph glyph-name="Zcaron" unicode="&#x17d;" horiz-adv-x="1329" 
d="M973 1262h-856v172h1100v-172l-881 -1082v-8h901v-172h-1145v172l881 1081v9zM297 1946h172l201 -252l200 252h172l-268 -328h-209z" />
    <glyph glyph-name="zcaron" unicode="&#x17e;" horiz-adv-x="1073" 
d="M754 844h-658v160h895v-160l-692 -680v-4h713v-160h-951v160l693 680v4zM178 1536h172l201 -252l201 252h172l-269 -328h-209z" />
    <glyph glyph-name="florin" unicode="&#x192;" horiz-adv-x="909" 
d="M584 1044l-9 -40h295l-34 -160h-295l-193 -899q-80 -375 -416 -375q-71 0 -118 18l-17 6l33 148q44 -18 98 -18q100 0 159 51q57 50 89 192l189 877h-168l20 98l182 62l13 63q40 191 169 290q127 97 310 97q53 0 107 -14q50 -15 73 -27l23 -14l-35 -154q-52 55 -170 55
q-125 0 -200 -59.5t-105 -196.5z" />
    <glyph glyph-name="uni0218" unicode="&#x218;" horiz-adv-x="1456" 
d="M1141 397q0 73 -51.5 122t-140.5 73q-60 16 -196 40t-199 39q-102 22 -188 63t-138 122q-54 82 -54 201q0 185 153 291q151 106 402 106q252 0 404 -110q151 -111 151 -308v-41h-192v41q0 242 -363 242q-173 0 -267.5 -56t-94.5 -165q0 -73 51 -124t140 -77
q63 -18 202 -45.5t194 -40.5q117 -28 197 -69t129 -113q53 -79 53 -191q0 -201 -170 -309q-169 -108 -430 -108t-430 109q-170 108 -170 308v82h193v-82q0 -242 408 -242q407 0 407 242zM719 -567v143q0 26 -13 38t-33 20.5t-29 21.5q-13 17 -13 55q0 37 29 60q28 24 71 24
q109 0 109 -141q-5 -91 -46 -156q-42 -65 -75 -65z" />
    <glyph glyph-name="uni0219" unicode="&#x219;" horiz-adv-x="1204" 
d="M911 297q0 59 -57 91q-59 33 -143 37q-87 5 -187 18q-108 13 -188 31q-86 18 -143 81q-58 62 -58 166q0 151 129 228q129 75 334 75q208 0 336 -84q127 -84 127 -264h-180q0 94 -67.5 139t-215.5 45q-283 0 -283 -139q0 -57 58 -87q58 -31 143 -35q79 -4 188 -17
q103 -14 187 -33q85 -21 144 -84q57 -65 57 -168q0 -112 -71 -186q-70 -73 -176 -102q-103 -29 -243 -29q-293 0 -418 144q-71 82 -71 204v32h180v-32q0 -184 309 -184q309 -2 309 153zM600 -567v143q0 26 -12.5 38t-32.5 20.5t-29 21.5q-14 19 -14 55q0 37 29 60
q29 24 71 24q109 0 109 -141q-5 -91 -46 -156q-42 -65 -75 -65z" />
    <glyph glyph-name="uni021A" unicode="&#x21a;" horiz-adv-x="1300" 
d="M555 1262h-514v172h1219v-172h-512v-1262h-193v1262zM635 -567v143q0 26 -13 38t-33 20.5t-29 21.5q-13 17 -13 55q0 37 29 60q28 24 71 24q109 0 109 -141q-5 -91 -46 -156q-42 -65 -75 -65z" />
    <glyph glyph-name="uni021B" unicode="&#x21b;" horiz-adv-x="890" 
d="M788 844h-372v-455q0 -256 225 -256q48 0 93.5 11t66.5 24l18 12v-160q-80 -41 -198 -40q-177 0 -278 97q-103 97 -103 290v477h-168v160h168v225h176v-225h372v-160zM537 -567v143q0 26 -13 38t-33 20.5t-29 21.5q-13 17 -13 55q0 37 29 60q28 24 71 24q109 0 108 -141
q-5 -90 -45 -156q-42 -65 -75 -65z" />
    <glyph glyph-name="uni02BC" unicode="&#x2bc;" horiz-adv-x="331" 
d="M150 1071v143q0 48 -44 58q-18 5 -31 23q-14 19 -14 55t29 60q28 24 72 24q109 0 108 -142q-5 -91 -45 -155q-42 -66 -75 -66z" />
    <glyph glyph-name="circumflex" unicode="&#x2c6;" horiz-adv-x="868" 
d="M635 1208l-201 252l-201 -252h-172l269 328h209l268 -328h-172z" />
    <glyph glyph-name="caron" unicode="&#x2c7;" horiz-adv-x="868" 
d="M61 1536h172l201 -252l201 252h172l-268 -328h-209z" />
    <glyph glyph-name="breve" unicode="&#x2d8;" horiz-adv-x="688" 
d="M553 1263q-73 -61 -209 -61t-209 61q-74 60 -74 164h142q0 -109 141 -108q141 0 141 108h142q0 -104 -74 -164z" />
    <glyph glyph-name="dotaccent" unicode="&#x2d9;" horiz-adv-x="339" 
d="M249 1398q30 -28 30 -71t-30 -70q-29 -28 -79 -28t-79 28q-30 27 -30 70t30 71q30 27 79 27t79 -27z" />
    <glyph glyph-name="ring" unicode="&#x2da;" horiz-adv-x="540" 
d="M424 1257q-56 -53 -153 -53q-98 0 -154 53t-56 136t56 136q55 52 154 52q98 0 153 -52t55 -136t-55 -136zM344 1393q0 73 -73 73q-74 0 -74 -73q0 -74 74 -74q73 0 73 74z" />
    <glyph glyph-name="ogonek" unicode="&#x2db;" horiz-adv-x="528" 
d="M348 -182h119q0 -160 -203 -160t-203 160q0 52 34 96q35 45 69 66l33 20h159l-9 -4.5t-20.5 -11t-31.5 -18.5q-30 -19 -53 -40q-62 -56 -62 -108q0 -63 84 -63t84 63z" />
    <glyph glyph-name="tilde" unicode="&#x2dc;" horiz-adv-x="821" 
d="M238 1210q-82 0 -129.5 40t-47.5 112l9 76h137q-6 -20 -6 -47q0 -59 63 -60q25 -2 62.5 17.5t72.5 44t86 44t99 17.5q84 0 130 -40t46 -111l-8 -76h-138q5 16 7 47q0 59 -64 59q-40 0 -134 -61q-95 -62 -185 -62z" />
    <glyph glyph-name="hungarumlaut" unicode="&#x2dd;" horiz-adv-x="989" 
d="M190 1208h-129l334 328h178zM530 1208h-127l334 328h191z" />
    <glyph glyph-name="uni0401" unicode="&#x401;" horiz-adv-x="1384" 
d="M1262 0h-1078v1434h1078v-172h-885v-439h762v-172h-762v-479h885v-172zM438 1716q0 43 29 67.5t78 24.5t76.5 -24.5t27.5 -67.5q0 -98 -104 -98q-107 0 -107 98zM827 1716q0 43 29 67.5t78 24.5t76.5 -24.5t27.5 -67.5q0 -98 -104 -98q-107 0 -107 98z" />
    <glyph glyph-name="uni0402" unicode="&#x402;" horiz-adv-x="1609" 
d="M975 27q159 0 232 91t73 247q0 149 -92 244q-92 93 -254 93h-363v-702h-192v1262h-359v172h1057v-172h-506v-388h363q263 0 403 -139q140 -140 140 -370q0 -236 -122 -373t-380 -137q-56 0 -123 14l-21 4v168q75 -14 144 -14z" />
    <glyph glyph-name="uni0403" unicode="&#x403;" horiz-adv-x="1257" 
d="M799 1577h-164l307 328h227zM184 1434h1033v-172h-840v-1262h-193v1434z" />
    <glyph glyph-name="uni0404" unicode="&#x404;" horiz-adv-x="1687" 
d="M346 803h600v-172h-600q0 -75 32.5 -156t91.5 -152q60 -74 163 -120q103 -47 227 -47t221 42q96 41 146 102q100 123 121 220l8 43h198q0 -174 -157 -364q-79 -96 -218 -157q-142 -62 -319 -62q-329 0 -522 205q-195 204 -195 532q0 327 195 532q193 205 522 205
q177 0 319 -62q141 -64 218 -157q157 -189 157 -365h-198q-1 2 -2 11.5t-5.5 26.5t-12.5 42q-31 89 -95 166q-80 98 -214 139q-78 23 -167 23q-120 0 -221 -45t-165 -120q-128 -151 -128 -310z" />
    <glyph glyph-name="uni0405" unicode="&#x405;" horiz-adv-x="1456" 
d="M1141 397q0 73 -51.5 122t-140.5 73q-60 16 -196 40t-199 39q-102 22 -188 63t-138 122q-54 82 -54 201q0 185 153 291q151 106 402 106q252 0 404 -110q151 -111 151 -308v-41h-192v41q0 242 -363 242q-173 0 -267.5 -56t-94.5 -165q0 -73 51 -124t140 -77
q63 -18 202 -45.5t194 -40.5q117 -28 197 -69t129 -113q53 -79 53 -191q0 -201 -170 -309q-169 -108 -430 -108t-430 109q-170 108 -170 308v82h193v-82q0 -242 408 -242q407 0 407 242z" />
    <glyph glyph-name="uni0406" unicode="&#x406;" horiz-adv-x="1196" 
d="M123 1434h950v-172h-379v-1090h379v-172h-950v172h379v1090h-379v172z" />
    <glyph glyph-name="uni0407" unicode="&#x407;" horiz-adv-x="1196" 
d="M123 1434h950v-172h-379v-1090h379v-172h-950v172h379v1090h-379v172zM299 1716q0 43 28.5 67.5t78.5 24.5q49 0 76.5 -24.5t27.5 -67.5q0 -98 -104 -98q-107 0 -107 98zM688 1716q0 43 28.5 67.5t78.5 24.5q49 0 76.5 -24.5t27.5 -67.5q0 -98 -104 -98q-107 0 -107 98z
" />
    <glyph glyph-name="uni0408" unicode="&#x408;" horiz-adv-x="1302" 
d="M92 559h193v-80q0 -152 84 -237.5t242 -85.5q157 0 241 86t84 237v783h-625v172h817v-955q0 -221 -138 -360t-379 -139q-242 0 -380 139q-139 139 -139 360v80z" />
    <glyph glyph-name="uni0409" unicode="&#x409;" horiz-adv-x="2275" 
d="M33 -8l-13 4v178q34 -8 60 -8q104 0 143 75q40 75 62 251l123 942h872v-480h289q282 0 427.5 -121t145.5 -355t-145.5 -356t-427.5 -122h-482v1262h-503l-103 -770q-39 -287 -112 -398q-73 -114 -246 -114q-52 0 -90 12zM1569 782h-289v-610h289q181 0 277 77.5t96 228.5
q0 150 -96 227t-277 77z" />
    <glyph glyph-name="uni040A" unicode="&#x40a;" horiz-adv-x="2324" 
d="M1659 0h-529v688h-753v-688h-193v1434h193v-574h753v574h193v-574h336q263 0 397.5 -109.5t134.5 -320.5t-134.5 -320.5t-397.5 -109.5zM1659 688h-336v-516h336q332 0 332 258t-332 258z" />
    <glyph glyph-name="uni040B" unicode="&#x40b;" horiz-adv-x="1617" 
d="M379 1262h-359v172h1057v-172h-506v-388h287q316 0 462 -128q144 -128 144 -412v-334h-192v334q0 189 -101.5 278.5t-312.5 89.5h-287v-702h-192v1262z" />
    <glyph glyph-name="uni040C" unicode="&#x40c;" horiz-adv-x="1343" 
d="M1343 0h-239l-727 709v-709h-193v1434h193v-693l682 693h239l-690 -705zM782 1577h-164l308 328h227z" />
    <glyph glyph-name="uni040E" unicode="&#x40e;" horiz-adv-x="1388" 
d="M971 1688q-89 -70 -258 -70t-258 70q-90 69 -90 202v13h155v-13q0 -137 193 -137q192 0 192 137v13h156v-13q0 -133 -90 -202zM10 1434h211l508 -826h10l439 826h211l-578 -1086q-96 -183 -189 -266q-91 -82 -245 -82h-121v172h104q94 0 140 36q44 35 100 140l31 58z" />
    <glyph glyph-name="uni040F" unicode="&#x40f;" horiz-adv-x="1572" 
d="M883 -348h-193v348h-506v1434h193v-1262h819v1262h193v-1434h-506v-348z" />
    <glyph glyph-name="uni0410" unicode="&#x410;" horiz-adv-x="1488" 
d="M616 1434h256l586 -1434h-203l-129 315h-764l-129 -315h-202zM432 487h623l-305 773h-11z" />
    <glyph glyph-name="uni0411" unicode="&#x411;" horiz-adv-x="1478" 
d="M184 1434h1030v-172h-837v-373h416q279 0 421 -112.5t142 -331.5q0 -220 -142.5 -332.5t-420.5 -112.5h-609v1434zM377 717v-545h416q362 0 362 273q0 272 -362 272h-416z" />
    <glyph glyph-name="uni0412" unicode="&#x412;" horiz-adv-x="1478" 
d="M1278 1038q0 -60 -20.5 -113t-51.5 -84q-59 -59 -112 -79l-21 -6v-8q11 -1 31 -6q19 -5 68 -27q46 -21 86 -56q36 -34 67 -100t31 -151q0 -408 -527 -408h-645v1434h609q485 -2 485 -396zM829 645h-452v-473h452q166 0 246 57t80 179q0 237 -326 237zM377 1262v-449h416
q143 0 214 56.5t70 168.5q0 222 -284 224h-416z" />
    <glyph glyph-name="uni0413" unicode="&#x413;" horiz-adv-x="1257" 
d="M184 1434h1033v-172h-840v-1262h-193v1434z" />
    <glyph glyph-name="uni0414" unicode="&#x414;" horiz-adv-x="1595" 
d="M213 -348h-193v520h78q147 0 183 320l110 942h940v-1262h203v-520h-193v348h-1128v-348zM1139 1262h-574l-98 -811q-16 -136 -53 -206q-30 -56 -52 -65l-8 -4v-4h785v1090z" />
    <glyph glyph-name="uni0415" unicode="&#x415;" horiz-adv-x="1384" 
d="M1262 0h-1078v1434h1078v-172h-885v-439h762v-172h-762v-479h885v-172z" />
    <glyph glyph-name="uni0416" unicode="&#x416;" horiz-adv-x="2064" 
d="M2054 0h-239l-687 709v-709h-192v709l-686 -709h-240l695 729l-652 705h240l643 -693v693h192v-693l644 693h239l-651 -705z" />
    <glyph glyph-name="uni0417" unicode="&#x417;" horiz-adv-x="1421" 
d="M1298 401q0 -193 -164 -307q-165 -114 -423 -114q-257 0 -423 116q-165 115 -165 305v78h192v-78q0 -122 109 -183q109 -62 287 -62t287 64q108 63 108 181q0 121 -103 185q-103 63 -280 63h-174v170h178q163 0 250.5 62.5t87.5 169.5q0 99 -99 164q-100 63 -268 63
q-172 0 -269 -64t-97 -178v-41h-193v41q0 186 153 302q152 116 406 116q250 0 405 -114q154 -115 154 -289q0 -67 -21.5 -124t-55.5 -90q-65 -62 -121 -83l-23 -6v-13q40 -9 92 -36q45 -25 80 -58q37 -37 63.5 -101t26.5 -139z" />
    <glyph glyph-name="uni0418" unicode="&#x418;" horiz-adv-x="1595" 
d="M1219 1225h-7l-751 -1225h-277v1434h193v-1225h6l752 1225h276v-1434h-192v1225z" />
    <glyph glyph-name="uni0419" unicode="&#x419;" horiz-adv-x="1595" 
d="M1063 1688q-89 -70 -258 -70t-258 70q-90 69 -90 202v13h155v-13q0 -137 193 -137q192 0 192 137v13h156v-13q0 -133 -90 -202zM1219 1225h-7l-751 -1225h-277v1434h193v-1225h6l752 1225h276v-1434h-192v1225z" />
    <glyph glyph-name="uni041A" unicode="&#x41a;" horiz-adv-x="1343" 
d="M1343 0h-239l-727 709v-709h-193v1434h193v-693l682 693h239l-690 -705z" />
    <glyph glyph-name="uni041B" unicode="&#x41b;" horiz-adv-x="1540" 
d="M33 -8l-13 4v178q34 -8 60 -8q104 0 143 75q40 75 62 251l123 942h948v-1434h-193v1262h-579l-103 -770q-39 -287 -112 -398q-73 -114 -246 -114q-52 0 -90 12z" />
    <glyph glyph-name="uni041C" unicode="&#x41c;" horiz-adv-x="1855" 
d="M1049 383h-242l-422 825h-8v-1208h-193v1434h295l445 -871h8l444 871h295v-1434h-192v1208h-9z" />
    <glyph glyph-name="uni041D" unicode="&#x41d;" horiz-adv-x="1591" 
d="M1407 0h-193v659h-837v-659h-193v1434h193v-603h837v603h193v-1434z" />
    <glyph glyph-name="uni041E" unicode="&#x41e;" horiz-adv-x="1720" 
d="M338 185q-195 204 -195 532q0 327 195 532q193 205 522 205q328 0 523 -205q194 -206 194 -532q0 -327 -194 -532q-195 -205 -523 -205q-329 0 -522 205zM1239 314q137 158 137 403q0 246 -137 404q-136 157 -379 157t-379 -157q-137 -158 -137 -404q0 -245 137 -403
t379 -158t379 158z" />
    <glyph glyph-name="uni041F" unicode="&#x41f;" horiz-adv-x="1572" 
d="M1389 0h-193v1262h-819v-1262h-193v1434h1205v-1434z" />
    <glyph glyph-name="uni0420" unicode="&#x420;" horiz-adv-x="1447" 
d="M731 418h-354v-418h-193v1434h547q282 0 428 -129.5t146 -378.5t-146 -378.5t-428 -129.5zM377 1262v-672h354q182 0 277.5 84.5t95.5 251.5t-95.5 251.5t-277.5 84.5h-354z" />
    <glyph glyph-name="uni0421" unicode="&#x421;" horiz-adv-x="1687" 
d="M860 156q124 0 221 42q96 41 146 102q100 123 121 220l8 43h198q0 -174 -157 -364q-79 -96 -218 -157q-142 -62 -319 -62q-329 0 -522 205q-195 204 -195 532q0 327 195 532q193 205 522 205q177 0 319 -62q141 -64 218 -157q157 -189 157 -365h-198q-1 2 -2 11.5
t-5.5 26.5t-12.5 42q-31 89 -95 166q-80 98 -214 139q-78 23 -167 23q-243 0 -379 -157q-137 -158 -137 -404q0 -245 137 -403t379 -158z" />
    <glyph glyph-name="uni0422" unicode="&#x422;" horiz-adv-x="1300" 
d="M555 1262h-514v172h1219v-172h-512v-1262h-193v1262z" />
    <glyph glyph-name="uni0423" unicode="&#x423;" horiz-adv-x="1388" 
d="M10 1434h211l508 -826h10l439 826h211l-578 -1086q-96 -183 -189 -266q-91 -82 -245 -82h-121v172h104q94 0 140 36q44 35 100 140l31 58z" />
    <glyph glyph-name="uni0424" unicode="&#x424;" horiz-adv-x="1929" 
d="M1605 1159q201 -147 201 -442t-201 -441q-203 -147 -544 -153v-143h-193v143q-342 6 -543 153q-202 145 -202 441q0 295 202 442q202 146 543 152v143h193v-143q341 -6 544 -152zM868 299v836q-544 -15 -544 -418q0 -405 544 -418zM1061 1135v-836q545 14 545 418
q0 403 -545 418z" />
    <glyph glyph-name="uni0425" unicode="&#x425;" horiz-adv-x="1284" 
d="M1020 1434h219l-487 -693l522 -741h-219l-414 586l-412 -586h-219l522 741l-487 693h219l377 -537z" />
    <glyph glyph-name="uni0426" unicode="&#x426;" horiz-adv-x="1589" 
d="M1528 -348h-193v348h-1151v1434h193v-1262h756v1262h192v-1262h203v-520z" />
    <glyph glyph-name="uni0427" unicode="&#x427;" horiz-adv-x="1443" 
d="M164 1018v416h192v-416q0 -189 101.5 -279t312.5 -90h297v785h193v-1434h-193v477h-297q-316 0 -461 128q-145 127 -145 413z" />
    <glyph glyph-name="uni0428" unicode="&#x428;" horiz-adv-x="2023" 
d="M1108 172h539v1262h192v-1434h-1655v1434h193v-1262h538v1262h193v-1262z" />
    <glyph glyph-name="uni0429" unicode="&#x429;" horiz-adv-x="2103" 
d="M2042 -348h-193v348h-1665v1434h193v-1262h538v1262h193v-1262h539v1262h192v-1262h203v-520z" />
    <glyph glyph-name="uni042A" unicode="&#x42a;" horiz-adv-x="1669" 
d="M379 1262h-379v172h571v-480h392q282 0 427.5 -121t145.5 -355t-145.5 -356t-427.5 -122h-584v1262zM963 782h-392v-610h392q181 0 276.5 77.5t95.5 228.5q0 150 -95.5 227t-276.5 77z" />
    <glyph glyph-name="uni042B" unicode="&#x42b;" horiz-adv-x="1882" 
d="M1505 1434h193v-1434h-193v1434zM184 0v1434h193v-480h350q282 0 427.5 -121t145.5 -355t-145.5 -356t-427.5 -122h-543zM727 782h-350v-610h350q181 0 277 77.5t96 228.5q0 150 -96 227t-277 77z" />
    <glyph glyph-name="uni042C" unicode="&#x42c;" horiz-adv-x="1474" 
d="M184 0v1434h193v-480h391q282 0 427.5 -121t145.5 -355t-145.5 -356t-427.5 -122h-584zM768 782h-391v-610h391q181 0 277 77.5t96 228.5q0 150 -96 227t-277 77z" />
    <glyph glyph-name="uni042D" unicode="&#x42d;" horiz-adv-x="1687" 
d="M1341 631h-600v172h600q0 161 -126 310q-63 75 -165.5 120t-221.5 45q-122 0 -220 -42t-147 -102q-102 -127 -121 -221l-8 -43h-199q0 175 158 365q77 93 218 157q141 62 318 62q328 0 523 -205q194 -206 194 -532q0 -327 -194 -532q-195 -205 -523 -205q-177 0 -318 62
q-139 61 -218 157q-158 191 -158 364h199q1 -2 2 -11.5t5.5 -26.5t13.5 -42q29 -86 94 -165q39 -49 89.5 -82t124.5 -56q77 -24 166 -24q123 0 228 47q101 46 163 120q123 148 123 308z" />
    <glyph glyph-name="uni042E" unicode="&#x42e;" horiz-adv-x="2070" 
d="M377 1434v-629h248q5 168 96 335q51 91 121 158q74 71 186.5 113.5t243.5 42.5q311 0 483 -208t172 -529q0 -324 -171 -530q-171 -207 -484 -207q-133 0 -246.5 42t-187.5 112q-72 68 -121 155q-89 160 -94 344h-246v-633h-193v1434h193zM932 1120q-115 -161 -115 -403
q0 -243 115 -403q116 -162 340 -162t340 162q114 160 114 403q0 241 -114 403q-116 162 -340 162t-340 -162z" />
    <glyph glyph-name="uni042F" unicode="&#x42f;" horiz-adv-x="1427" 
d="M1243 0h-192v512h-412l-299 -512h-217l321 547q-35 0 -111 53q-45 32 -84 76q-42 48 -69.5 128.5t-27.5 172.5q0 205 134 331t359 126h598v-1434zM350 973q0 -129 78 -209t205 -80h418v578h-406q-125 0 -210 -81t-85 -208z" />
    <glyph glyph-name="uni0430" unicode="&#x430;" horiz-adv-x="1298" 
d="M113 281q0 154 131 228q130 73 334 73q104 0 192 -25q92 -26 129 -49l39 -25v158q0 102 -75 160.5t-226 58.5q-301 0 -301 -164h-176q1 166 135 247q133 81 342 81q210 0 343 -98q133 -99 134 -285v-365q0 -76 20 -105.5t66 -29.5q40 0 53 11l4 2v-158q-31 -16 -90 -16
q-100 0 -148 43q-38 32 -56 67l-5 12h-8q-25 -25 -51 -42q-31 -21 -68 -37q-98 -43 -239 -43q-213 0 -346 73q-133 72 -133 228zM618 418q-325 0 -325 -137q0 -138 325 -138q96 0 175 21q78 19 107 36q27 14 38 25v115q-11 11 -38 25q-34 16 -106 34q-77 19 -176 19z" />
    <glyph glyph-name="uni0431" unicode="&#x431;" horiz-adv-x="1316" 
d="M717 1133q-228 0 -332 -120q-104 -121 -104 -280h8q14 30 49 69q32 35 73 60q47 28 123 48t162 20q229 0 369 -131q139 -130 139 -342q0 -211 -147 -344q-148 -133 -389 -133q-250 0 -402 170q-153 170 -153 452v72q0 288 145 455q146 167 426 167q126 0 181 32t55 106
h184q0 -124 -68 -204q-83 -97 -319 -97zM925 231q99 89 99 226t-99 223q-101 86 -261 86q-146 0 -247 -90q-100 -90 -100 -219q0 -131 100 -222q100 -92 247 -92q163 0 261 88z" />
    <glyph glyph-name="uni0432" unicode="&#x432;" horiz-adv-x="1228" 
d="M1051 735q0 -49 -16 -89.5t-40 -60.5q-53 -43 -90 -48l-16 -5v-10q23 0 79 -20q38 -14 70 -38q33 -27 55.5 -74.5t22.5 -106.5q0 -144 -101 -213.5t-308 -69.5h-553v1004h510q183 0 285 -69t102 -200zM936 295q0 139 -229 139h-377v-280h377q229 0 229 141zM870 717
q0 133 -206 133h-334v-270h354q91 2 138.5 39t47.5 98z" />
    <glyph glyph-name="uni0433" unicode="&#x433;" horiz-adv-x="980" 
d="M154 0v1004h807v-160h-631v-844h-176z" />
    <glyph glyph-name="uni0434" unicode="&#x434;" horiz-adv-x="1259" 
d="M186 -256h-176v416h74q66 0 95 66q29 64 48 225l70 553h760v-844h151v-416h-176v256h-846v-256zM881 844h-430l-60 -475q-9 -76 -29 -130t-38 -65l-15 -10v-4h572v684z" />
    <glyph glyph-name="uni0435" unicode="&#x435;" horiz-adv-x="1327" 
d="M1214 502l-6 -84h-907q0 -86 102 -180q101 -95 271 -95q125 0 205 47q66 40 92 72l8 14h207q-6 -15 -13 -31q-13 -23 -49 -71q-39 -51 -91 -91q-50 -39 -147 -71q-92 -32 -212 -32q-249 0 -404 142q-157 142 -157 380q0 236 156 379q155 143 395 143q238 0 395 -143
q155 -143 155 -379zM930 765q-100 95 -266 95q-168 0 -266 -95q-99 -95 -99 -187h729q0 92 -98 187z" />
    <glyph glyph-name="uni0436" unicode="&#x436;" horiz-adv-x="1695" 
d="M1686 0h-234l-516 500v-500h-176v500l-516 -500h-234l535 510l-496 494h230l481 -490v490h176v-490l481 490h230l-496 -494z" />
    <glyph glyph-name="uni0437" unicode="&#x437;" horiz-adv-x="1193" 
d="M1081 287q0 -113 -71 -184q-72 -71 -175 -97q-100 -26 -243 -26q-488 0 -490 323v21h181v-21q0 -86 73.5 -123t235.5 -37q309 0 309 144q0 77 -73 109t-236 32h-156v160h187q253 6 251 137q0 135 -288 135q-140 0 -214.5 -41.5t-74.5 -109.5v-9h-180v9q0 154 133 235
q134 80 336 80q209 0 339 -73t130 -220q0 -76 -48 -127q-50 -52 -96 -65l-47 -15v-4q44 -12 76 -27q36 -17 66 -41q31 -26 53 -70.5t22 -94.5z" />
    <glyph glyph-name="uni0438" unicode="&#x438;" horiz-adv-x="1288" 
d="M1135 0h-177v803h-4l-577 -803h-223v1004h176v-803h4l577 803h224v-1004z" />
    <glyph glyph-name="uni0439" unicode="&#x439;" horiz-adv-x="1288" 
d="M852 1208q-73 -61 -209 -61t-209 61q-74 60 -74 164h142q0 -110 141 -108q141 0 141 108h142q0 -104 -74 -164zM1135 0h-177v803h-4l-577 -803h-223v1004h176v-803h4l577 803h224v-1004z" />
    <glyph glyph-name="uni043A" unicode="&#x43a;" horiz-adv-x="1128" 
d="M1128 0h-233l-565 500v-500h-176v1004h176v-490l530 490h230l-537 -494z" />
    <glyph glyph-name="uni043B" unicode="&#x43b;" horiz-adv-x="1241" 
d="M229 406l95 598h763v-1004h-176v844h-438l-67 -438q-35 -242 -104 -334t-191 -92q-48 0 -86 12l-15 6v168q33 -12 68 -12q76 0 109 79q22 52 42 173z" />
    <glyph glyph-name="uni043C" unicode="&#x43c;" horiz-adv-x="1482" 
d="M860 260h-237l-289 524h-4v-784h-176v1004h249l338 -615l338 615h250v-1004h-176v784h-4z" />
    <glyph glyph-name="uni043D" unicode="&#x43d;" horiz-adv-x="1288" 
d="M1135 0h-177v434h-628v-434h-176v1004h176v-410h628v410h177v-1004z" />
    <glyph glyph-name="uni043E" unicode="&#x43e;" horiz-adv-x="1327" 
d="M269 123q-156 143 -156 379q0 235 156 379q155 143 395 143q238 0 395 -143q155 -144 155 -379q0 -236 -155 -379q-157 -143 -395 -143q-240 0 -395 143zM933 244q101 101 101 258t-101 258q-101 100 -269 100q-169 0 -269 -100q-102 -100 -102 -258t102 -258
q101 -101 269 -101q166 0 269 101z" />
    <glyph glyph-name="uni043F" unicode="&#x43f;" horiz-adv-x="1269" 
d="M1116 0h-176v844h-610v-844h-176v1004h962v-1004z" />
    <glyph glyph-name="uni0440" unicode="&#x440;" horiz-adv-x="1368" 
d="M330 -410h-176v1414h176v-150h8q18 28 57 60q35 28 75 51q43 24 112.5 41.5t140.5 17.5q227 0 380 -144q152 -146 152 -378q0 -234 -152 -378q-153 -144 -380 -144q-156 0 -254 60q-86 53 -117 91l-14 19h-8v-560zM974 245q101 101 101 257q0 154 -101 257
q-103 101 -272 101q-170 0 -271 -101q-101 -103 -101 -257q0 -160 104 -259q103 -100 268 -100q170 0 272 102z" />
    <glyph glyph-name="uni0441" unicode="&#x441;" horiz-adv-x="1308" 
d="M269 125q-156 143 -156 379t156 378q154 142 395 142q137 0 245 -46q111 -47 168 -113q119 -137 119 -251h-182q-10 43 -34 85q-25 43 -58 75q-38 36 -106.5 61t-151.5 25q-169 0 -269 -100q-102 -100 -102 -256t102 -257q101 -102 269 -102q84 0 152.5 25t105.5 63
q69 71 86 132l6 26h182q0 -112 -119 -249q-59 -68 -168 -114q-108 -46 -245 -46q-240 0 -395 143z" />
    <glyph glyph-name="uni0442" unicode="&#x442;" horiz-adv-x="1048" 
d="M436 844h-405v160h987v-160h-406v-846l-176 2v844z" />
    <glyph glyph-name="uni0443" unicode="&#x443;" horiz-adv-x="1161" 
d="M20 1004h189l389 -807h6l346 807h191l-463 -1061q-88 -205 -162 -289t-221 -84q-81 0 -123 16l-16 4v154q52 -20 123 -20q81 0 124 51q42 49 89 168l14 37z" />
    <glyph glyph-name="uni0444" unicode="&#x444;" horiz-adv-x="1568" 
d="M272 126q-159 142 -159 376t159 376q156 141 424 146v410h176v-410q267 -5 425 -146q159 -142 159 -376q0 -233 -158 -376q-158 -141 -426 -146v-390h-176v390q-268 5 -424 146zM1172 248q104 101 104 254t-104 254q-104 99 -300 104v-717q195 5 300 105zM397 756
q-104 -101 -104 -254t105 -254q103 -100 298 -105v717q-197 -5 -299 -104z" />
    <glyph glyph-name="uni0445" unicode="&#x445;" horiz-adv-x="1050" 
d="M807 1004h205l-385 -478l424 -526h-205l-322 399l-319 -399h-205l422 526l-383 478h205l280 -351z" />
    <glyph glyph-name="uni0446" unicode="&#x446;" horiz-adv-x="1282" 
d="M1055 -256v256h-901v1004h176v-844h573v844h176v-844h152v-416h-176z" />
    <glyph glyph-name="uni0447" unicode="&#x447;" horiz-adv-x="1185" 
d="M309 997v-286q0 -118 64.5 -177t210.5 -59h272v522h176v-997h-176v315h-272q-221 0 -336 100.5t-115 295.5v286h176z" />
    <glyph glyph-name="uni0448" unicode="&#x448;" horiz-adv-x="1662" 
d="M330 160h413v844h177v-844h413v844h176v-1004h-1355v1004h176v-844z" />
    <glyph glyph-name="uni0449" unicode="&#x449;" horiz-adv-x="1712" 
d="M1485 -256v256h-1331v1004h176v-844h413v844h177v-844h413v844h176v-844h152v-416h-176z" />
    <glyph glyph-name="uni044A" unicode="&#x44a;" horiz-adv-x="1280" 
d="M487 672h230q450 0 450 -336t-450 -336h-406v844h-311v160h487v-332zM928 198q59 44 59 138t-59 138q-61 44 -211 44h-230v-364h230q152 0 211 44z" />
    <glyph glyph-name="uni044B" unicode="&#x44b;" horiz-adv-x="1497" 
d="M1167 0v1004h176v-1004h-176zM330 672h200q451 0 451 -336t-451 -336h-376v1004h176v-332zM742 198q59 44 59 138t-59 138q-61 44 -212 44h-200v-364h200q151 0 212 44z" />
    <glyph glyph-name="uni044C" unicode="&#x44c;" horiz-adv-x="1122" 
d="M330 672h229q451 0 451 -336t-451 -336h-405v1004h176v-332zM770 198q59 44 59 138t-59 138t-211 44h-229v-364h229q152 0 211 44z" />
    <glyph glyph-name="uni044D" unicode="&#x44d;" horiz-adv-x="1298" 
d="M999 422h-407v160h407q0 76 -84 169q-43 48 -118 78.5t-162 30.5q-84 0 -152.5 -24.5t-105.5 -62.5q-73 -74 -86 -134l-6 -25h-183q0 111 121 251q57 66 168 113q108 46 244 46q241 0 396 -142q155 -143 155 -378q0 -236 -156 -379q-157 -143 -395 -143q-136 0 -244 46
q-109 46 -168 114q-121 140 -121 249h183q10 -43 34 -85q22 -41 58 -74q39 -36 107.5 -61.5t150.5 -25.5q88 0 162 31.5t118 80.5q40 44 62 88.5t22 76.5z" />
    <glyph glyph-name="uni044E" unicode="&#x44e;" horiz-adv-x="1638" 
d="M154 1004h176v-422h200q1 14 8 48q4 25 37 105q32 78 79 135q47 58 147 106q97 48 225 48q222 0 361 -145t139 -377t-139 -377t-361 -145q-92 0 -171.5 24t-129.5 65q-49 40 -88 88q-75 93 -105 249l-2 24h-200v-430h-176v1004zM1262 246q84 102 84 256q0 152 -84 256
q-84 102 -236 102t-236 -102q-85 -103 -85 -256q0 -155 85 -256q84 -103 236 -103t236 103z" />
    <glyph glyph-name="uni044F" unicode="&#x44f;" horiz-adv-x="1167" 
d="M303 0h-190l235 377q-33 9 -77 34q-37 21 -66 51q-31 33 -53.5 91t-22.5 123q0 163 112.5 245.5t325.5 82.5h447v-1004h-176v348h-316zM370 807q-61 -43 -61 -131t61 -131q59 -43 197 -43h271v348h-271q-138 0 -197 -43z" />
    <glyph glyph-name="uni0451" unicode="&#x451;" horiz-adv-x="1327" 
d="M1214 502l-6 -84h-907q0 -86 102 -180q101 -95 271 -95q125 0 205 47q66 40 92 72l8 14h207q-6 -15 -13 -31q-13 -23 -49 -71q-39 -51 -91 -91q-50 -39 -147 -71q-92 -32 -212 -32q-249 0 -404 142q-157 142 -157 380q0 236 156 379q155 143 395 143q238 0 395 -143
q155 -143 155 -379zM930 765q-100 95 -266 95q-168 0 -266 -95q-99 -95 -99 -187h729q0 92 -98 187zM362 1266q0 43 29 67.5t78 24.5t76.5 -24.5t27.5 -67.5q0 -97 -104 -99q-107 2 -107 99zM752 1266q0 43 28.5 67.5t77.5 24.5t77 -24.5t28 -67.5q0 -98 -105 -99
q-106 1 -106 99z" />
    <glyph glyph-name="uni0452" unicode="&#x452;" horiz-adv-x="1337" 
d="M254 1098h-254v159h254v177h176v-177h389v-159h-389v-353h10q9 25 42 61q26 30 60 54q36 25 100 42.5t138 17.5q186 0 305 -117t119 -348v-510q0 -194 -86 -284.5t-252 -90.5q-47 0 -121 16l-18 6v154q48 -23 102 -22q101 0 151 51q48 51 48 192v447q0 342 -299 342
q-147 0 -223 -93q-76 -94 -76 -249v-414h-176v1098z" />
    <glyph glyph-name="uni0453" unicode="&#x453;" horiz-adv-x="1001" 
d="M659 1167h-163l307 328h227zM154 0v1004h807v-160h-631v-844h-176z" />
    <glyph glyph-name="uni0454" unicode="&#x454;" horiz-adv-x="1308" 
d="M299 582h408v-160h-408q0 -32 22 -76.5t62 -88.5q44 -49 118 -80.5t163 -31.5q84 0 152.5 25t105.5 63q69 71 86 132l6 26h182q0 -112 -119 -249q-59 -68 -168 -114q-108 -46 -245 -46q-240 0 -395 143q-156 143 -156 379t156 378q154 142 395 142q137 0 245 -46
q111 -47 168 -113q119 -137 119 -251h-182q-10 43 -34 85q-25 43 -58 75q-38 36 -106.5 61t-151.5 25q-87 0 -162.5 -30.5t-118.5 -78.5q-84 -93 -84 -169z" />
    <glyph glyph-name="uni0455" unicode="&#x455;" horiz-adv-x="1204" 
d="M911 297q0 59 -57 91q-59 33 -143 37q-87 5 -187 18q-108 13 -188 31q-86 18 -143 81q-58 62 -58 166q0 151 129 228q129 75 334 75q208 0 336 -84q127 -84 127 -264h-180q0 94 -67.5 139t-215.5 45q-283 0 -283 -139q0 -57 58 -87q58 -31 143 -35q79 -4 188 -17
q103 -14 187 -33q85 -21 144 -84q57 -65 57 -168q0 -112 -71 -186q-70 -73 -176 -102q-103 -29 -243 -29q-293 0 -418 144q-71 82 -71 204v32h180v-32q0 -184 309 -184q309 -2 309 153z" />
    <glyph glyph-name="uni0456" unicode="&#x456;" horiz-adv-x="507" 
d="M166 1004h176v-1004h-176v1004zM333 1427q29 -29 29 -71t-29 -71q-29 -28 -79 -28t-79 28q-30 29 -30 71t30 71q30 27 79 27t79 -27z" />
    <glyph glyph-name="uni0457" unicode="&#x457;" horiz-adv-x="483" 
d="M154 1004h176v-1004h-176v1004zM-59 1266q0 43 28.5 67.5t77.5 24.5t77 -24.5t28 -67.5q0 -98 -105 -99q-106 1 -106 99zM330 1266q0 43 28.5 67.5t77.5 24.5t77 -24.5t28 -67.5q0 -98 -105 -99q-106 1 -106 99z" />
    <glyph glyph-name="uni0458" unicode="&#x458;" horiz-adv-x="507" 
d="M178 1004h176v-1059q0 -195 -85 -285t-253 -90q-45 0 -122 16l-17 6v154q49 -23 103 -22q102 0 150 51t48 192v1037zM345 1427q30 -29 30 -71t-30 -71q-29 -28 -79 -28t-78 28q-30 29 -30 71t30 71q28 27 78 27q49 0 79 -27z" />
    <glyph glyph-name="uni0459" unicode="&#x459;" horiz-adv-x="1777" 
d="M229 406l95 598h704v-332h186q451 0 451 -336t-451 -336h-362v844h-379l-67 -438q-35 -242 -104 -334t-191 -92q-48 0 -86 12l-15 6v168q33 -12 68 -12q76 0 109 79q22 52 42 173zM1426 198q59 44 59 138t-59 138q-61 44 -212 44h-186v-364h186q151 0 212 44z" />
    <glyph glyph-name="uni045A" unicode="&#x45a;" horiz-adv-x="1814" 
d="M1602 545q100 -82 100 -231q0 -150 -100 -232t-302 -82h-409v467h-561v-467h-176v1004h176v-377h561v377h176v-377h233q202 0 302 -82zM1067 160h233q222 0 222 154q0 153 -222 153h-233v-307z" />
    <glyph glyph-name="uni045B" unicode="&#x45b;" horiz-adv-x="1347" 
d="M254 1098h-254v159h254v177h176v-177h389v-159h-389v-353h10q9 25 42 61q26 30 60 54q36 25 100 42.5t138 17.5q186 0 305 -117t119 -348v-455h-176v414q0 342 -299 342q-147 0 -223 -93q-76 -94 -76 -249v-414h-176v1098z" />
    <glyph glyph-name="uni045C" unicode="&#x45c;" horiz-adv-x="1138" 
d="M1139 0h-234l-565 500v-500h-176v1004h176v-490l530 490h230l-537 -494zM686 1167h-164l307 328h228z" />
    <glyph glyph-name="uni045E" unicode="&#x45e;" horiz-adv-x="1161" 
d="M793 1208q-73 -61 -209 -61t-209 61q-74 60 -74 164h141q0 -109 142 -108q141 0 141 108h141q0 -104 -73 -164zM20 1004h189l389 -807h6l346 807h191l-463 -1061q-88 -205 -162 -289t-221 -84q-81 0 -123 16l-16 4v154q52 -20 123 -20q81 0 124 51q42 49 89 168l14 37z
" />
    <glyph glyph-name="uni045F" unicode="&#x45f;" horiz-adv-x="1269" 
d="M723 -256h-176v256h-393v1004h176v-844h610v844h176v-1004h-393v-256z" />
    <glyph glyph-name="uni0490" unicode="&#x490;" horiz-adv-x="1257" 
d="M1024 1741h193v-479h-840v-1262h-193v1434h840v307z" />
    <glyph glyph-name="uni0491" unicode="&#x491;" horiz-adv-x="980" 
d="M154 0v1004h630v245h177v-405h-631v-844h-176z" />
    <glyph glyph-name="uni1E9E" unicode="&#x1e9e;" horiz-adv-x="1626" 
d="M721 1434h506v-164q-104 0 -191 -75q-88 -75 -88 -171q0 -87 62 -143q63 -57 148 -86q91 -33 175 -70q88 -39 150 -122q61 -82 61 -214q0 -177 -127 -292q-127 -117 -360 -117q-229 0 -360 108q-132 106 -132 309h201q0 -242 289 -241q288 0 288 237q0 71 -42 122.5
t-112 79.5q-50 19 -143 59q-75 31 -143 68q-68 36 -111 109q-44 73 -44 175q0 81 37 143q36 63 73 88l37 25v8h-174q-179 0 -267 -77q-87 -77 -87 -265v-928h-193v928q0 266 134 386q133 120 413 120z" />
    <glyph glyph-name="endash" unicode="&#x2013;" horiz-adv-x="1400" 
d="M102 602h1196v-156h-1196v156z" />
    <glyph glyph-name="emdash" unicode="&#x2014;" horiz-adv-x="1794" 
d="M102 602h1590v-156h-1590v156z" />
    <glyph glyph-name="quoteleft" unicode="&#x2018;" horiz-adv-x="430" 
d="M229 1454v-174q0 -34 14.5 -53t35.5 -22q20 -3 34.5 -27t14.5 -66q0 -117 -113 -117q-111 0 -113 135q0 150 36 237t91 87z" />
    <glyph glyph-name="quoteright" unicode="&#x2019;" horiz-adv-x="430" 
d="M201 995v174q0 34 -14.5 53t-34.5 22q-21 3 -35.5 27t-14.5 66q0 117 113 117q111 0 113 -135q0 -150 -36 -237t-91 -87z" />
    <glyph glyph-name="quotesinglbase" unicode="&#x201a;" horiz-adv-x="430" 
d="M201 -266v174q0 34 -14.5 53t-34.5 22q-21 3 -35.5 27t-14.5 66q0 117 113 117q112 0 113 -136q0 -150 -36 -236.5t-91 -86.5z" />
    <glyph glyph-name="quotedblleft" unicode="&#x201c;" horiz-adv-x="788" 
d="M588 1454v-174q0 -34 14 -53t35 -22q20 -3 34.5 -27t14.5 -66q0 -117 -113 -117q-111 0 -112 135q0 150 36 237t91 87zM229 1454v-174q0 -34 14.5 -53t35.5 -22q20 -3 34.5 -27t14.5 -66q0 -117 -113 -117q-111 0 -113 135q0 150 36 237t91 87z" />
    <glyph glyph-name="quotedblright" unicode="&#x201d;" horiz-adv-x="706" 
d="M160 995v174q0 34 -14.5 53t-34.5 22q-21 3 -35.5 27t-14.5 66q0 117 113 117q112 0 113 -135q0 -150 -36 -237t-91 -87zM518 995v174q0 34 -14.5 53t-34.5 22t-34.5 27t-14.5 66q0 117 112 117t113 -135q0 -150 -36 -237t-91 -87z" />
    <glyph glyph-name="quotedblbase" unicode="&#x201e;" horiz-adv-x="788" 
d="M201 -266v174q0 34 -14.5 53t-34.5 22q-21 3 -35.5 27t-14.5 66q0 117 113 117q112 0 113 -136q0 -150 -36 -236.5t-91 -86.5zM559 -266v174q0 34 -14.5 53t-34.5 22t-34.5 27t-14.5 66q0 117 112 117t113 -136q0 -150 -36 -236.5t-91 -86.5z" />
    <glyph glyph-name="dagger" unicode="&#x2020;" horiz-adv-x="1032" 
d="M586 639q0 -147 -12 -408q-16 -302 -25 -450l-14 -189h-37q-50 708 -52 1047q0 71 14 155q14 80 27 126l13 45h16h16q54 -162 54 -326zM571 1014v33q156 59 252 59q106 0 107 -76q0 -76 -107 -76q-43 0 -106 15q-65 13 -105 30zM532 1096h-32q-58 154 -60 252
q0 106 76 106t76 -106q0 -43 -15 -106q-17 -64 -30 -105zM420 1061l41 -14v-33q-155 -58 -252 -60q-106 0 -106 76q-1 38 26 57t80 19q40 0 107 -14q67 -16 104 -31z" />
    <glyph glyph-name="daggerdbl" unicode="&#x2021;" horiz-adv-x="1032" 
d="M547 229l-15 -49h-32q-59 185 -60 344q0 75 16 158q14 81 29 137l15 49h32q59 -185 60 -344q0 -72 -15 -157q-17 -85 -30 -138zM420 1061l41 -14v-33q-155 -58 -252 -60q-106 0 -106 76q-1 38 26 57t80 19q40 0 107 -14q67 -16 104 -31zM420 47l41 -14v-33
q-156 -59 -252 -59q-106 0 -106 76q-1 37 26 56t80 19q43 0 107 -15q65 -17 104 -30zM485 -90l15 41h32q58 -155 60 -252q0 -106 -76 -107q-76 0 -76 107q0 45 16 106q14 60 29 105zM612 -14l-41 14v33q156 59 252 59q105 0 107 -75q0 -76 -107 -76q-43 0 -106 15
q-65 15 -105 30zM571 1014v33q156 59 252 59q106 0 107 -76q0 -76 -107 -76q-43 0 -106 15q-65 13 -105 30zM532 1096h-32q-58 154 -60 252q0 106 76 106t76 -106q0 -43 -15 -106q-17 -64 -30 -105z" />
    <glyph glyph-name="bullet" unicode="&#x2022;" horiz-adv-x="768" 
d="M215 573q0 74 46 116t126 42q78 0 122 -42t44 -116q0 -76 -44 -119.5t-122 -43.5q-80 0 -126 43.5t-46 119.5z" />
    <glyph glyph-name="ellipsis" unicode="&#x2026;" horiz-adv-x="1249" 
d="M132 8q-30 27 -30 78q0 50 30 79q29 28 83 28t83 -28q30 -29 30 -79q0 -51 -30 -78q-29 -28 -83 -28t-83 28zM542 8q-30 27 -30 78q0 50 30 79q28 28 83 28q54 0 83 -28q29 -29 29 -79q0 -51 -29 -78q-29 -28 -83 -28q-55 0 -83 28zM952 8q-30 27 -30 78q0 50 30 79
q28 28 82 28t83 -28q30 -28 30 -79t-30 -78q-29 -28 -83 -28t-82 28z" />
    <glyph glyph-name="perthousand" unicode="&#x2030;" horiz-adv-x="2383" 
d="M170 881q-88 89 -88 242q0 152 88 241q88 90 238 90q148 0 237 -90q88 -89 88 -241q0 -153 -88 -242q-89 -90 -237 -90q-150 0 -238 90zM1450 553q88 -89 88 -241q0 -153 -88 -242q-88 -90 -237 -90t-238 90q-88 89 -88 242q0 152 88 241q89 90 238 90t237 -90zM438 0
h-188l983 1434h188zM1088 456q-46 -58 -46 -145q0 -86 46 -144q45 -58 125 -58q79 0 124 58q45 59 45 144q0 87 -45 145t-124 58q-80 0 -125 -58zM533 978q45 58 45 144t-45 145q-46 58 -125 58q-80 0 -125 -58q-45 -59 -45 -145t45 -144t125 -58q79 0 125 58zM2214 553
q88 -89 88 -241q0 -153 -88 -242q-88 -90 -237 -90t-238 90q-88 89 -88 242q0 152 88 241q89 90 238 90t237 -90zM1851 456q-45 -59 -45 -145q0 -85 45 -144q45 -58 125 -58t125 58q45 59 45 144q0 87 -45 145t-125 58t-125 -58z" />
    <glyph glyph-name="guilsinglleft" unicode="&#x2039;" horiz-adv-x="602" 
d="M541 115h-193l-287 381l287 381h193l-287 -381z" />
    <glyph glyph-name="guilsinglright" unicode="&#x203a;" horiz-adv-x="602" 
d="M254 877l287 -381l-287 -381h-193l287 381l-287 381h193z" />
    <glyph glyph-name="fraction" unicode="&#x2044;" horiz-adv-x="391" 
d="M-213 0h-166l983 1434h166z" />
    <glyph glyph-name="uni2070" unicode="&#x2070;" horiz-adv-x="839" 
d="M153 953q-102 113 -102 297t102 297q100 112 267 112t267 -112q101 -113 101 -297t-101 -297t-267 -113t-267 113zM575 1050q54 74 54 199t-54 200q-55 75 -155 75q-101 0 -155 -75t-54 -200t54 -199q54 -75 155 -75q100 0 155 75z" />
    <glyph glyph-name="uni2074" unicode="&#x2074;" horiz-adv-x="778" 
d="M621 860h-156v164h-445v139l443 475h158v-479h116v-135h-116v-164zM195 1163v-4h270v293h-4z" />
    <glyph glyph-name="uni2075" unicode="&#x2075;" horiz-adv-x="790" 
d="M548 1012q46 37 46 98q0 60 -51 101q-50 40 -137 40q-54 0 -96.5 -14t-55.5 -33l-10 -16h-156v450h612v-135h-456v-168q50 49 186 49q147 0 234 -75q86 -77 86 -199q0 -129 -83.5 -199.5t-250.5 -70.5q-93 0 -164 23t-102 59q-64 72 -64 127l-2 24h158q0 -3 2 -10
t12 -23.5t26 -30.5q43 -34 134 -34q86 0 132 37z" />
    <glyph glyph-name="uni2076" unicode="&#x2076;" horiz-adv-x="833" 
d="M741 1458l4 -24h-139q1 1 -3 9.5t-16 22.5t-30 26q-51 32 -133 32q-98 0 -152.5 -66t-54.5 -180h4q3 5 20 26q14 16 74 42q61 26 142 26q145 0 235 -75q90 -77 90 -187q0 -116 -96 -193q-97 -77 -254 -77q-174 0 -272 105q-99 103 -99 284v12q0 193 95 306
q94 112 268 112q80 0 145 -22.5t98 -57.5q66 -69 74 -121zM434 1237q-82 0 -136 -36t-54 -93q0 -61 54 -97t136 -36q86 0 137.5 37.5t51.5 95.5t-51 93.5t-138 35.5z" />
    <glyph glyph-name="uni2077" unicode="&#x2077;" horiz-adv-x="643" 
d="M262 860h-172l361 643h-431v135h603v-135z" />
    <glyph glyph-name="uni2078" unicode="&#x2078;" horiz-adv-x="815" 
d="M662 903q-93 -63 -254 -63q-162 0 -254 63q-93 61 -93 164q0 73 46 122q46 51 90 64l43 17v4q-36 13 -52 22q-26 14 -45 30q-22 19 -37.5 51.5t-15.5 66.5q0 93 81 154q80 61 237 61q156 0 236 -61q81 -61 81 -154q0 -59 -37 -102q-38 -45 -74 -56l-39 -12v-4
q24 -7 62 -25q30 -16 55 -36q26 -23 44 -61.5t18 -80.5q0 -102 -92 -164zM221 1085q0 -112 187 -112q186 0 186 112q0 51 -47.5 82t-138.5 31q-92 0 -139.5 -30.5t-47.5 -82.5zM289 1496q-39 -28 -39 -66.5t37 -67.5q38 -29 121 -29t121 29q36 29 36 68t-39 66
q-38 28 -118 28q-81 0 -119 -28z" />
    <glyph glyph-name="uni2079" unicode="&#x2079;" horiz-adv-x="833" 
d="M68 1044l-5 25h140q0 -1 1.5 -5t6 -10.5t13.5 -16.5q14 -18 33 -29q49 -33 142 -33q104 0 160.5 65.5t56.5 180.5h-4q-6 -11 -19 -25q-13 -16 -73 -43q-62 -27 -143 -27q-146 0 -235 76q-91 76 -91 187q0 118 97 194q95 76 253 76q174 0 273 -104q98 -106 98 -285v-13
q0 -193 -96 -305t-277 -112q-83 0 -150 23t-101 58q-71 71 -80 123zM399 1262q81 0 137 36q54 34 54 93q0 61 -54 97q-56 36 -137 36q-86 0 -137 -37.5t-51 -95.5t50.5 -93.5t137.5 -35.5z" />
    <glyph glyph-name="uni2080" unicode="&#x2080;" horiz-adv-x="839" 
d="M153 -113q-102 113 -102 298t102 297q100 112 267 112t267 -112q101 -113 101 -297q0 -185 -101 -298q-100 -112 -267 -112t-267 112zM575 -16q54 75 54 200t-54 200q-55 75 -155 75q-101 0 -155 -75t-54 -200t54 -200q54 -74 155 -74q99 0 155 74z" />
    <glyph glyph-name="uni2081" unicode="&#x2081;" horiz-adv-x="548" 
d="M229 391l-188 -162v191l180 153h164v-778h-156v596z" />
    <glyph glyph-name="uni2082" unicode="&#x2082;" horiz-adv-x="808" 
d="M739 -205h-678v99q0 99 55 160q54 61 133 88q92 29 157 47q76 19 132 54q54 33 54 93q0 123 -170 123q-84 0 -128 -36t-44 -97v-19h-156v19q0 126 85.5 197t242.5 71q155 0 241 -69q85 -70 85 -181q0 -94 -54 -154t-132 -86q-79 -26 -154 -44q-78 -20 -132 -48
q-55 -30 -55 -82h518v-135z" />
    <glyph glyph-name="uni2083" unicode="&#x2083;" horiz-adv-x="811" 
d="M492 438h-404v135h621v-133l-277 -153v-2h27q145 0 218 -72t73 -178q0 -119 -90 -190q-91 -70 -254 -70q-167 0 -256 70t-89 190v26h156v-26q0 -57 48 -91t141 -34q188 0 188 125q0 66 -44 94.5t-144 28.5h-205v123l291 155v2z" />
    <glyph glyph-name="uni2084" unicode="&#x2084;" horiz-adv-x="778" 
d="M621 -205h-156v164h-445v139l443 475h158v-479h116v-135h-116v-164zM195 98v-4h270v293h-4z" />
    <glyph glyph-name="uni2085" unicode="&#x2085;" horiz-adv-x="780" 
d="M548 -53q46 37 46 98t-51 101q-50 40 -137 40q-54 0 -96.5 -14t-55.5 -33l-10 -16h-156v450h612v-135h-456v-168q50 49 186 49q147 0 234 -75q86 -77 86 -199q0 -129 -83.5 -199.5t-250.5 -70.5q-93 0 -164 22.5t-102 58.5q-64 72 -64 128l-2 24h158q0 -3 2 -10t12 -23.5
t26 -31.5q42 -33 134 -33q86 0 132 37z" />
    <glyph glyph-name="uni2086" unicode="&#x2086;" horiz-adv-x="833" 
d="M741 393l4 -24h-139q1 1 -3 9.5t-16 22.5t-30 26q-51 32 -133 32q-98 0 -152.5 -66t-54.5 -180h4q3 5 20 26q14 16 74 42q61 26 142 26q145 0 235 -75q90 -76 90 -187q0 -117 -96 -194q-95 -76 -254 -76q-174 0 -272 104q-99 105 -99 285v12q0 193 95 306q94 112 268 112
q80 0 145 -22.5t98 -57.5q66 -69 74 -121zM434 172q-82 0 -136 -36t-54 -93q0 -61 54 -97t136 -36q86 0 137.5 37.5t51.5 95.5t-51 93.5t-138 35.5z" />
    <glyph glyph-name="uni2087" unicode="&#x2087;" horiz-adv-x="643" 
d="M262 -205h-172l361 643h-431v135h603v-135z" />
    <glyph glyph-name="uni2088" unicode="&#x2088;" horiz-adv-x="815" 
d="M662 -163q-94 -62 -254 -62q-162 0 -254 62q-93 63 -93 165q0 73 46 122q46 51 90 64l43 17v4q-36 13 -52 22q-27 14 -45 31q-22 19 -37.5 51t-15.5 66q0 93 81 154q80 61 237 61q156 0 236 -61q81 -61 81 -154q0 -59 -37 -102q-38 -45 -74 -56l-39 -12v-4q24 -7 62 -25
q30 -16 55 -36q26 -23 44 -61.5t18 -80.5q0 -102 -92 -165zM221 20q0 -112 187 -112q186 0 186 112q0 51 -47.5 82t-138.5 31q-92 0 -139.5 -30.5t-47.5 -82.5zM289 431q-39 -28 -39 -66.5t37 -67.5q38 -29 121 -29t121 29q36 29 36 68t-39 66q-38 28 -118 28
q-81 0 -119 -28z" />
    <glyph glyph-name="uni2089" unicode="&#x2089;" horiz-adv-x="833" 
d="M68 -20l-5 24h140q0 -1 1.5 -5.5t6 -11t13.5 -16.5q12 -14 33 -29q50 -32 142 -32q104 0 160.5 65.5t56.5 180.5h-4q-6 -11 -19 -25q-13 -16 -73 -43q-62 -27 -143 -27q-146 0 -235 76q-91 76 -91 187q0 118 97 194q95 76 253 76q174 0 273 -104q98 -106 98 -285v-12
q0 -193 -96 -306q-96 -112 -277 -112q-83 0 -150 22.5t-101 57.5q-72 73 -80 125zM399 197q81 0 137 36q54 35 54 93q0 61 -54 97q-56 36 -137 36q-86 0 -137 -37.5t-51 -95.5t50.5 -93.5t137.5 -35.5z" />
    <glyph glyph-name="Euro" unicode="&#x20ac;" horiz-adv-x="1765" 
d="M225 793h-164v139h185q0 3 1 7.5t3 11t3 11.5q4 17 27 74q43 112 136 213q58 63 127 105t170 71q105 29 225 29q177 0 319 -62q141 -64 218 -157q157 -191 157 -365h-198q-1 2 -2.5 11.5t-6 26.5t-12.5 42q-29 87 -94 166q-80 98 -214 139q-78 23 -167 23
q-110 0 -202 -36q-91 -36 -141 -86q-104 -104 -132 -189l-10 -35h452v-139h-479q-4 -28 -4 -76l4 -76h479v-139h-452q2 -6 12 -38q7 -23 44 -83q37 -61 85 -104q48 -45 140 -83q93 -38 204 -38q122 0 220 42t147 102q100 122 120 220l9 43h198q0 -172 -157 -364
q-79 -96 -218 -157q-142 -62 -319 -62q-120 0 -225 28t-175 75q-69 46 -124 103q-37 39 -66 80.5t-49.5 86.5t-27 63t-19.5 57l-6 29h-185v139h164q-4 25 -4 76z" />
    <glyph glyph-name="uni20B4" unicode="&#x20b4;" horiz-adv-x="1370" 
d="M1227 678v-129h-719q-27 -10 -56 -31q-25 -17 -49 -43q-57 -63 -57 -145q0 -98 85 -142.5t257 -44.5q177 0 259.5 61t82.5 202h184q0 -223 -128 -324.5t-398 -101.5q-526 0 -526 333q0 71 29 131q28 57 57 80l28 25h-133v129h1084zM1227 911v-129h-1084v129h723
q15 8 35 24q23 16 56 67q34 50 34 108q0 87 -80 133.5t-221 46.5q-301 0 -301 -215h-184q0 379 485 379q236 0 361 -84.5t125 -239.5q0 -67 -25 -121q-26 -56 -49 -75l-23 -23h148z" />
    <glyph glyph-name="uni20BD" unicode="&#x20bd;" horiz-adv-x="1419" 
d="M238 549h-177v172h177v713h464q281 0 427.5 -111.5t146.5 -331.5t-146.5 -331t-427.5 -111h-272v-143h512v-173h-512v-233h-192v233h-177v173h177v143zM430 1262v-541h272q373 0 373 271q0 270 -373 270h-272z" />
    <glyph glyph-name="uni2116" unicode="&#x2116;" horiz-adv-x="2349" 
d="M1311 0h-299l-629 1210h-6v-1210h-193v1434h299l629 -1211h6v1211h193v-1434zM2206 459h-647v139h647v-139zM2134 846q-92 -96 -252 -96t-252 96q-92 97 -92 256t92 256q92 96 252 96t252 -96q92 -97 92 -256t-92 -256zM2017 1256q-49 55 -135 55t-135 -55t-49 -154
q0 -98 49 -153q50 -56 135 -56t135 56q49 55 49 153q0 99 -49 154z" />
    <glyph glyph-name="trademark" unicode="&#x2122;" horiz-adv-x="1570" 
d="M1298 1257l-110 -268h-197l-110 268h-4v-438h-156v615h250l116 -312h5l116 312h250v-615h-155v438h-5zM254 1294h-213v140h582v-140h-213v-475h-156v475z" />
    <glyph glyph-name="minus" unicode="&#x2212;" horiz-adv-x="1138" 
d="M102 616h934v-155h-934v155z" />
    <glyph glyph-name="uniF6C3" unicode="&#xf6c3;" horiz-adv-x="331" 
d="M150 -567v143q0 27 -12.5 39t-33 20t-29.5 21q-14 19 -14 55q0 37 29 60q28 24 72 24q110 0 108 -141q-4 -90 -45 -156q-42 -65 -75 -65z" />
    <glyph glyph-name="uniF6D1" unicode="&#xf6d1;" horiz-adv-x="819" 
d="M668 1688q-89 -70 -258 -70t-258 70q-91 69 -91 202v13h156v-13q0 -137 193 -137q192 0 192 137v13h156v-13q0 -133 -90 -202z" />
    <glyph glyph-name="uniF6D4" unicode="&#xf6d4;" horiz-adv-x="688" 
d="M553 1208q-73 -61 -209 -61t-209 61q-74 60 -74 164h142q0 -110 141 -108q141 0 141 108h142q0 -104 -74 -164z" />
    <glyph glyph-name="uniF6F4" unicode="&#xf6f4;" horiz-adv-x="561" 
d="M184 0v1434h193v-1434h-193zM483 1618l-200 252l-201 -252h-172l268 328h209l268 -328h-172z" />
    <glyph glyph-name="uniF6F5" unicode="&#xf6f5;" horiz-adv-x="561" 
d="M184 0v1434h193v-1434h-193zM-16 1747q0 43 28.5 67.5t77.5 24.5t77 -24.5t28 -67.5q0 -98 -105 -98q-106 0 -106 98zM373 1747q0 43 28.5 67.5t77.5 24.5t77 -24.5t28 -67.5q0 -98 -105 -98q-106 0 -106 98z" />
    <glyph glyph-name="uniF6F6" unicode="&#xf6f6;" horiz-adv-x="561" 
d="M184 0v1434h193v-1434h-193zM-168 1946h227l308 -328h-164z" />
    <glyph glyph-name="uniF730" unicode="&#xf730;" horiz-adv-x="1206" 
d="M241 127q-139 146 -139 375q0 227 139 375q138 147 357 147q218 0 358 -147q138 -149 138 -375q0 -228 -138 -375q-140 -147 -358 -147q-219 0 -357 147zM831 249q82 104 82 253q0 147 -82 253q-83 105 -232 105q-151 0 -233 -105q-83 -107 -83 -253q0 -147 83 -253
q82 -106 233 -106q150 0 232 106z" />
    <glyph glyph-name="uniF731" unicode="&#xf731;" horiz-adv-x="608" 
d="M279 791l-228 -189v215l230 187h174v-1004h-176v791z" />
    <glyph glyph-name="uniF732" unicode="&#xf732;" horiz-adv-x="1140" 
d="M1044 0h-962v123q0 95 42 166.5t114 109.5q117 62 321 106q71 14 119 27.5t95.5 35.5t71 54.5t23.5 75.5q0 87 -70 124.5t-212 37.5q-134 0 -209.5 -44.5t-75.5 -129.5v-35h-176v35q0 164 127 251q128 87 334 87q208 0 336 -80q127 -79 127 -237q0 -119 -81 -197
q-82 -79 -197 -113q-115 -35 -231 -60q-115 -25 -197 -68q-81 -42 -81 -109h782v-160z" />
    <glyph glyph-name="uniF733" unicode="&#xf733;" horiz-adv-x="1101" 
d="M530 -266q146 0 229 84q81 84 81 219q0 143 -79 220t-231 77h-303v158l478 346v6h-619v160h870v-160l-471 -344v-6h45q224 0 358 -119q132 -118 132 -338q0 -215 -135 -341t-355 -126q-216 0 -353 122q-136 121 -136 335h180q0 -134 82 -213q83 -80 227 -80z" />
    <glyph glyph-name="uniF734" unicode="&#xf734;" horiz-adv-x="1116" 
d="M897 -410h-176v410h-680v170l608 834h248v-844h188v-160h-188v-410zM721 840h-4l-488 -676v-4h492v680z" />
    <glyph glyph-name="uniF735" unicode="&#xf735;" horiz-adv-x="1204" 
d="M643 555q217 0 348 -131t131 -361q0 -223 -136 -358q-137 -135 -353 -135q-215 0 -352 123q-138 123 -138 334h181q0 -131 83 -212t226 -81q147 0 228 93t81 236q0 153 -79 242q-80 90 -230 90q-131 0 -208 -57q-60 -46 -83 -90l-8 -17h-176v773h878v-160h-702v-393h4
q18 18 46 37q27 17 61 31q91 36 198 36z" />
    <glyph glyph-name="uniF736" unicode="&#xf736;" horiz-adv-x="1245" 
d="M637 1290q-88 0 -158 -51t-108 -135q-74 -165 -74 -334h8q12 26 47 63q27 30 66 55q40 26 107.5 44t140.5 18q221 0 344 -139q123 -140 123 -344q0 -207 -131 -347q-132 -140 -365 -140q-242 0 -378 178t-136 454v62q0 308 113 533q58 116 162 181.5t239 65.5
q109 0 196 -34.5t130 -88.5q90 -111 98 -188l6 -37h-170q0 23 -22 65q-15 29 -42 56q-28 26 -80 44.5t-116 18.5zM870 240q82 95 82 227q0 130 -83 225q-82 94 -236 94q-140 0 -223 -92q-82 -91 -82 -227q0 -132 82 -227q82 -97 223 -97q155 0 237 97z" />
    <glyph glyph-name="uniF737" unicode="&#xf737;" horiz-adv-x="1013" 
d="M377 -410h-193l572 1254h-725v160h911v-177z" />
    <glyph glyph-name="uniF738" unicode="&#xf738;" horiz-adv-x="1257" 
d="M147 1061q0 174 131 284q130 109 351 109t351 -109t130 -284q0 -67 -21.5 -124.5t-55.5 -91.5q-67 -67 -115 -85l-23 -8v-4q33 -8 90 -41q46 -28 80 -63q38 -39 64 -105t26 -142q0 -188 -141 -302q-142 -115 -385 -115q-245 0 -385 115q-142 114 -142 302q0 77 26 143
t67 104q82 77 141 95l26 9v4q-24 6 -74 38q-37 22 -65 55q-31 36 -53.5 93.5t-22.5 122.5zM375 212q91 -69 254 -69t254 69q92 69 92 186q0 115 -89 189q-88 72 -257 72t-257 -72q-89 -74 -89 -189q0 -117 92 -186zM850 891q80 68 80 170q0 101 -81 166q-81 63 -220 63
q-141 0 -220 -63q-81 -65 -81 -166q0 -102 80 -170t221 -68t221 68z" />
    <glyph glyph-name="uniF739" unicode="&#xf739;" horiz-adv-x="1234" 
d="M606 -266q97 0 167 47t104 130q61 153 61 322h-8q-10 -23 -46 -62q-33 -35 -67 -55q-40 -26 -107.5 -44.5t-140.5 -18.5q-221 0 -344 140q-123 139 -123 344q0 207 132 347q131 140 364 140q242 0 378 -178t136 -455v-61q0 -310 -100 -521q-55 -114 -158.5 -176.5
t-247.5 -62.5q-115 0 -206 35.5t-138 91.5q-43 51 -71.5 105t-34.5 92l-6 36h169q9 -35 28 -68q18 -35 46 -60q30 -28 86.5 -48t126.5 -20zM366 764q-83 -97 -83 -227t83 -225t236 -95q140 0 223 92q82 91 82 228q0 132 -82 227q-83 96 -223 96q-154 0 -236 -96z" />
    <glyph glyph-name="uniF7A8" unicode="&#xf7a8;" horiz-adv-x="561" 
d="M369 -182h118q0 -160 -202 -160q-203 0 -203 160q0 50 34 94q36 47 59 62q26 20 40 26h-31v1434h193v-1434q-2 -1 -9.5 -4.5t-20.5 -11t-31 -18.5q-30 -19 -53 -40q-62 -56 -62 -108q0 -63 84 -63t84 63z" />
    <glyph glyph-name="uniF7B4" unicode="&#xf7b4;" horiz-adv-x="561" 
d="M184 0v1434h193v-1434h-193zM358 1618h-163l307 328h227z" />
    <glyph glyph-name="uniF7B8" unicode="&#xf7b8;" horiz-adv-x="561" 
d="M184 0v1434h193v-1434h-193zM354 1818q29 -29 29 -71q0 -43 -29 -70q-29 -28 -79 -28q-51 0 -79 28q-30 27 -30 70t30 71q29 27 79 27q49 0 79 -27z" />
    <glyph glyph-name="uniFB06" unicode="&#xfb06;" horiz-adv-x="2082" 
d="M911 297q0 59 -57 91q-59 33 -143 37q-87 5 -187 18q-108 13 -188 31q-86 18 -143 81q-58 62 -58 166q0 151 129 228q129 75 334 75q66 0 132 -12q70 -15 97 -25l31 -10q-29 64 -29 164q0 168 102 285q101 116 281 116q209 0 303 -115q93 -115 93 -309v-114h372v-160
h-372v-455q0 -256 225 -256q48 0 93.5 11t66.5 24l18 12v-160q-80 -41 -199 -40q-177 0 -278 97q-102 97 -102 290v477h-168v160h168v81q-5 155 -49 226q-47 71 -160 71q-107 0 -168.5 -70.5t-61.5 -201.5q0 -80 34 -203t34 -231h-180q0 94 -67.5 139t-215.5 45
q-283 0 -283 -139q0 -57 58 -87q58 -31 143 -35q79 -4 188 -17q103 -14 187 -33q85 -21 144 -84q57 -65 57 -168q0 -112 -71 -186q-70 -73 -176 -102q-103 -29 -243 -29q-293 0 -418 144q-71 82 -71 204v32h180v-32q0 -184 309 -184q309 -2 309 153z" />
    <glyph glyph-name="n.ss02" 
d="M1161 0h-176v827l-655 -297v-530h-176v1004h176v-297l655 297h176v-1004z" />
    <glyph glyph-name="r.ss02" horiz-adv-x="903" 
d="M330 707l532 317v-188l-532 -326v-510h-176v1004h176v-297z" />
    <glyph glyph-name="u.ss02" 
d="M154 1004h176v-828l655 297v531h176v-1004h-176v297l-655 -297h-176v1004z" />
    <glyph glyph-name="u.salt" horiz-adv-x="1345" 
d="M1004 119l-9 45h-10q-10 -22 -51 -64q-32 -32 -69 -57q-41 -26 -110 -44.5t-143 -18.5q-199 0 -328 117q-130 115 -130 347v560h176v-519q0 -176 89 -259t238 -83q157 0 243 95q85 94 85 247v519h176v-728q0 -73 20 -104t66 -31q43 0 51 11l7 2v-158q-31 -16 -91 -16
q-93 0 -146 46t-64 93z" />
    <glyph glyph-name="a.salt" horiz-adv-x="1398" 
d="M1038 1004h176v-728q0 -73 20 -104t66 -31q44 0 52 11l6 2v-158q-31 -16 -90 -16t-105 17q-43 16 -67 43q-48 55 -56 91l-2 19h-8q-16 -26 -57 -60q-35 -28 -75 -51q-43 -24 -112.5 -41.5t-140.5 -17.5q-227 0 -379 144q-153 144 -153 378q0 232 153 378q152 144 379 144
q122 0 217 -43t133 -84l35 -43h8v150zM395 759q-102 -102 -102 -257q0 -156 102 -257q101 -102 271 -102q166 0 269 103q103 102 103 256q0 160 -103 259t-269 99q-170 0 -271 -101z" />
    <glyph glyph-name="k.ss02" horiz-adv-x="1187" 
d="M330 496l786 -336v-180l-786 335v-315h-176v1434h176v-748l786 338v-180l-786 -338v-10z" />
    <glyph glyph-name="g.ss02" horiz-adv-x="1308" 
d="M674 -266q172 0 263 101t91 300h-874v869h1073v-160h-207q0 -126 -23.5 -231.5t-60.5 -164.5q-33 -54 -68 -91t-61 -50l-25 -10v-2h426v-160q0 -281 -145 -423t-389 -142q-134 0 -237 44q-102 43 -154 107q-49 61 -81.5 124.5t-41.5 109.5l-6 45h182q11 -49 33 -93
q23 -48 55 -81q36 -38 103.5 -65t146.5 -27zM844 782v62h-514v-549h121q117 0 245 104q67 54 107.5 155t40.5 228z" />
    <glyph glyph-name="a.ss02" horiz-adv-x="1368" 
d="M1038 1004h176v-1004h-176v150h-8q-16 -26 -57 -60q-35 -28 -75 -51q-43 -24 -112.5 -41.5t-140.5 -17.5q-227 0 -379 144q-153 144 -153 378q0 232 153 378q152 144 379 144q122 0 217 -43t133 -84l35 -43h8v150zM395 759q-102 -102 -102 -257q0 -156 102 -257
q101 -102 271 -102q165 0 265 97q101 96 107 245v31q-6 154 -108 249q-104 95 -264 95q-170 0 -271 -101z" />
    <glyph glyph-name="l.salt" horiz-adv-x="579" 
d="M154 313v1121h176v-1088q0 -126 37 -169q36 -44 116 -44q45 0 76 12l10 5v-152q-39 -18 -118 -18q-297 -2 -297 333z" />
    <glyph glyph-name="I.salt" horiz-adv-x="561" 
d="M184 0v1434h193v-1434h-193z" />
    <glyph glyph-name="y.salt" 
d="M985 41v113h-10q-20 -32 -49 -61q-33 -31 -69 -53q-41 -26 -109 -43t-142 -17q-196 0 -323 117q-129 115 -129 347v560h176v-519q0 -176 89 -259t238 -83q157 0 243 95q85 94 85 247v519h176v-963q0 -228 -142 -349q-143 -122 -357 -122q-126 0 -224 34.5t-145 88.5
q-90 102 -103 188l-4 37h183q0 -26 22 -65q16 -30 45 -56q30 -27 90.5 -46t135.5 -19q144 0 233 79q90 80 90 230z" />
    <glyph glyph-name="g.salt" horiz-adv-x="1368" 
d="M1038 1004h176v-949q0 -237 -151 -361t-383 -124q-136 0 -236 36q-102 36 -150 87q-101 108 -110 188l-6 37h184q0 -18 29 -65q19 -31 50 -56q33 -26 97.5 -45.5t141.5 -19.5q159 0 259 83q99 83 99 240v95h-8q-16 -26 -57 -60q-35 -28 -75 -51q-43 -24 -112.5 -41.5
t-140.5 -17.5q-227 0 -379 144q-153 144 -153 378q0 232 153 378q152 144 379 144q122 0 217 -43t133 -84l35 -43h8v150zM395 759q-102 -102 -102 -257q0 -156 102 -257q101 -102 271 -102q165 0 265 97q101 96 107 245v31q-6 154 -108 249q-104 95 -264 95
q-170 0 -271 -101z" />
    <glyph glyph-name="zero.zero" horiz-adv-x="1597" 
d="M319 1247q175 207 480 207t480 -207q175 -206 175 -530q0 -325 -175 -530q-175 -207 -480 -207t-480 207q-176 206 -176 530q0 322 176 530zM344 717q0 -81 13 -149q12 -72 24 -105l14 -33l719 713q-11 18 -49 47q-19 15 -61 41q-86 47 -205 47q-218 0 -336 -157
q-119 -158 -119 -404zM799 156q217 0 336 158q118 157 118 403q0 78 -12 150q-12 71 -24 104l-15 33l-719 -713q10 -16 51 -47q29 -23 62 -41q83 -47 203 -47z" />
    <glyph glyph-name="one.salt" horiz-adv-x="786" 
d="M725 0h-643v172h225v1090h-205v172h398v-1262h225v-172z" />
    <glyph glyph-name="agrave.ss02" horiz-adv-x="1368" 
d="M1038 1004h176v-1004h-176v150h-8q-16 -26 -57 -60q-35 -28 -75 -51q-43 -24 -112.5 -41.5t-140.5 -17.5q-227 0 -379 144q-153 144 -153 378q0 232 153 378q152 144 379 144q122 0 217 -43t133 -84l35 -43h8v150zM395 759q-102 -102 -102 -257q0 -156 102 -257
q101 -102 271 -102q165 0 265 97q101 96 107 245v31q-6 154 -108 249q-104 95 -264 95q-170 0 -271 -101zM223 1536h228l307 -328h-164z" />
    <glyph glyph-name="aacute.ss02" horiz-adv-x="1368" 
d="M1038 1004h176v-1004h-176v150h-8q-16 -26 -57 -60q-35 -28 -75 -51q-43 -24 -112.5 -41.5t-140.5 -17.5q-227 0 -379 144q-153 144 -153 378q0 232 153 378q152 144 379 144q122 0 217 -43t133 -84l35 -43h8v150zM395 759q-102 -102 -102 -257q0 -156 102 -257
q101 -102 271 -102q165 0 265 97q101 96 107 245v31q-6 154 -108 249q-104 95 -264 95q-170 0 -271 -101zM737 1208h-164l308 328h227z" />
    <glyph glyph-name="abreve.ss02" horiz-adv-x="1368" 
d="M1038 1004h176v-1004h-176v150h-8q-16 -26 -57 -60q-35 -28 -75 -51q-43 -24 -112.5 -41.5t-140.5 -17.5q-227 0 -379 144q-153 144 -153 378q0 232 153 378q152 144 379 144q122 0 217 -43t133 -84l35 -43h8v150zM395 759q-102 -102 -102 -257q0 -156 102 -257
q101 -102 271 -102q165 0 265 97q101 96 107 245v31q-6 154 -108 249q-104 95 -264 95q-170 0 -271 -101zM893 1275q-73 -61 -209 -61t-209 61q-74 60 -74 165h142q0 -109 141 -109t141 109h142q0 -103 -74 -165z" />
    <glyph glyph-name="acircumflex.ss02" horiz-adv-x="1368" 
d="M1038 1004h176v-1004h-176v150h-8q-16 -26 -57 -60q-35 -28 -75 -51q-43 -24 -112.5 -41.5t-140.5 -17.5q-227 0 -379 144q-153 144 -153 378q0 232 153 378q152 144 379 144q122 0 217 -43t133 -84l35 -43h8v150zM395 759q-102 -102 -102 -257q0 -156 102 -257
q101 -102 271 -102q165 0 265 97q101 96 107 245v31q-6 154 -108 249q-104 95 -264 95q-170 0 -271 -101zM885 1208l-201 252l-201 -252h-172l269 328h208l269 -328h-172z" />
    <glyph glyph-name="adieresis.ss02" horiz-adv-x="1368" 
d="M1038 1004h176v-1004h-176v150h-8q-16 -26 -57 -60q-35 -28 -75 -51q-43 -24 -112.5 -41.5t-140.5 -17.5q-227 0 -379 144q-153 144 -153 378q0 232 153 378q152 144 379 144q122 0 217 -43t133 -84l35 -43h8v150zM395 759q-102 -102 -102 -257q0 -156 102 -257
q101 -102 271 -102q165 0 265 97q101 96 107 245v31q-6 154 -108 249q-104 95 -264 95q-170 0 -271 -101zM385 1327q0 43 28.5 67.5t78.5 24.5q49 0 76.5 -24.5t27.5 -67.5q0 -98 -104 -98q-107 0 -107 98zM774 1327q0 43 28.5 67.5t78.5 24.5q49 0 76.5 -24.5t27.5 -67.5
q0 -98 -104 -98q-107 0 -107 98z" />
    <glyph glyph-name="amacron.ss02" horiz-adv-x="1368" 
d="M1038 1004h176v-1004h-176v150h-8q-16 -26 -57 -60q-35 -28 -75 -51q-43 -24 -112.5 -41.5t-140.5 -17.5q-227 0 -379 144q-153 144 -153 378q0 232 153 378q152 144 379 144q122 0 217 -43t133 -84l35 -43h8v150zM395 759q-102 -102 -102 -257q0 -156 102 -257
q101 -102 271 -102q165 0 265 97q101 96 107 245v31q-6 154 -108 249q-104 95 -264 95q-170 0 -271 -101zM973 1260h-576v133h576v-133z" />
    <glyph glyph-name="aogonek.ss02" horiz-adv-x="1368" 
d="M1206 -182h119q0 -160 -202 -160q-203 0 -203 160q0 50 34 94q34 47 58 62q25 19 41 26h-15v150h-8q-16 -26 -57 -60q-35 -28 -75 -51q-43 -24 -112.5 -41.5t-140.5 -17.5q-227 0 -379 144q-153 144 -153 378q0 232 153 378q152 144 379 144q122 0 217 -43t133 -84
l35 -43h8v150h176v-1004l-9 -4.5t-20.5 -11t-31.5 -18.5q-30 -19 -53 -40q-62 -56 -62 -108q0 -63 84 -63t84 63zM395 759q-102 -102 -102 -257q0 -156 102 -257q101 -102 271 -102q165 0 265 97q101 96 107 245v31q-6 154 -108 249q-104 95 -264 95q-170 0 -271 -101z" />
    <glyph glyph-name="aring.ss02" horiz-adv-x="1368" 
d="M1038 1004h176v-1004h-176v150h-8q-16 -26 -57 -60q-35 -28 -75 -51q-43 -24 -112.5 -41.5t-140.5 -17.5q-227 0 -379 144q-153 144 -153 378q0 232 153 378q152 144 379 144q122 0 217 -43t133 -84l35 -43h8v150zM395 759q-102 -102 -102 -257q0 -156 102 -257
q101 -102 271 -102q165 0 265 97q101 96 107 245v31q-6 154 -108 249q-104 95 -264 95q-170 0 -271 -101zM838 1220q-56 -53 -154 -53q-97 0 -153 53t-56 136t56 136q55 52 153 52q99 0 154 -52t55 -136t-55 -136zM758 1356q0 74 -74 74t-74 -74t74 -74t74 74z" />
    <glyph glyph-name="atilde.ss02" horiz-adv-x="1368" 
d="M1038 1004h176v-1004h-176v150h-8q-16 -26 -57 -60q-35 -28 -75 -51q-43 -24 -112.5 -41.5t-140.5 -17.5q-227 0 -379 144q-153 144 -153 378q0 232 153 378q152 144 379 144q122 0 217 -43t133 -84l35 -43h8v150zM395 759q-102 -102 -102 -257q0 -156 102 -257
q101 -102 271 -102q165 0 265 97q101 96 107 245v31q-6 154 -108 249q-104 95 -264 95q-170 0 -271 -101zM512 1188q-82 0 -129 40t-47 111l8 76h137q-6 -19 -6 -47q0 -59 64 -59q25 -2 62.5 17.5t72 43.5t85.5 44t99 18q84 0 130 -40t46 -112l-8 -76h-137q6 18 6 47
q0 59 -64 60q-40 0 -134 -61q-95 -62 -185 -62z" />
    <glyph glyph-name="gbreve.ss02" horiz-adv-x="1308" 
d="M674 -266q172 0 263 101t91 300h-874v869h1073v-160h-207q0 -126 -23.5 -231.5t-60.5 -164.5q-33 -54 -68 -91t-61 -50l-25 -10v-2h426v-160q0 -281 -145 -423t-389 -142q-134 0 -237 44q-102 43 -154 107q-49 61 -81.5 124.5t-41.5 109.5l-6 45h182q11 -49 33 -93
q23 -48 55 -81q36 -38 103.5 -65t146.5 -27zM844 782v62h-514v-549h121q117 0 245 104q67 54 107.5 155t40.5 228zM865 1275q-73 -61 -209 -61t-209 61q-74 60 -74 165h141q0 -109 142 -109q141 0 141 109h141q0 -104 -73 -165z" />
    <glyph glyph-name="uni0123.ss02" horiz-adv-x="1308" 
d="M688 1591v-143q0 -26 13 -38t33 -20.5t29 -21.5q13 -17 13 -55t-28 -60q-28 -24 -72 -24q-109 0 -109 141q5 91 46 156q42 65 75 65zM674 -266q172 0 263 101t91 300h-874v869h1073v-160h-207q0 -126 -23.5 -231.5t-60.5 -164.5q-33 -54 -68 -91t-61 -50l-25 -10v-2h426
v-160q0 -281 -145 -423t-389 -142q-134 0 -237 44q-102 43 -154 107q-49 61 -81.5 124.5t-41.5 109.5l-6 45h182q11 -49 33 -93q23 -48 55 -81q36 -38 103.5 -65t146.5 -27zM844 782v62h-514v-549h121q117 0 245 104q67 54 107.5 155t40.5 228z" />
    <glyph glyph-name="uni0137.ss02" horiz-adv-x="1187" 
d="M330 496l786 -336v-180l-786 335v-315h-176v1434h176v-748l786 338v-180l-786 -338v-10zM643 -567v143q0 26 -12.5 38t-32.5 20.5t-29 21.5q-14 19 -14 55q0 37 29 60q28 24 71 24q109 0 109 -141q-5 -91 -46 -156q-42 -65 -75 -65z" />
    <glyph glyph-name="nacute.ss02" 
d="M1161 0h-176v827l-655 -297v-530h-176v1004h176v-297l655 297h176v-1004zM725 1208h-164l307 328h228z" />
    <glyph glyph-name="ncaron.ss02" 
d="M1161 0h-176v827l-655 -297v-530h-176v1004h176v-297l655 297h176v-1004zM287 1536h172l200 -252l201 252h172l-268 -328h-209z" />
    <glyph glyph-name="uni0146.ss02" 
d="M1161 0h-176v827l-655 -297v-530h-176v1004h176v-297l655 297h176v-1004zM653 -567v143q0 26 -12.5 38t-32.5 20.5t-29 21.5q-14 19 -14 55q0 37 29 60q28 24 72 24q110 0 108 -141q-5 -91 -46 -156q-42 -65 -75 -65z" />
    <glyph glyph-name="ntilde.ss02" 
d="M1161 0h-176v827l-655 -297v-530h-176v1004h176v-297l655 297h176v-1004zM487 1188q-82 0 -129 40t-47 111l8 76h138q-6 -19 -6 -47q0 -59 63 -59q25 -2 62.5 17.5t72.5 43.5t86 44t99 18q84 0 130 -40t46 -112l-9 -76h-137q6 18 6 47q0 59 -63 60q-40 0 -134 -61
q-97 -62 -186 -62z" />
    <glyph glyph-name="racute.ss02" horiz-adv-x="903" 
d="M330 707l532 317v-188l-532 -326v-510h-176v1004h176v-297zM584 1208h-164l307 328h227z" />
    <glyph glyph-name="rcaron.ss02" horiz-adv-x="903" 
d="M330 707l532 317v-188l-532 -326v-510h-176v1004h176v-297zM137 1536h172l201 -252l201 252h172l-269 -328h-208z" />
    <glyph glyph-name="uni0157.ss02" horiz-adv-x="903" 
d="M330 707l532 317v-188l-532 -326v-510h-176v1004h176v-297zM227 -567v143q0 26 -12.5 38t-32.5 20.5t-29 21.5q-14 19 -14 55q0 37 29 60q28 24 72 24q110 0 108 -141q-5 -91 -46 -156q-42 -65 -75 -65z" />
    <glyph glyph-name="ugrave.ss02" 
d="M154 1004h176v-828l655 297v531h176v-1004h-176v297l-655 -297h-176v1004zM223 1536h228l307 -328h-164z" />
    <glyph glyph-name="ucircumflex.ss02" 
d="M154 1004h176v-828l655 297v531h176v-1004h-176v297l-655 -297h-176v1004zM858 1208l-201 252l-200 -252h-172l268 328h209l268 -328h-172z" />
    <glyph glyph-name="uacute.ss02" 
d="M154 1004h176v-828l655 297v531h176v-1004h-176v297l-655 -297h-176v1004zM725 1208h-164l307 328h228z" />
    <glyph glyph-name="udieresis.ss02" 
d="M154 1004h176v-828l655 297v531h176v-1004h-176v297l-655 -297h-176v1004zM360 1327q0 43 29 67.5t78 24.5t76.5 -24.5t27.5 -67.5q0 -98 -104 -98q-107 0 -107 98zM750 1327q0 43 28.5 67.5t77.5 24.5t77 -24.5t28 -67.5q0 -98 -105 -98q-106 0 -106 98z" />
    <glyph glyph-name="uhungarumlaut.ss02" 
d="M154 1004h176v-828l655 297v531h176v-1004h-176v297l-655 -297h-176v1004zM541 1208h-129l333 328h179zM881 1208h-127l333 328h191z" />
    <glyph glyph-name="umacron.ss02" 
d="M154 1004h176v-828l655 297v531h176v-1004h-176v297l-655 -297h-176v1004zM946 1260h-575v133h575v-133z" />
    <glyph glyph-name="uogonek.ss02" 
d="M1153 -182h119q0 -160 -203 -160t-203 160q0 50 34 94q36 47 59 62q26 20 40 26h-14v297l-655 -297h-176v1004h176v-828l655 297v531h176v-1004q-2 -1 -9.5 -4.5t-20.5 -11t-31 -18.5q-30 -19 -53 -40q-62 -56 -62 -108q0 -63 84 -63t84 63z" />
    <glyph glyph-name="uring.ss02" 
d="M154 1004h176v-828l655 297v531h176v-1004h-176v297l-655 -297h-176v1004zM811 1220q-56 -53 -153 -53q-98 0 -154 53q-55 52 -55 136t55 136t154 52q98 0 153 -52t55 -136t-55 -136zM731 1356q0 74 -73 74q-74 0 -74 -74t74 -74q73 0 73 74z" />
    <glyph glyph-name="c_t.dlig" horiz-adv-x="2203" 
d="M269 125q-156 143 -156 379t156 378q154 142 395 142q85 0 167 -20q77 -21 113 -41l35 -23q-29 87 -29 201q0 168 102 285q101 116 281 116q209 0 303 -115q93 -115 93 -309v-114h372v-160h-372v-455q0 -256 225 -256q48 0 93.5 11t66.5 24l18 12v-160q-80 -41 -199 -40
q-177 0 -278 97q-103 97 -103 290v477h-168v160h168v81q-5 155 -49 226q-45 71 -160 71q-107 0 -168 -70.5t-61 -201.5q0 -94 41 -266t41 -230h-182v2q-8 40 -37 91q-28 45 -59 73q-37 34 -104.5 57t-149.5 23q-169 0 -269 -100q-102 -100 -102 -256t102 -257
q101 -102 269 -102q84 0 152.5 25t105.5 63q69 71 86 132l6 26h182q0 -112 -119 -249q-59 -68 -168 -114q-108 -46 -245 -46q-240 0 -395 143z" />
    <glyph glyph-name="c_h.dlig" horiz-adv-x="2658" 
d="M269 125q-156 143 -156 379t156 378q154 142 395 142q100 0 190 -26q86 -26 125 -56l39 -27q-2 24 -2 29q0 180 97 323q53 78 159.5 122.5t253.5 44.5h157v-584h11q21 34 49 61q33 30 69 53q40 25 108.5 42.5t141.5 17.5q194 0 324 -116q129 -117 129 -349v-559h-176v518
q0 176 -89 259t-239 83q-158 0 -243 -94t-85 -248v-518h-176v1278q-334 0 -333 -397q0 -47 11 -146q11 -101 11 -121h-182q-10 43 -34 85q-25 43 -58 75q-38 36 -106.5 61t-151.5 25q-169 0 -269 -100q-102 -100 -102 -256t102 -257q101 -102 269 -102q84 0 152.5 25
t105.5 63q69 71 86 132l6 26h182q0 -112 -119 -249q-59 -68 -168 -114q-108 -46 -245 -46q-240 0 -395 143z" />
    <glyph glyph-name="c_k.dlig" horiz-adv-x="2482" 
d="M2482 0h-233l-566 510v-510h-176v1278q-334 0 -333 -397q0 -47 11 -146q11 -101 11 -121h-182q-10 43 -34 85q-25 43 -58 75q-38 36 -106.5 61t-151.5 25q-169 0 -269 -100q-102 -100 -102 -256t102 -257q101 -102 269 -102q84 0 152.5 25t105.5 63q69 71 86 132l6 26
h182q0 -112 -119 -249q-59 -68 -168 -114q-108 -46 -245 -46q-240 0 -395 143q-156 143 -156 379t156 378q154 142 395 142q100 0 190 -26q86 -26 125 -56l39 -27q-2 24 -2 29q0 180 97 323q53 78 159.5 122.5t253.5 44.5h157v-910l531 480h233l-538 -486z" />
    <glyph glyph-name="aacute.salt" horiz-adv-x="1398" 
d="M1038 1004h176v-728q0 -73 20 -104t66 -31q44 0 52 11l6 2v-158q-31 -16 -90 -16t-105 17q-43 16 -67 43q-48 55 -56 91l-2 19h-8q-16 -26 -57 -60q-35 -28 -75 -51q-43 -24 -112.5 -41.5t-140.5 -17.5q-227 0 -379 144q-153 144 -153 378q0 232 153 378q152 144 379 144
q122 0 217 -43t133 -84l35 -43h8v150zM395 759q-102 -102 -102 -257q0 -156 102 -257q101 -102 271 -102q166 0 269 103q103 102 103 256q0 160 -103 259t-269 99q-170 0 -271 -101zM748 1208h-164l307 328h227z" />
    <glyph glyph-name="abreve.salt" horiz-adv-x="1398" 
d="M1038 1004h176v-728q0 -73 20 -104t66 -31q44 0 52 11l6 2v-158q-31 -16 -90 -16t-105 17q-43 16 -67 43q-48 55 -56 91l-2 19h-8q-16 -26 -57 -60q-35 -28 -75 -51q-43 -24 -112.5 -41.5t-140.5 -17.5q-227 0 -379 144q-153 144 -153 378q0 232 153 378q152 144 379 144
q122 0 217 -43t133 -84l35 -43h8v150zM395 759q-102 -102 -102 -257q0 -156 102 -257q101 -102 271 -102q166 0 269 103q103 102 103 256q0 160 -103 259t-269 99q-170 0 -271 -101zM881 1275q-73 -61 -209 -61t-209 61q-74 60 -74 165h141q0 -109 142 -109q141 0 141 109
h141q0 -104 -73 -165z" />
    <glyph glyph-name="acircumflex.salt" horiz-adv-x="1398" 
d="M1038 1004h176v-728q0 -73 20 -104t66 -31q44 0 52 11l6 2v-158q-31 -16 -90 -16t-105 17q-43 16 -67 43q-48 55 -56 91l-2 19h-8q-16 -26 -57 -60q-35 -28 -75 -51q-43 -24 -112.5 -41.5t-140.5 -17.5q-227 0 -379 144q-153 144 -153 378q0 232 153 378q152 144 379 144
q122 0 217 -43t133 -84l35 -43h8v150zM395 759q-102 -102 -102 -257q0 -156 102 -257q101 -102 271 -102q166 0 269 103q103 102 103 256q0 160 -103 259t-269 99q-170 0 -271 -101zM885 1208l-201 252l-201 -252h-172l269 328h208l269 -328h-172z" />
    <glyph glyph-name="adieresis.salt" horiz-adv-x="1398" 
d="M1038 1004h176v-728q0 -73 20 -104t66 -31q44 0 52 11l6 2v-158q-31 -16 -90 -16t-105 17q-43 16 -67 43q-48 55 -56 91l-2 19h-8q-16 -26 -57 -60q-35 -28 -75 -51q-43 -24 -112.5 -41.5t-140.5 -17.5q-227 0 -379 144q-153 144 -153 378q0 232 153 378q152 144 379 144
q122 0 217 -43t133 -84l35 -43h8v150zM395 759q-102 -102 -102 -257q0 -156 102 -257q101 -102 271 -102q166 0 269 103q103 102 103 256q0 160 -103 259t-269 99q-170 0 -271 -101zM383 1327q0 43 28.5 67.5t78.5 24.5q49 0 76.5 -24.5t27.5 -67.5q0 -98 -105 -98
q-106 0 -106 98zM772 1327q0 43 28.5 67.5t78.5 24.5q49 0 76.5 -24.5t27.5 -67.5q0 -98 -104 -98q-107 0 -107 98z" />
    <glyph glyph-name="agrave.salt" horiz-adv-x="1398" 
d="M1038 1004h176v-728q0 -73 20 -104t66 -31q44 0 52 11l6 2v-158q-31 -16 -90 -16t-105 17q-43 16 -67 43q-48 55 -56 91l-2 19h-8q-16 -26 -57 -60q-35 -28 -75 -51q-43 -24 -112.5 -41.5t-140.5 -17.5q-227 0 -379 144q-153 144 -153 378q0 232 153 378q152 144 379 144
q122 0 217 -43t133 -84l35 -43h8v150zM395 759q-102 -102 -102 -257q0 -156 102 -257q101 -102 271 -102q166 0 269 103q103 102 103 256q0 160 -103 259t-269 99q-170 0 -271 -101zM244 1536h227l307 -328h-164z" />
    <glyph glyph-name="amacron.salt" horiz-adv-x="1398" 
d="M1038 1004h176v-728q0 -73 20 -104t66 -31q44 0 52 11l6 2v-158q-31 -16 -90 -16t-105 17q-43 16 -67 43q-48 55 -56 91l-2 19h-8q-16 -26 -57 -60q-35 -28 -75 -51q-43 -24 -112.5 -41.5t-140.5 -17.5q-227 0 -379 144q-153 144 -153 378q0 232 153 378q152 144 379 144
q122 0 217 -43t133 -84l35 -43h8v150zM395 759q-102 -102 -102 -257q0 -156 102 -257q101 -102 271 -102q166 0 269 103q103 102 103 256q0 160 -103 259t-269 99q-170 0 -271 -101zM971 1260h-576v133h576v-133z" />
    <glyph glyph-name="aogonek.salt" horiz-adv-x="1398" 
d="M1350 -182h118q0 -160 -202 -160q-203 0 -203 160q0 48 30 92q27 42 58 61l31 21q-58 17 -93 55q-36 39 -45 72l-6 31h-8q-16 -26 -57 -60q-35 -28 -75 -51q-43 -24 -112.5 -41.5t-140.5 -17.5q-227 0 -379 144q-153 144 -153 378q0 232 153 378q152 144 379 144
q122 0 217 -43t133 -84l35 -43h8v150h176v-728q0 -73 20 -104t66 -31q44 0 52 11l6 2v-158q-28 -11 -61 -31q-30 -17 -53 -37q-25 -20 -43.5 -51t-18.5 -59q0 -63 84 -63t84 63zM395 759q-102 -102 -102 -257q0 -156 102 -257q101 -102 271 -102q166 0 269 103
q103 102 103 256q0 160 -103 259t-269 99q-170 0 -271 -101z" />
    <glyph glyph-name="aring.salt" horiz-adv-x="1398" 
d="M1038 1004h176v-728q0 -73 20 -104t66 -31q44 0 52 11l6 2v-158q-31 -16 -90 -16t-105 17q-43 16 -67 43q-48 55 -56 91l-2 19h-8q-16 -26 -57 -60q-35 -28 -75 -51q-43 -24 -112.5 -41.5t-140.5 -17.5q-227 0 -379 144q-153 144 -153 378q0 232 153 378q152 144 379 144
q122 0 217 -43t133 -84l35 -43h8v150zM395 759q-102 -102 -102 -257q0 -156 102 -257q101 -102 271 -102q166 0 269 103q103 102 103 256q0 160 -103 259t-269 99q-170 0 -271 -101zM828 1220q-56 -53 -154 -53t-154 53q-55 52 -55 136t55 136t154 52t154 -52t55 -136
t-55 -136zM748 1356q0 74 -74 74t-74 -74t74 -74t74 74z" />
    <glyph glyph-name="atilde.salt" horiz-adv-x="1398" 
d="M1038 1004h176v-728q0 -73 20 -104t66 -31q44 0 52 11l6 2v-158q-31 -16 -90 -16t-105 17q-43 16 -67 43q-48 55 -56 91l-2 19h-8q-16 -26 -57 -60q-35 -28 -75 -51q-43 -24 -112.5 -41.5t-140.5 -17.5q-227 0 -379 144q-153 144 -153 378q0 232 153 378q152 144 379 144
q122 0 217 -43t133 -84l35 -43h8v150zM395 759q-102 -102 -102 -257q0 -156 102 -257q101 -102 271 -102q166 0 269 103q103 102 103 256q0 160 -103 259t-269 99q-170 0 -271 -101zM518 1188q-82 0 -129 40t-47 111l8 76h137q-6 -19 -6 -47q0 -59 64 -59q25 -2 62.5 17.5
t72.5 43.5t85.5 44t98.5 18q84 0 130 -40t46 -112l-8 -76h-137q6 18 6 47q0 59 -63 60q-40 0 -134 -61q-97 -62 -186 -62z" />
    <glyph glyph-name="yacute.salt" 
d="M985 41v113h-10q-20 -32 -49 -61q-33 -31 -69 -53q-41 -26 -109 -43t-142 -17q-196 0 -323 117q-129 115 -129 347v560h176v-519q0 -176 89 -259t238 -83q157 0 243 95q85 94 85 247v519h176v-963q0 -228 -142 -349q-143 -122 -357 -122q-126 0 -224 34.5t-145 88.5
q-90 102 -103 188l-4 37h183q0 -26 22 -65q16 -30 45 -56q30 -27 90.5 -46t135.5 -19q144 0 233 79q90 80 90 230zM717 1208h-164l307 328h227z" />
    <glyph glyph-name="ydieresis.salt" 
d="M985 41v113h-10q-20 -32 -49 -61q-33 -31 -69 -53q-41 -26 -109 -43t-142 -17q-196 0 -323 117q-129 115 -129 347v560h176v-519q0 -176 89 -259t238 -83q157 0 243 95q85 94 85 247v519h176v-963q0 -228 -142 -349q-143 -122 -357 -122q-126 0 -224 34.5t-145 88.5
q-90 102 -103 188l-4 37h183q0 -26 22 -65q16 -30 45 -56q30 -27 90.5 -46t135.5 -19q144 0 233 79q90 80 90 230zM356 1325q0 43 29 67.5t78 24.5t76.5 -24.5t27.5 -67.5q0 -98 -104 -98q-107 0 -107 98zM745 1325q0 43 29 67.5t78 24.5t76.5 -24.5t27.5 -67.5
q0 -98 -104 -98q-107 0 -107 98z" />
    <glyph glyph-name="lacute.salt" horiz-adv-x="579" 
d="M154 313v1121h176v-1088q0 -126 37 -169q36 -44 116 -44q45 0 76 12l10 5v-152q-39 -18 -118 -18q-297 -2 -297 333zM326 1618h-164l307 328h227z" />
    <glyph glyph-name="lcaron.salt" horiz-adv-x="610" 
d="M154 313v1121h176v-1088q0 -126 37 -169q36 -44 116 -44q45 0 76 12l10 5v-152q-39 -18 -118 -18q-297 -2 -297 333zM551 1092v143q0 47 -44 57q-18 5 -31 23q-13 17 -13 55q0 37 29 61q29 23 71 23q109 0 109 -141q-5 -91 -46 -155q-42 -66 -75 -66z" />
    <glyph glyph-name="uni013C.salt" horiz-adv-x="579" 
d="M154 313v1121h176v-1088q0 -126 37 -169q36 -44 116 -44q45 0 76 12l10 5v-152q-39 -18 -118 -18q-297 -2 -297 333zM348 -567v143q0 26 -12.5 38t-32.5 20.5t-29 21.5q-14 19 -14 55q0 37 29 60q29 24 71 24q109 0 109 -141q-5 -91 -46 -156q-42 -65 -75 -65z" />
    <glyph glyph-name="lslash.salt" horiz-adv-x="677" 
d="M221 575l-190 -92v152l190 92v707h176v-621l203 100v-151l-203 -100v-316q0 -126 37 -169q38 -44 117 -44q40 0 76 12l10 5v-152q-39 -18 -119 -18q-297 0 -297 333v262z" />
    <glyph glyph-name="gbreve.salt" horiz-adv-x="1368" 
d="M1038 1004h176v-949q0 -237 -151 -361t-383 -124q-136 0 -236 36q-102 36 -150 87q-101 108 -110 188l-6 37h184q0 -18 29 -65q19 -31 50 -56q33 -26 97.5 -45.5t141.5 -19.5q159 0 259 83q99 83 99 240v95h-8q-16 -26 -57 -60q-35 -28 -75 -51q-43 -24 -112.5 -41.5
t-140.5 -17.5q-227 0 -379 144q-153 144 -153 378q0 232 153 378q152 144 379 144q122 0 217 -43t133 -84l35 -43h8v150zM395 759q-102 -102 -102 -257q0 -156 102 -257q101 -102 271 -102q165 0 265 97q101 96 107 245v31q-6 154 -108 249q-104 95 -264 95
q-170 0 -271 -101zM881 1275q-73 -61 -209 -61t-209 61q-74 60 -74 165h141q0 -109 142 -109q141 0 141 109h141q0 -104 -73 -165z" />
    <glyph glyph-name="uni0123.salt" horiz-adv-x="1368" 
d="M1038 1004h176v-949q0 -237 -151 -361t-383 -124q-136 0 -236 36q-102 36 -150 87q-101 108 -110 188l-6 37h184q0 -18 29 -65q19 -31 50 -56q33 -26 97.5 -45.5t141.5 -19.5q159 0 259 83q99 83 99 240v95h-8q-16 -26 -57 -60q-35 -28 -75 -51q-43 -24 -112.5 -41.5
t-140.5 -17.5q-227 0 -379 144q-153 144 -153 378q0 232 153 378q152 144 379 144q122 0 217 -43t133 -84l35 -43h8v150zM395 759q-102 -102 -102 -257q0 -156 102 -257q101 -102 271 -102q165 0 265 97q101 96 107 245v31q-6 154 -108 249q-104 95 -264 95
q-170 0 -271 -101zM680 1591v-143q0 -26 12.5 -38t32.5 -20.5t30 -21.5q13 -17 13 -55t-28 -60q-28 -24 -72 -24q-109 0 -109 141q5 91 46 156q42 65 75 65z" />
    <glyph glyph-name="uacute.salt" horiz-adv-x="1345" 
d="M1004 119l-9 45h-10q-10 -22 -51 -64q-32 -32 -69 -57q-41 -26 -110 -44.5t-143 -18.5q-199 0 -328 117q-130 115 -130 347v560h176v-519q0 -176 89 -259t238 -83q157 0 243 95q85 94 85 247v519h176v-728q0 -73 20 -104t66 -31q43 0 51 11l7 2v-158q-31 -16 -91 -16
q-93 0 -146 46t-64 93zM731 1208h-164l307 328h228z" />
    <glyph glyph-name="ucircumflex.salt" horiz-adv-x="1345" 
d="M1004 119l-9 45h-10q-10 -22 -51 -64q-32 -32 -69 -57q-41 -26 -110 -44.5t-143 -18.5q-199 0 -328 117q-130 115 -130 347v560h176v-519q0 -176 89 -259t238 -83q157 0 243 95q85 94 85 247v519h176v-728q0 -73 20 -104t66 -31q43 0 51 11l7 2v-158q-31 -16 -91 -16
q-93 0 -146 46t-64 93zM862 1208l-200 252l-201 -252h-172l268 328h209l268 -328h-172z" />
    <glyph glyph-name="udieresis.salt" horiz-adv-x="1345" 
d="M1004 119l-9 45h-10q-10 -22 -51 -64q-32 -32 -69 -57q-41 -26 -110 -44.5t-143 -18.5q-199 0 -328 117q-130 115 -130 347v560h176v-519q0 -176 89 -259t238 -83q157 0 243 95q85 94 85 247v519h176v-728q0 -73 20 -104t66 -31q43 0 51 11l7 2v-158q-31 -16 -91 -16
q-93 0 -146 46t-64 93zM360 1325q0 43 29 67.5t78 24.5t76.5 -24.5t27.5 -67.5q0 -98 -104 -98q-107 0 -107 98zM750 1325q0 43 28.5 67.5t77.5 24.5t77 -24.5t28 -67.5q0 -98 -105 -98q-106 0 -106 98z" />
    <glyph glyph-name="uhungarumlaut.salt" horiz-adv-x="1345" 
d="M1004 119l-9 45h-10q-10 -22 -51 -64q-32 -32 -69 -57q-41 -26 -110 -44.5t-143 -18.5q-199 0 -328 117q-130 115 -130 347v560h176v-519q0 -176 89 -259t238 -83q157 0 243 95q85 94 85 247v519h176v-728q0 -73 20 -104t66 -31q43 0 51 11l7 2v-158q-31 -16 -91 -16
q-93 0 -146 46t-64 93zM539 1208h-129l333 328h179zM879 1208h-127l333 328h191z" />
    <glyph glyph-name="ugrave.salt" horiz-adv-x="1345" 
d="M1004 119l-9 45h-10q-10 -22 -51 -64q-32 -32 -69 -57q-41 -26 -110 -44.5t-143 -18.5q-199 0 -328 117q-130 115 -130 347v560h176v-519q0 -176 89 -259t238 -83q157 0 243 95q85 94 85 247v519h176v-728q0 -73 20 -104t66 -31q43 0 51 11l7 2v-158q-31 -16 -91 -16
q-93 0 -146 46t-64 93zM221 1536h228l307 -328h-164z" />
    <glyph glyph-name="umacron.salt" horiz-adv-x="1345" 
d="M1004 119l-9 45h-10q-10 -22 -51 -64q-32 -32 -69 -57q-41 -26 -110 -44.5t-143 -18.5q-199 0 -328 117q-130 115 -130 347v560h176v-519q0 -176 89 -259t238 -83q157 0 243 95q85 94 85 247v519h176v-728q0 -73 20 -104t66 -31q43 0 51 11l7 2v-158q-31 -16 -91 -16
q-93 0 -146 46t-64 93zM948 1257h-575v134h575v-134z" />
    <glyph glyph-name="uogonek.salt" horiz-adv-x="1345" 
d="M1296 -182h119q0 -160 -202 -160q-203 0 -203 160q0 48 30 92q28 43 60 61l30 21q-57 18 -90 61q-33 42 -41 78l-4 33h-10q-10 -22 -51 -64q-32 -32 -69 -57q-41 -26 -110 -44.5t-143 -18.5q-199 0 -328 117q-130 115 -130 347v560h176v-519q0 -176 89 -259t238 -83
q157 0 243 95q85 94 85 247v519h176v-728q0 -73 20 -104t66 -31q43 0 51 11l7 2v-158q-20 -8 -49 -23q-26 -12 -78 -61q-50 -47 -50 -94q0 -63 84 -63t84 63z" />
    <glyph glyph-name="uring.salt" horiz-adv-x="1345" 
d="M1004 119l-9 45h-10q-10 -22 -51 -64q-32 -32 -69 -57q-41 -26 -110 -44.5t-143 -18.5q-199 0 -328 117q-130 115 -130 347v560h176v-519q0 -176 89 -259t238 -83q157 0 243 95q85 94 85 247v519h176v-728q0 -73 20 -104t66 -31q43 0 51 11l7 2v-158q-31 -16 -91 -16
q-93 0 -146 46t-64 93zM811 1220q-56 -53 -153 -53q-98 0 -154 53q-55 52 -55 136t55 136t154 52q98 0 153 -52t55 -136t-55 -136zM731 1356q0 74 -73 74q-74 0 -74 -74t74 -74q73 0 73 74z" />
    <glyph glyph-name="Imacron.salt" horiz-adv-x="561" 
d="M184 0v1434h193v-1434h-193zM571 1675h-575v133h575v-133z" />
    <glyph glyph-name="uni0406.salt" horiz-adv-x="561" 
d="M184 0v1434h193v-1434h-193z" />
    <glyph glyph-name="uni0407.salt" horiz-adv-x="561" 
d="M184 0v1434h193v-1434h-193zM-18 1716q0 43 28.5 67.5t77.5 24.5t77 -24.5t28 -67.5q0 -98 -105 -98q-106 0 -106 98zM371 1716q0 43 28.5 67.5t77.5 24.5t77 -24.5t28 -67.5q0 -98 -105 -98q-106 0 -106 98z" />
    <glyph glyph-name="glyph529" horiz-adv-x="3149" 
d="M205 942h364v-63h-147v-408h-72v408h-145v63zM1063 811q65 0 112 -51q46 -50 46 -121q0 -75 -46 -124q-47 -50 -112 -50q-59 0 -96 43v-162h-70v459h49l19 -39q39 45 98 45zM1057 528q39 0 67.5 33t28.5 78q0 43 -28.5 74.5t-67.5 31.5t-67.5 -31.5t-28.5 -74.5
q0 -46 27.5 -78.5t68.5 -32.5zM592 805l90 -238l90 238h76l-158 -389q-33 -70 -100 -70q-11 0 -21 2v58q48 0 64 40l12 33l-129 326h76zM1323 761q47 50 113 50q65 0 110 -50q45 -49 45 -120l-2 -31h-243q4 -36 29.5 -60t60.5 -24q55 0 75 35h72q-18 -45 -58 -70.5
t-89 -25.5q-66 0 -113 50t-47 124q0 72 47 122zM1346 666h180q-2 34 -29.5 58t-60.5 24q-34 0 -60 -23t-30 -59zM1559 942h364v-63h-147v-408h-72v408h-145v63zM2417 811q65 0 112 -51q45 -51 45 -121q0 -75 -46 -124q-47 -50 -111 -50q-60 0 -97 43v-162h-69v459h49l18 -39
q40 45 99 45zM2410 528q40 0 68 33q29 34 29 78q0 43 -29 75q-28 31 -67 31q-40 0 -68 -31q-29 -32 -29 -75q0 -46 27.5 -78.5t68.5 -32.5zM1946 805l90 -238l90 238h76l-158 -389q-33 -70 -100 -70q-11 0 -21 2v58q48 0 64 40l12 33l-129 326h76zM2677 761q47 50 113 50
q65 0 110 -50q45 -49 45 -120l-2 -31h-244q4 -35 30 -59.5t60 -24.5q55 0 76 35h72q-18 -45 -57.5 -70.5t-90.5 -25.5q-65 0 -112 50t-47 124q0 72 47 122zM2699 666h180q-2 34 -29 58t-60 24q-34 0 -60.5 -23t-30.5 -59z" />
    <glyph glyph-name="uni0430.salt" horiz-adv-x="1398" 
d="M1038 1004h176v-728q0 -73 20 -104t66 -31q44 0 52 11l6 2v-158q-31 -16 -90 -16t-105 17q-43 16 -67 43q-48 55 -56 91l-2 19h-8q-16 -26 -57 -60q-35 -28 -75 -51q-43 -24 -112.5 -41.5t-140.5 -17.5q-227 0 -379 144q-153 144 -153 378q0 232 153 378q152 144 379 144
q122 0 217 -43t133 -84l35 -43h8v150zM395 759q-102 -102 -102 -257q0 -156 102 -257q101 -102 271 -102q166 0 269 103q103 102 103 256q0 160 -103 259t-269 99q-170 0 -271 -101z" />
    <glyph glyph-name="m.ss02" horiz-adv-x="1875" 
d="M1722 0h-176v829l-520 -297v-532h-176v829l-520 -297v-532h-176v1004h176v-297l520 297h176v-297l520 297h176v-1004z" />
    <glyph glyph-name="h.ss02" 
d="M1161 0h-176v827l-655 -297v-530h-176v1434h176v-727l655 297h176v-1004z" />
    <glyph glyph-name="c_h.dlig.ss02" horiz-adv-x="2668" 
d="M2515 0h-176v827l-656 -297v-530h-176v1278q-334 0 -333 -397q0 -47 11 -146q11 -101 11 -121h-182q-10 43 -34 85q-25 43 -58 75q-38 36 -106.5 61t-151.5 25q-169 0 -269 -100q-102 -100 -102 -256t102 -257q101 -102 269 -102q84 0 152.5 25t105.5 63q69 71 86 132
l6 26h182q0 -112 -119 -249q-59 -68 -168 -114q-108 -46 -245 -46q-240 0 -395 143q-156 143 -156 379t156 378q154 142 395 142q100 0 190 -26q86 -26 125 -56l39 -27q-2 24 -2 29q0 180 97 323q53 78 159.5 122.5t253.5 44.5h157v-727l656 297h176v-1004z" />
    <glyph glyph-name="c_k.dlig.ss02" horiz-adv-x="2541" 
d="M1683 496l787 -336v-180l-787 335v-315h-176v1278q-334 0 -333 -397q0 -47 11 -146q11 -101 11 -121h-182q-10 43 -34 85q-25 43 -58 75q-38 36 -106.5 61t-151.5 25q-169 0 -269 -100q-102 -100 -102 -256t102 -257q101 -102 269 -102q84 0 152.5 25t105.5 63
q69 71 86 132l6 26h182q0 -112 -119 -249q-59 -68 -168 -114q-108 -46 -245 -46q-240 0 -395 143q-156 143 -156 379t156 378q154 142 395 142q100 0 190 -26q86 -26 125 -56l39 -27q-2 24 -2 29q0 180 97 323q53 78 159.5 122.5t253.5 44.5h157v-748l787 338v-180
l-787 -338v-10z" />
    <glyph glyph-name="f_k.liga.ss02" horiz-adv-x="1882" 
d="M1024 496l786 -336v-180l-786 335v-315h-176v844h-442v-844h-177v844h-168v98l168 62v63q0 193 108 290q106 97 290 97q183 0 290 -97q107 -98 107 -290v-381l786 338v-180l-786 -338v-10zM848 1004v40q0 256 -221 256t-221 -256v-40h442z" />
    <glyph glyph-name="ordfeminine.salt" horiz-adv-x="995" 
d="M705 1638h155v-514q0 -48 15 -68t51 -20l39 6v-120q-28 -9 -82 -11q-61 0 -104 30q-45 31 -56 58l-12 29h-6q-14 -23 -32 -42q-18 -20 -45 -37q-68 -44 -167 -44q-180 0 -290 104t-110 273q0 168 109 273q110 104 281 104q81 0 144 -26q62 -27 83 -54l20 -27h7v86z
M289 1454q-68 -71 -68 -172t68 -172q67 -70 176 -70q106 0 173 70t67 172q0 105 -67 173q-67 69 -173 69q-109 0 -176 -70z" />
    <glyph glyph-name="zero.tnum" horiz-adv-x="1392" 
d="M1177 187q-175 -207 -481 -207q-304 0 -480 207q-175 205 -175 530q0 324 175 530q176 207 480 207q306 0 481 -207q175 -206 175 -530q0 -325 -175 -530zM1032 1121q-118 157 -336 157q-217 0 -335 -157q-119 -158 -119 -404q0 -245 119 -403t335 -158q217 0 336 158
t119 403q0 246 -119 404z" />
    <glyph glyph-name="one.tnum" horiz-adv-x="1392" 
d="M1260 0h-1086v172h447v1090h-365v172h557v-1262h447v-172z" />
    <glyph glyph-name="two.tnum" horiz-adv-x="1392" 
d="M1274 0h-1157v152q0 97 51.5 179.5t138.5 139.5q123 80 392 196q83 35 144 68t117 76.5t85.5 96t29.5 112.5q0 128 -93 193t-269 65q-362 0 -363 -289v-41h-192v41q0 219 150 342q148 123 405 123q253 0 405 -116q150 -117 150 -318q0 -103 -51 -193t-138 -151
q-138 -99 -385 -203q-87 -36 -144.5 -64t-115.5 -66t-86.5 -80.5t-28.5 -90.5h955v-172z" />
    <glyph glyph-name="three.tnum" horiz-adv-x="1392" 
d="M1282 428q0 -207 -159 -327q-160 -121 -416 -121q-259 0 -417 124q-159 123 -159 340v37h193v-37q0 -142 100 -215t283 -73q177 0 280 69q103 67 103 203q0 272 -383 272h-369v172l580 381v9h-738v172h1030v-172l-579 -381v-9h76q260 0 418 -116q157 -117 157 -328z" />
    <glyph glyph-name="four.tnum" horiz-adv-x="1392" 
d="M1122 0h-192v342h-856v172l790 920h258v-920h197v-172h-197v-342zM295 520v-6h635v739h-6z" />
    <glyph glyph-name="five.tnum" horiz-adv-x="1392" 
d="M1303 469q0 -228 -155 -359q-154 -130 -413 -130q-260 0 -412 116q-153 116 -153 316h192q0 -123 97.5 -189.5t275.5 -66.5q180 0 277.5 78.5t97.5 234.5q0 313 -385 313q-175 0 -260 -57q-36 -24 -61 -49t-31 -41l-8 -17h-195v816h1034v-172h-842v-418h5q16 16 37 32
q24 19 122 51q96 31 219 31q248 0 403 -131t155 -358z" />
    <glyph glyph-name="six.tnum" horiz-adv-x="1392" 
d="M1251 1047h-200q-8 35 -34 81q-25 42 -55 72q-35 34 -98.5 58t-136.5 24q-186 0 -291 -143q-106 -143 -106 -369h6q17 27 55 58q30 25 77 50q39 20 119 40q77 18 165 18q243 0 401 -134q156 -134 156 -343q0 -219 -157 -349t-417 -130q-299 0 -452 183q-154 182 -154 509
v63q0 306 157 512q156 207 441 207q109 0 203 -31t154 -83q55 -48 97 -107q70 -100 70 -186zM465 236q102 -84 270 -84q167 0 271 84q102 82 102 223q0 139 -104 222q-106 83 -269 83q-164 0 -268 -83q-105 -83 -105 -222q0 -141 103 -223z" />
    <glyph glyph-name="seven.tnum" horiz-adv-x="1392" 
d="M584 0h-217l700 1262h-938v172h1155v-172z" />
    <glyph glyph-name="eight.tnum" horiz-adv-x="1392" 
d="M1239 1055q0 -67 -25.5 -124.5t-65.5 -88.5q-84 -68 -138 -80l-27 -6v-8q38 -7 105 -41q48 -25 91 -62q39 -33 73 -98q32 -66 32 -141q0 -194 -163 -309q-163 -117 -425 -117t-424 117q-163 115 -163 309q0 75 29.5 138.5t75.5 100.5q94 75 165 94l31 9v8q-37 9 -89 34
q-45 21 -78 51q-37 32 -63 90t-26 124q0 184 148 292q148 107 395 107q246 0 395 -107q147 -108 147 -292zM413 221q104 -65 284 -65q179 0 283 65q103 64 103 185t-103 185t-283 64q-181 0 -284 -64q-104 -65 -104 -185t104 -185zM443 893q89 -62 253 -62t253 62t89 162
q0 105 -90 164t-251 59q-162 0 -252.5 -59t-90.5 -164q0 -100 89 -162z" />
    <glyph glyph-name="nine.tnum" horiz-adv-x="1392" 
d="M129 387h201q8 -33 38 -82q27 -44 59 -71q37 -34 103.5 -58t143.5 -24q201 0 307 142t106 370h-6q-16 -25 -55 -57q-35 -29 -77 -50q-41 -22 -118 -40q-75 -19 -165 -19q-243 0 -400 134q-157 133 -157 343q0 219 157 349q155 130 416 130q298 0 453 -183
q153 -185 153 -509v-64q0 -425 -269 -617q-143 -101 -345 -101q-109 0 -204.5 30.5t-158.5 80.5q-61 48 -103 106q-79 107 -79 190zM953 1198q-103 84 -271 84t-270 -84q-103 -84 -103 -223t105 -222q104 -83 268 -83q163 0 269 83q104 83 104 222t-102 223z" />
    <glyph glyph-name="at.case" horiz-adv-x="2015" 
d="M701 230q-119 121 -119 317q0 195 119 317q118 121 280 121q96 0 162 -31q67 -31 88 -63l20 -31h4v105h177v-527q0 -170 139 -170q62 7 92.5 36.5t41.5 91.5q7 43 9 80q2 48 2 97q0 337 -179 530q-179 191 -523 191q-325 0 -510 -203q-185 -205 -185 -532
q0 -314 182 -523q181 -208 490 -208q102 0 182 19t115 38l33 21l78 -137q-9 -6 -48 -28q-31 -17 -138 -45q-105 -28 -222 -28q-379 0 -613 246q-235 245 -235 645q0 399 243 647t628 248q416 0 647 -245q231 -246 231 -636q0 -235 -92 -350q-92 -114 -229 -114
q-100 0 -164 46q-65 47 -78 91l-14 45h-4q-6 -22 -39 -63q-25 -31 -56 -56q-34 -27 -92 -45t-123 -18q-182 0 -300 121zM1185 345q70 76 70 202t-70 202t-184 76q-111 0 -177 -76q-66 -77 -66 -202q0 -126 67 -202q66 -77 176 -77q113 0 184 77z" />
    <glyph glyph-name="parenleft.case" horiz-adv-x="884" 
d="M864 1802v-151q-227 0 -381 -268q-155 -269 -155 -664t155 -664q155 -270 381 -270v-152q-310 0 -515 300q-206 301 -206 784q0 484 206 785q205 300 515 300z" />
    <glyph glyph-name="parenright.case" horiz-adv-x="884" 
d="M20 1651v151q310 0 515 -300q206 -301 206 -785q0 -483 -205 -784q-206 -300 -516 -300v152q227 0 382 270q155 269 155 664t-155 664q-154 268 -382 268z" />
    <glyph glyph-name="bracketleft.case" horiz-adv-x="757" 
d="M360 -209h357v-160h-533v2171h533v-160h-357v-1851z" />
    <glyph glyph-name="bracketright.case" horiz-adv-x="757" 
d="M573 -369h-532v160h356v1851h-356v160h532v-2171z" />
    <glyph glyph-name="braceleft.case" horiz-adv-x="808" 
d="M733 -229h35v-160h-35q-229 0 -330 111q-102 112 -102 360v354q0 193 -178 197v168q178 4 178 196v355q0 248 102 360q101 111 330 111h35v-160h-35q-157 0 -207 -75q-49 -74 -49 -236v-375q0 -60 -15 -111t-37 -79q-45 -55 -81 -64l-14 -4v-4q33 -12 51 -25
q23 -16 44 -42q21 -27 36.5 -79.5t15.5 -111.5v-375q0 -163 49 -237q50 -74 207 -74z" />
    <glyph glyph-name="braceright.case" horiz-adv-x="808" 
d="M41 -389v160h35q157 0 207 74q49 74 49 237v375q0 126 52 191q45 54 79 63l16 4v4q-1 0 -6.5 1.5t-10 3.5t-14 7.5t-20.5 13.5q-24 15 -44 42q-21 27 -36.5 78.5t-15.5 111.5v375q0 163 -49 237q-50 74 -207 74h-35v160h35q229 0 331 -112q101 -113 101 -359v-355
q0 -193 178 -196v-168q-178 -4 -178 -197v-354q0 -247 -101 -360q-102 -111 -331 -111h-35z" />
    <glyph glyph-name="exclamdown.case" horiz-adv-x="593" 
d="M362 1024l31 -717v-307h-192v307l30 717h131zM380 1427q30 -29 30 -79q0 -52 -30 -79q-29 -28 -83 -28t-83 28q-30 27 -30 79q0 50 30 79q30 27 83 27t83 -27z" />
    <glyph glyph-name="questiondown.case" horiz-adv-x="1253" 
d="M762 776q0 41 -32.5 65.5t-82.5 24.5t-82.5 -23t-32.5 -63v-18h-184v18q0 112 78.5 175t221.5 63q142 0 220 -64t78 -178q0 -109 -69 -172q-70 -62 -168 -85q-115 -26 -197 -40q-96 -18 -168 -59q-70 -40 -70 -115q0 -77 96 -115t257 -38q158 0 255 52t97 142v62h192v-62
q0 -168 -151 -267q-152 -99 -393 -99q-243 0 -394 86q-151 85 -151 239q0 99 48.5 168t127.5 97q87 29 164 46q90 20 164 30t126 43q50 32 50 87zM724 1427q30 -29 30 -79q0 -52 -30 -79q-29 -28 -83 -28t-83 28q-30 27 -30 79q0 50 30 79q30 27 83 27t83 -27z" />
    <glyph glyph-name="guillemotleft.case" horiz-adv-x="946" 
d="M530 299h-192l-277 381l277 381h192l-280 -381zM885 299h-193l-276 381l276 381h193l-281 -381z" />
    <glyph glyph-name="guillemotright.case" horiz-adv-x="946" 
d="M608 1061l277 -381l-277 -381h-192l280 381l-280 381h192zM254 1061l276 -381l-276 -381h-193l281 381l-281 381h193z" />
    <glyph glyph-name="guilsinglleft.case" horiz-adv-x="602" 
d="M541 299h-193l-287 381l287 381h193l-287 -381z" />
    <glyph glyph-name="guilsinglright.case" horiz-adv-x="602" 
d="M254 1061l287 -381l-287 -381h-193l287 381l-287 381h193z" />
    <glyph glyph-name="hyphen.case" horiz-adv-x="630" 
d="M82 700l467 195v-186l-467 -195v186z" />
    <glyph glyph-name="endash.case" horiz-adv-x="1400" 
d="M102 807h1196v-156h-1196v156z" />
    <glyph glyph-name="emdash.case" horiz-adv-x="1794" 
d="M102 807h1590v-156h-1590v156z" />
    <glyph glyph-name="periodcentered.case" horiz-adv-x="491" 
d="M163 632q-30 27 -30 79q0 51 30 79q30 27 83 27t83 -27q29 -29 29 -79q0 -52 -29 -79q-29 -28 -83 -28t-83 28z" />
    <glyph glyph-name="glyph564" horiz-adv-x="1626" 
d="M721 1434h506v-164q-104 0 -191 -75q-88 -75 -88 -171q0 -87 62 -143q63 -57 148 -86q91 -33 175 -70q88 -39 150 -122q61 -82 61 -214q0 -177 -127 -292q-127 -117 -360 -117q-229 0 -360 108q-132 106 -132 309h201q0 -242 289 -241q288 0 288 237q0 71 -42 122.5
t-112 79.5q-50 19 -143 59q-75 31 -143 68q-68 36 -111 109q-44 73 -44 175q0 81 37 143q36 63 73 88l37 25v8h-174q-179 0 -267 -77q-87 -77 -87 -265v-928h-193v928q0 266 134 386q133 120 413 120z" />
    <glyph glyph-name="zero.numr" horiz-adv-x="839" 
d="M153 748q-102 112 -102 297t102 297q100 112 267 112t267 -112q101 -113 101 -297t-101 -297t-267 -113t-267 113zM575 845q54 75 54 200q0 124 -54 199q-55 75 -155 75q-101 0 -155 -75t-54 -199q0 -125 54 -200t155 -75q100 0 155 75z" />
    <glyph glyph-name="one.numr" horiz-adv-x="548" 
d="M229 1251l-188 -161v190l180 154h164v-779h-156v596z" />
    <glyph glyph-name="two.numr" horiz-adv-x="808" 
d="M739 655h-678v99q0 99 55 160q54 61 133 88q92 29 157 47q76 19 132 54q54 35 54 93q0 123 -170 123q-84 0 -128 -36t-44 -97v-19h-156v19q0 126 85.5 197t242.5 71q155 0 241 -69q85 -70 85 -181q0 -94 -54 -154t-132 -86q-79 -26 -154 -44q-78 -20 -132 -48
q-55 -30 -55 -81h518v-136z" />
    <glyph glyph-name="three.numr" horiz-adv-x="811" 
d="M492 1298h-404v136h621v-134l-277 -153v-2h27q145 0 218 -72t73 -178q0 -119 -90 -189q-92 -71 -254 -71q-167 0 -256 70t-89 190v27h156v-27q0 -57 48 -91t141 -34q188 0 188 125q0 66 -44 94.5t-144 28.5h-205v123l291 155v2z" />
    <glyph glyph-name="four.numr" horiz-adv-x="778" 
d="M621 655h-156v164h-445v139l443 476h158v-480h116v-135h-116v-164zM195 958v-4h270v293h-4z" />
    <glyph glyph-name="five.numr" horiz-adv-x="780" 
d="M548 807q46 37 46 99q0 60 -51 101q-50 40 -137 40q-54 0 -96.5 -14.5t-55.5 -33.5l-10 -16h-156v451h612v-136h-456v-168q50 48 186 50q148 0 234 -76q86 -77 86 -199q0 -129 -83.5 -199.5t-250.5 -70.5q-93 0 -164 23t-102 59q-64 73 -64 127l-2 24h158q0 -3 2 -10
t12 -23.5t26 -30.5q46 -34 134 -34q86 0 132 37z" />
    <glyph glyph-name="six.numr" horiz-adv-x="833" 
d="M741 1253l4 -24h-139q1 1 -3 9.5t-16 22.5t-30 26q-51 32 -133 32q-98 0 -152.5 -66t-54.5 -180h4q3 5 20 26q14 16 74 42q61 26 142 26q145 0 235 -75q90 -76 90 -187q0 -117 -96 -193q-97 -77 -254 -77q-174 0 -272 105q-99 104 -99 284v12q0 193 95 306
q94 112 268 112q80 0 145 -22.5t98 -57.5q66 -69 74 -121zM434 1032q-81 0 -136 -35q-54 -36 -54 -94q0 -61 54 -97t136 -36q86 0 137.5 37.5t51.5 96.5q0 58 -51 93t-138 35z" />
    <glyph glyph-name="seven.numr" horiz-adv-x="643" 
d="M262 655h-172l361 643h-431v136h603v-136z" />
    <glyph glyph-name="eight.numr" horiz-adv-x="815" 
d="M662 698q-93 -63 -254 -63q-162 0 -254 63q-93 62 -93 164q0 73 46 122q46 50 90 65l43 16v4q-36 13 -52 22q-27 14 -45 31q-22 19 -37.5 51t-15.5 66q0 93 81 154q80 61 237 61q156 0 236 -61q81 -61 81 -154q0 -59 -37 -102t-74 -56l-39 -12v-4q24 -7 62 -25
q30 -16 55 -36q26 -23 44 -61.5t18 -80.5q0 -102 -92 -164zM221 881q0 -113 187 -113q186 0 186 113q0 51 -47.5 81.5t-138.5 30.5t-139 -30.5t-48 -81.5zM289 1292q-39 -28 -39 -67t37 -68q38 -29 121 -29t121 29q36 29 36 68.5t-39 66.5t-118 27q-80 0 -119 -27z" />
    <glyph glyph-name="nine.numr" horiz-adv-x="833" 
d="M68 840l-5 24h140q0 -1 1.5 -5t6 -10.5t13.5 -16.5q14 -18 33 -29q52 -33 142 -33q104 0 160.5 65.5t56.5 180.5h-4q-6 -11 -19 -25q-14 -17 -73 -42q-62 -27 -143 -27q-146 0 -235 76q-91 75 -91 186q0 118 97 194q95 76 253 76q174 0 273 -104q98 -106 98 -285v-12
q0 -193 -96 -305q-96 -113 -277 -113q-83 0 -150 23t-101 58q-72 73 -80 124zM399 1057q81 0 137 36q54 35 54 93q0 61 -54 97q-56 36 -137 36q-86 0 -137 -37.5t-51 -95.5t50.5 -93.5t137.5 -35.5z" />
    <glyph glyph-name="zero.dnom" horiz-adv-x="839" 
d="M153 93q-102 113 -102 296q0 185 102 297q101 113 267 113t267 -113t101 -297q0 -183 -101 -296t-267 -113t-267 113zM575 190q54 73 54 199q0 125 -54 200q-55 75 -155 75q-101 0 -155 -75t-54 -200t54 -199q54 -75 155 -75q100 0 155 75z" />
    <glyph glyph-name="one.dnom" horiz-adv-x="548" 
d="M229 596l-188 -162v191l180 153h164v-778h-156v596z" />
    <glyph glyph-name="two.dnom" horiz-adv-x="808" 
d="M739 0h-678v98q0 99 55 160q54 61 133 88q81 28 157 48t132 54q54 33 54 93q0 123 -170 123q-84 0 -128 -36t-44 -98v-18h-156v18q0 126 85.5 197.5t242.5 71.5q156 0 241 -70t85 -180q0 -94 -54 -154t-132 -86q-79 -26 -154 -44q-80 -20 -132 -49q-55 -30 -55 -81h518
v-135z" />
    <glyph glyph-name="three.dnom" horiz-adv-x="811" 
d="M492 643h-404v135h621v-133l-277 -153v-3h27q144 0 218 -71q73 -72 73 -178q0 -118 -90 -189q-92 -71 -254 -71q-167 0 -256 70t-89 190v26h156v-26q0 -57 48 -91t141 -34q188 0 188 125q0 66 -44 94t-144 28h-205v123l291 156v2z" />
    <glyph glyph-name="four.dnom" horiz-adv-x="778" 
d="M621 0h-156v164h-445v139l443 475h158v-479h116v-135h-116v-164zM195 303v-4h270v293h-4z" />
    <glyph glyph-name="five.dnom" horiz-adv-x="780" 
d="M548 152q46 36 46 98q0 60 -51 101q-50 40 -137 40q-53 0 -96 -14.5t-56 -32.5l-10 -16h-156v450h612v-135h-456v-168q50 49 186 49q147 0 234 -75q86 -77 86 -199q0 -129 -83.5 -199.5t-250.5 -70.5q-93 0 -164 23t-102 59q-30 33 -47 68t-17 58l-2 25h158q0 -3 2 -10
t12 -23.5t26 -30.5q43 -34 134 -34q86 0 132 37z" />
    <glyph glyph-name="six.dnom" horiz-adv-x="833" 
d="M741 598l4 -25h-139q0 2 -3 10t-15.5 23t-30.5 26q-51 32 -133 32q-97 0 -152 -66.5t-55 -179.5h4q3 5 20 26q14 16 74 42q61 26 142 26q146 0 235 -76q90 -76 90 -186q0 -116 -96 -193q-97 -77 -254 -77q-174 0 -272 104q-99 104 -99 285v12q0 193 95 306
q94 112 268 112q80 0 145 -22.5t98 -57.5q66 -69 74 -121zM434 377q-82 0 -136 -36t-54 -93q0 -61 54 -97t136 -36q86 0 137.5 37t51.5 96q0 58 -51 93.5t-138 35.5z" />
    <glyph glyph-name="seven.dnom" horiz-adv-x="643" 
d="M262 0h-172l361 643h-431v135h603v-135z" />
    <glyph glyph-name="eight.dnom" horiz-adv-x="815" 
d="M662 43q-93 -63 -254 -63q-162 0 -254 62q-93 62 -93 165q0 73 46 122q46 51 90 64l43 17v4q-36 13 -52 22q-26 14 -45 30q-22 19 -37.5 51.5t-15.5 66.5q0 92 81 154q80 61 237 61q156 0 236 -61q81 -62 81 -154q0 -59 -37 -102q-38 -45 -74 -56l-39 -12v-4
q20 -5 62 -26q29 -14 55 -35q26 -23 44 -61.5t18 -80.5q0 -102 -92 -164zM221 225q0 -112 187 -112q186 0 186 112q0 51 -47.5 82t-138.5 31t-139 -31t-48 -82zM289 636q-39 -28 -39 -67t37 -67q38 -29 121 -29t121 29q36 28 36 67.5t-39 66.5q-38 28 -118 28
q-81 0 -119 -28z" />
    <glyph glyph-name="nine.dnom" horiz-adv-x="833" 
d="M68 184l-5 25h140q0 -1 1.5 -5t6 -10.5t13.5 -16.5q14 -18 33 -29q49 -33 142 -33q104 0 160.5 65.5t56.5 179.5h-4q-6 -11 -19 -25q-14 -17 -73 -42q-62 -27 -143 -27q-146 0 -235 76q-91 76 -91 186q0 118 97 194q97 77 253 77q174 0 273 -104q98 -106 98 -285v-13
q0 -193 -96 -305t-277 -112q-83 0 -150 23t-101 58q-71 71 -80 123zM399 401q81 0 137 36q54 36 54 93q0 60 -54 98q-56 36 -137 36q-86 0 -137 -37.5t-51 -95.5t50.5 -94t137.5 -36z" />
    <glyph glyph-name="uni0443.salt" 
d="M985 41v113h-10q-20 -32 -49 -61q-33 -31 -69 -53q-41 -26 -109 -43t-142 -17q-196 0 -323 117q-129 115 -129 347v560h176v-519q0 -176 89 -259t238 -83q157 0 243 95q85 94 85 247v519h176v-963q0 -228 -142 -349q-143 -122 -357 -122q-126 0 -224 34.5t-145 88.5
q-90 102 -103 188l-4 37h183q0 -26 22 -65q16 -30 45 -56q30 -27 90.5 -46t135.5 -19q144 0 233 79q90 80 90 230z" />
    <glyph glyph-name="uni045E.salt" 
d="M985 41v113h-10q-20 -32 -49 -61q-33 -31 -69 -53q-41 -26 -109 -43t-142 -17q-196 0 -323 117q-129 115 -129 347v560h176v-519q0 -176 89 -259t238 -83q157 0 243 95q85 94 85 247v519h176v-963q0 -228 -142 -349q-143 -122 -357 -122q-126 0 -224 34.5t-145 88.5
q-90 102 -103 188l-4 37h183q0 -26 22 -65q16 -30 45 -56q30 -27 90.5 -46t135.5 -19q144 0 233 79q90 80 90 230zM869 1208q-73 -61 -209 -61t-209 61q-74 60 -74 164h141q0 -109 142 -108q141 0 141 108h141q0 -104 -73 -164z" />
    <glyph glyph-name="Q.ss02" horiz-adv-x="1720" 
d="M338 185q-195 204 -195 532q0 327 195 532q193 205 522 205q328 0 523 -205q194 -206 194 -532q0 -327 -194 -532q-195 -205 -523 -205q-329 0 -522 205zM1239 314q137 158 137 403q0 246 -137 404q-136 157 -379 157t-379 -157q-137 -158 -137 -404q0 -245 137 -403
t379 -158t379 158zM1503 -272h-825l102 172h723v-172z" />
    <glyph glyph-name="uni0423.ss02" horiz-adv-x="1374" 
d="M1128 1434h195l-297 -1055q-55 -190 -151 -284q-98 -95 -293 -95h-265v172h248q112 0 171 43q59 44 93 164l45 156h-563l-260 899h195l207 -727h471z" />
    <glyph glyph-name="y.ss02" horiz-adv-x="1155" 
d="M651 -57l15 57h-363l-262 1004h182l217 -844h271l221 844h182l-280 -1061q-56 -206 -134 -289q-80 -84 -231 -84q-44 0 -137 16l-23 6v154q70 -23 123 -22q94 0 139 46q46 48 80 173z" />
    <glyph glyph-name="yacute.ss02" horiz-adv-x="1155" 
d="M651 -57l15 57h-363l-262 1004h182l217 -844h271l221 844h182l-280 -1061q-56 -206 -134 -289q-80 -84 -231 -84q-44 0 -137 16l-23 6v154q70 -23 123 -22q94 0 139 46q46 48 80 173zM653 1208h-164l308 328h227z" />
    <glyph glyph-name="ydieresis.ss02" horiz-adv-x="1155" 
d="M651 -57l15 57h-363l-262 1004h182l217 -844h271l221 844h182l-280 -1061q-56 -206 -134 -289q-80 -84 -231 -84q-44 0 -137 16l-23 6v154q70 -23 123 -22q94 0 139 46q46 48 80 173zM279 1327q0 43 28.5 67.5t77.5 24.5t76.5 -24.5t27.5 -67.5q0 -98 -104 -98
q-106 0 -106 98zM668 1327q0 43 28.5 67.5t77.5 24.5t77 -24.5t28 -67.5q0 -98 -105 -98q-106 0 -106 98z" />
    <glyph glyph-name="uni040E.ss02" horiz-adv-x="1374" 
d="M950 1688q-89 -70 -258 -70t-258 70q-90 69 -90 202v13h156v-13q0 -137 193 -137q192 0 192 137v13h155v-13q0 -133 -90 -202zM1128 1434h195l-297 -1055q-55 -190 -151 -284q-98 -95 -293 -95h-265v172h248q112 0 171 43q59 44 93 164l45 156h-563l-260 899h195
l207 -727h471z" />
    <glyph glyph-name="uni045E.ss02" horiz-adv-x="1155" 
d="M655 -35l11 35h-363l-262 1004h182l217 -844h271l221 844h182l-283 -1061q-56 -206 -134 -289q-79 -84 -230 -84q-44 0 -137 16l-23 6v154q70 -23 123 -22q96 0 142 49q45 48 83 192zM791 1208q-73 -61 -209 -61t-209 61q-74 60 -74 164h141q0 -109 142 -108
q141 0 141 108h141q0 -104 -73 -164z" />
    <glyph glyph-name="uni0443.ss02" horiz-adv-x="1155" 
d="M651 -57l15 57h-363l-262 1004h182l217 -844h271l221 844h182l-280 -1061q-56 -206 -134 -289q-80 -84 -231 -84q-44 0 -137 16l-23 6v154q70 -23 123 -22q94 0 139 46q46 48 80 173z" />
    </font>
</defs>
</svg>
